<svg width="933" height="410" viewBox="0 0 933 410" fill="none" xmlns="http://www.w3.org/2000/svg">
<g clip-path="url(#clip0_55_13458)">
<path d="M275.501 74.9998C177.501 88.4998 31.5008 168 48.0008 256.5C98.0011 361 307 457.948 616.5 351C807.5 285 958 129.5 879 46.0001C800 -37.4999 373.501 61.4998 275.501 74.9998Z" fill="#91E2EB"/>
<path d="M718.952 283.265C716.614 283.958 714.395 284.842 712.271 285.942C712.414 286.109 712.581 286.252 712.7 286.419C714.752 289.143 714.204 293.014 711.507 295.069C708.811 297.124 704.946 296.574 702.918 293.851C702.775 293.659 702.679 293.444 702.56 293.253C700.89 294.997 699.387 296.909 698.098 298.94C698.313 299.012 698.528 299.059 698.742 299.155C701.868 300.493 703.323 304.101 702.011 307.255C700.699 310.385 697.096 311.867 693.97 310.529C693.732 310.433 693.517 310.29 693.278 310.146C692.706 312.488 692.348 314.901 692.229 317.386C692.467 317.315 692.706 317.243 692.968 317.219C696.332 316.789 699.387 319.202 699.816 322.595C700.222 325.988 697.836 329.071 694.471 329.477C694.185 329.525 693.899 329.501 693.589 329.477C694.257 331.89 695.187 334.184 696.285 336.334C696.499 336.119 696.69 335.928 696.929 335.737C699.625 333.682 703.49 334.232 705.519 336.956C707.571 339.68 707.022 343.55 704.326 345.605C704.063 345.796 703.801 345.94 703.514 346.107C705.28 347.827 707.237 349.381 709.312 350.719C709.384 350.408 709.455 350.121 709.599 349.811C710.911 346.681 714.514 345.199 717.639 346.537C720.765 347.875 722.221 351.483 720.908 354.637C720.765 354.948 720.598 355.235 720.431 355.521C722.817 356.119 725.251 356.477 727.78 356.573C727.685 356.262 727.613 355.951 727.565 355.617C727.16 352.224 729.546 349.142 732.91 348.735C736.274 348.305 739.328 350.719 739.758 354.112C739.806 354.446 739.806 354.805 739.758 355.139C742.168 354.446 744.482 353.49 746.63 352.343C746.391 352.128 746.176 351.889 745.961 351.627C743.909 348.903 744.458 345.032 747.154 342.977C749.851 340.922 753.716 341.472 755.744 344.196C755.935 344.458 756.102 344.745 756.245 345.032C757.939 343.24 759.466 341.28 760.779 339.178C760.492 339.106 760.206 339.034 759.92 338.915C756.794 337.577 755.338 333.969 756.651 330.815C757.963 327.685 761.566 326.203 764.692 327.541C764.978 327.661 765.24 327.828 765.479 327.971C766.052 325.606 766.386 323.169 766.481 320.66C766.219 320.731 765.956 320.803 765.67 320.851C762.306 321.281 759.251 318.868 758.822 315.475C758.416 312.082 760.802 308.999 764.167 308.593C764.429 308.569 764.715 308.593 764.978 308.593C764.286 306.228 763.355 303.958 762.258 301.807C762.091 301.975 761.924 302.166 761.709 302.309C759.013 304.364 755.148 303.814 753.119 301.09C751.067 298.367 751.616 294.496 754.312 292.441C754.503 292.297 754.718 292.178 754.933 292.058C753.191 290.386 751.282 288.904 749.254 287.59C749.182 287.805 749.135 288.02 749.063 288.235C747.751 291.366 744.148 292.847 741.022 291.509C737.897 290.171 736.441 286.563 737.754 283.409C737.849 283.194 737.968 283.003 738.088 282.811C735.773 282.262 733.411 281.903 730.977 281.808C731.025 282.023 731.097 282.214 731.12 282.429C731.526 285.822 729.14 288.904 725.776 289.311C722.411 289.741 719.357 287.327 718.928 283.934C718.904 283.695 718.928 283.48 718.928 283.265H718.952ZM726.253 294.209C739.949 292.512 752.451 302.309 754.145 316.096C755.839 329.883 746.105 342.451 732.409 344.172C718.713 345.868 706.21 336.072 704.516 322.285C702.822 308.498 712.557 295.929 726.253 294.209Z" fill="#FF9C40"/>
<path d="M725.991 349.357C742.526 351.22 757.462 339.202 759.323 322.547C761.184 305.917 749.23 290.864 732.695 289C716.16 287.136 701.224 299.155 699.363 315.785C697.502 332.416 709.456 347.469 725.991 349.333V349.357ZM710.315 317.243C711.532 307.255 721.075 299.991 731.574 301.067C742.072 302.142 749.612 311.126 748.371 321.114C747.155 331.102 737.611 338.365 727.112 337.29C716.614 336.215 709.074 327.231 710.315 317.243Z" fill="#FF9C40"/>
<path d="M517.811 339.823C515.902 340.396 514.089 341.137 512.371 342.069C512.49 342.212 512.609 342.332 512.729 342.475C514.399 344.769 513.969 348.042 511.774 349.763C509.579 351.483 506.429 351.029 504.759 348.712C504.64 348.544 504.568 348.377 504.449 348.21C503.089 349.691 501.872 351.292 500.822 353.012C500.989 353.06 501.18 353.108 501.347 353.18C503.9 354.303 505.093 357.361 504.02 360.013C502.946 362.666 500.011 363.884 497.458 362.761C497.267 362.666 497.076 362.546 496.909 362.451C496.432 364.434 496.146 366.465 496.074 368.544C496.265 368.496 496.48 368.424 496.695 368.4C499.438 368.066 501.944 370.097 502.278 372.94C502.612 375.784 500.679 378.388 497.935 378.746C497.697 378.77 497.458 378.746 497.219 378.746C497.792 380.777 498.532 382.713 499.438 384.553C499.606 384.386 499.773 384.194 499.963 384.051C502.159 382.331 505.308 382.785 506.978 385.102C508.648 387.396 508.219 390.67 506.024 392.39C505.809 392.557 505.594 392.677 505.356 392.796C506.811 394.254 508.386 395.568 510.08 396.691C510.152 396.428 510.199 396.189 510.295 395.926C511.368 393.274 514.303 392.056 516.856 393.179C519.409 394.302 520.602 397.36 519.529 400.012C519.409 400.275 519.29 400.514 519.147 400.753C521.08 401.255 523.084 401.565 525.136 401.661C525.064 401.398 524.993 401.135 524.969 400.849C524.611 397.981 526.567 395.401 529.311 395.042C532.055 394.708 534.56 396.739 534.895 399.582C534.918 399.869 534.918 400.156 534.895 400.442C536.851 399.845 538.736 399.08 540.502 398.101C540.311 397.91 540.12 397.718 539.953 397.503C538.283 395.21 538.712 391.936 540.907 390.216C543.102 388.495 546.252 388.949 547.922 391.267C548.089 391.482 548.208 391.745 548.328 391.984C549.712 390.479 550.952 388.83 552.026 387.062C551.787 386.99 551.549 386.942 551.31 386.823C548.757 385.7 547.564 382.641 548.638 379.989C549.712 377.337 552.646 376.118 555.199 377.241C555.438 377.337 555.629 377.48 555.844 377.623C556.297 375.616 556.583 373.561 556.631 371.459C556.416 371.507 556.202 371.578 555.963 371.602C553.219 371.937 550.714 369.906 550.38 367.062C550.022 364.195 551.978 361.614 554.722 361.256C554.937 361.232 555.176 361.256 555.39 361.256C554.818 359.249 554.054 357.337 553.147 355.521C553.004 355.665 552.861 355.808 552.694 355.951C550.499 357.672 547.349 357.218 545.679 354.9C544.009 352.606 544.439 349.333 546.634 347.612C546.801 347.493 546.968 347.397 547.135 347.302C545.703 345.892 544.152 344.626 542.482 343.526C542.434 343.718 542.387 343.885 542.315 344.076C541.241 346.728 538.307 347.947 535.753 346.824C533.2 345.701 532.007 342.642 533.081 339.99C533.153 339.799 533.248 339.656 533.344 339.488C531.459 339.01 529.526 338.724 527.546 338.628C527.593 338.795 527.641 338.963 527.665 339.154C528.023 342.021 526.066 344.602 523.322 344.96C520.578 345.295 518.073 343.264 517.739 340.42C517.739 340.229 517.739 340.038 517.739 339.847L517.811 339.823ZM523.823 349.07C534.99 347.66 545.202 355.951 546.61 367.612C548.018 379.248 540.12 389.833 528.953 391.243C517.787 392.653 507.575 384.362 506.167 372.701C504.759 361.065 512.657 350.48 523.823 349.07Z" fill="#FF9C40"/>
<path d="M524.063 392.533C535.921 393.943 546.611 385.078 547.899 372.725C549.188 360.396 540.598 349.189 528.74 347.78C516.881 346.37 506.192 355.235 504.903 367.588C503.615 379.917 512.205 391.124 524.063 392.533ZM511.155 368.496C512.109 360.229 519.744 354.231 528.143 355.139C536.542 356.047 542.602 363.526 541.648 371.793C540.693 380.061 533.058 386.058 524.659 385.15C516.261 384.242 510.2 376.763 511.155 368.496Z" fill="#FF9C40"/>
<path d="M606.069 278.606C601.965 279.801 598.028 281.378 594.33 283.313C594.592 283.6 594.879 283.839 595.094 284.149C598.696 288.928 597.742 295.762 592.994 299.37C588.246 302.978 581.469 302.046 577.867 297.243C577.604 296.909 577.437 296.527 577.222 296.192C574.288 299.274 571.663 302.62 569.372 306.204C569.754 306.323 570.136 306.395 570.518 306.562C576.006 308.904 578.582 315.284 576.244 320.803C573.93 326.323 567.583 328.903 562.095 326.585C561.666 326.394 561.284 326.155 560.902 325.916C559.876 330.05 559.256 334.303 559.041 338.652C559.47 338.533 559.9 338.413 560.353 338.341C566.271 337.601 571.663 341.83 572.403 347.804C573.142 353.753 568.943 359.177 563.026 359.918C562.501 359.99 562 359.966 561.499 359.942C562.692 364.171 564.29 368.209 566.247 372.008C566.605 371.65 566.963 371.268 567.368 370.957C572.116 367.349 578.893 368.281 582.495 373.084C586.098 377.862 585.144 384.696 580.396 388.304C579.942 388.639 579.465 388.901 578.964 389.164C582.09 392.199 585.502 394.923 589.152 397.264C589.296 396.739 589.415 396.213 589.63 395.687C591.944 390.168 598.291 387.587 603.779 389.905C609.266 392.247 611.843 398.626 609.505 404.146C609.266 404.696 608.956 405.221 608.646 405.699C612.822 406.75 617.14 407.372 621.554 407.563C621.387 407.013 621.244 406.464 621.173 405.89C620.433 399.941 624.632 394.517 630.55 393.776C636.467 393.035 641.859 397.264 642.599 403.214C642.671 403.811 642.671 404.409 642.647 405.006C646.894 403.764 650.95 402.115 654.744 400.108C654.338 399.726 653.933 399.319 653.575 398.841C649.972 394.063 650.926 387.229 655.674 383.621C660.422 380.013 667.199 380.945 670.802 385.747C671.159 386.225 671.422 386.727 671.684 387.229C674.667 384.075 677.363 380.61 679.677 376.907C679.153 376.763 678.652 376.644 678.15 376.429C672.663 374.087 670.086 367.707 672.424 362.188C674.738 356.668 681.085 354.088 686.573 356.405C687.074 356.62 687.527 356.907 687.981 357.17C688.983 353.012 689.579 348.712 689.746 344.315C689.269 344.434 688.816 344.578 688.315 344.65C682.398 345.39 677.005 341.161 676.265 335.187C675.526 329.238 679.725 323.814 685.642 323.073C686.12 323.001 686.597 323.025 687.074 323.049C685.857 318.868 684.235 314.877 682.278 311.126C681.968 311.437 681.682 311.747 681.324 312.01C676.576 315.618 669.799 314.686 666.197 309.883C662.594 305.105 663.548 298.271 668.296 294.663C668.654 294.4 669.036 294.209 669.394 293.994C666.316 291.055 662.975 288.427 659.396 286.133C659.277 286.515 659.206 286.897 659.039 287.256C656.724 292.775 650.377 295.356 644.89 293.038C639.402 290.696 636.825 284.317 639.163 278.797C639.33 278.415 639.545 278.08 639.736 277.746C635.68 276.766 631.504 276.169 627.233 275.978C627.305 276.336 627.424 276.694 627.472 277.053C628.211 283.003 624.012 288.427 618.095 289.167C612.177 289.908 606.785 285.679 606.045 279.705C605.998 279.299 606.045 278.917 606.021 278.51L606.069 278.606ZM619.335 300.947C641.764 298.151 662.212 314.184 664.98 336.764C667.747 359.344 651.833 379.917 629.404 382.713C606.976 385.509 586.528 369.476 583.76 346.896C580.992 324.316 596.907 303.743 619.335 300.947Z" fill="#08668B"/>
<path d="M618.835 391.84C646.226 394.923 671.017 374.995 674.095 347.421C677.173 319.847 657.369 294.902 629.978 291.796C602.586 288.689 577.796 308.617 574.718 336.215C571.64 363.789 591.444 388.758 618.835 391.84ZM591.038 338.055C593.09 319.537 609.744 306.132 628.164 308.211C646.56 310.29 659.874 327.04 657.798 345.581C655.746 364.099 639.092 377.504 620.672 375.425C602.276 373.346 588.962 356.597 591.038 338.055Z" fill="#08668B" stroke="#292929" stroke-linecap="round" stroke-linejoin="round"/>
<path d="M393.428 6.14077C398.558 0.16723 407.529 -0.501807 413.47 4.65933C419.411 9.82047 420.079 18.8525 414.926 24.8499" stroke="black" stroke-linecap="round" stroke-linejoin="round"/>
<path d="M433.729 78.4685C441.227 78.4685 447.305 72.3493 447.305 64.801C447.305 57.2527 441.227 51.1335 433.729 51.1335C426.231 51.1335 420.152 57.2527 420.152 64.801C420.152 72.3493 426.231 78.4685 433.729 78.4685Z" stroke="black" stroke-linecap="round" stroke-linejoin="round"/>
<path d="M784.711 112.542C784.425 92.9005 801.294 77.7278 819.762 78.6118C826.18 78.9225 832.073 81.0729 837.036 84.4659C844.743 75.6012 856.22 70.225 868.794 70.8462C886.069 71.6825 902.771 83.4384 904.178 99.567C921.095 104.418 933.836 120.212 932.954 138.658C932.405 150.055 927.06 160.067 918.972 166.829C921.024 172.683 920.809 179.541 917.087 186.398C915.082 190.078 911.933 193.041 908.163 194.833C901.267 198.107 894.778 197.939 889.29 195.789L888.86 227.616C888.836 229.527 886.379 230.268 885.305 228.715L868.77 204.677C853.356 211.033 839.518 201.5 838.492 187.402C834.388 189.457 829.759 190.532 824.868 190.293C810.719 189.624 799.6 178.418 798.502 164.559C790.772 169.195 780.703 170.174 770.681 165.133C765.146 162.337 760.779 157.486 758.584 151.656C750.83 131.036 765.862 112.279 784.711 112.565V112.542Z" fill="#0484BB"/>
<path d="M898.572 151.513C907.687 151.943 915.298 157.725 918.567 165.682L898.572 151.513Z" fill="#0484BB"/>
<path d="M898.572 151.513C907.687 151.943 915.298 157.725 918.567 165.682" stroke="black" stroke-linecap="round" stroke-linejoin="round"/>
<path d="M798.717 162.218C799.456 146.782 812.484 134.859 827.826 135.599L798.717 162.218Z" fill="#0484BB"/>
<path d="M798.717 162.218C799.456 146.782 812.484 134.859 827.826 135.599" stroke="black" stroke-linecap="round" stroke-linejoin="round"/>
<path d="M782.348 112.565C788.217 112.183 793.681 113.593 798.286 116.293L782.348 112.565Z" fill="#0484BB"/>
<path d="M782.348 112.565C788.217 112.183 793.681 113.593 798.286 116.293" stroke="black" stroke-linecap="round" stroke-linejoin="round"/>
<path d="M813.916 91.1085C826.228 91.7058 835.748 102.243 835.151 114.644L813.916 91.1085Z" fill="#0484BB"/>
<path d="M813.916 91.1085C826.228 91.7058 835.748 102.243 835.151 114.644" stroke="black" stroke-linecap="round" stroke-linejoin="round"/>
<path d="M833.481 176.578C822.625 177.605 812.962 169.577 811.936 158.657L833.481 176.578Z" fill="#0484BB"/>
<path d="M833.481 176.578C822.625 177.605 812.962 169.577 811.936 158.657" stroke="black" stroke-linecap="round" stroke-linejoin="round"/>
<path d="M771.277 147.451C768.056 138.108 772.971 127.905 782.253 124.656L771.277 147.451Z" fill="#0484BB"/>
<path d="M771.277 147.451C768.056 138.108 772.971 127.905 782.253 124.656" stroke="black" stroke-linecap="round" stroke-linejoin="round"/>
<path d="M907.114 173.687C904.823 180.831 897.212 184.726 890.102 182.432L907.114 173.687Z" fill="#0484BB"/>
<path d="M907.114 173.687C904.823 180.831 897.212 184.726 890.102 182.432" stroke="black" stroke-linecap="round" stroke-linejoin="round"/>
<path d="M874.641 105.063C882.825 99.3759 893.156 97.321 903.654 99.4714L874.641 105.063Z" fill="#0484BB"/>
<path d="M874.641 105.063C882.825 99.3759 893.156 97.321 903.654 99.4714" stroke="black" stroke-linecap="round" stroke-linejoin="round"/>
<path d="M909.977 116.699C915.464 120.809 919.091 127.332 919.21 134.763L909.977 116.699Z" fill="#0484BB"/>
<path d="M909.977 116.699C915.464 120.809 919.091 127.332 919.21 134.763" stroke="black" stroke-linecap="round" stroke-linejoin="round"/>
<path d="M850.326 125.301C857.198 123.915 864.738 127.213 868.436 133.21C872.134 139.207 871.705 147.475 867.434 153.042" fill="#0484BB"/>
<path d="M850.326 125.301C857.198 123.915 864.738 127.213 868.436 133.21C872.134 139.207 871.705 147.475 867.434 153.042" stroke="black" stroke-linecap="round" stroke-linejoin="round"/>
<path d="M848.013 159.302C845.627 161.501 844.41 164.918 844.863 168.143C845.316 171.369 847.464 174.308 850.375 175.718" fill="#0484BB"/>
<path d="M848.013 159.302C845.627 161.501 844.41 164.918 844.863 168.143C845.316 171.369 847.464 174.308 850.375 175.718" stroke="black" stroke-linecap="round" stroke-linejoin="round"/>
<path d="M673.022 8.14795L674.072 108.981L653.075 109.101L652.049 8.26742L673.022 8.14795Z" fill="#08668B"/>
<path d="M626.375 24.826L627.234 109.244L606.261 109.364L605.402 24.9216L626.375 24.826Z" fill="#FF9C40"/>
<path d="M558.707 37.6095L559.423 109.603L580.42 109.507L579.68 37.6095H558.707Z" fill="#08668B"/>
<path d="M536.541 71.0374L536.947 109.722L515.95 109.842L515.568 71.1569L536.541 71.0374Z" fill="#FF9C40"/>
<path d="M691.56 109.029L507.17 110.176" stroke="#101C59" stroke-linecap="round" stroke-linejoin="round"/>
<path d="M609.363 30.9669V53.9531" stroke="black" stroke-linecap="round" stroke-linejoin="round"/>
<path d="M656.893 66.6169V95.6245" stroke="black" stroke-linecap="round" stroke-linejoin="round"/>
<path d="M518.646 81.7181V91.3235" stroke="black" stroke-linecap="round" stroke-linejoin="round"/>
<path d="M563.004 63.5585V67.6683" stroke="black" stroke-linecap="round" stroke-linejoin="round"/>
<path d="M777.432 195.55L729.903 243.41H541.027L482.379 303.456" stroke="#51C3EB" stroke-linecap="round" stroke-linejoin="round"/>
<path d="M778.936 216.147L736.585 258.774H569.612L504.951 323.861" stroke="#51C3EB" stroke-linecap="round" stroke-linejoin="round"/>
<path d="M733.649 126.496H443.559" stroke="#51C3EB" stroke-linecap="round" stroke-linejoin="round"/>
<path d="M724.988 171.751H492.257L443.225 221.117" stroke="#51C3EB" stroke-linecap="round" stroke-linejoin="round"/>
<path d="M641.429 200.185L615.493 226.278H497.362L464.221 259.658" stroke="#51C3EB" stroke-linecap="round" stroke-linejoin="round"/>
<path d="M510.033 199.015H605.712" stroke="#51C3EB" stroke-linecap="round" stroke-linejoin="round"/>
<path d="M695.616 147.977H528.477" stroke="#51C3EB" stroke-linecap="round" stroke-linejoin="round"/>
<path d="M662.189 210.627H723.271" stroke="#51C3EB" stroke-linecap="round" stroke-linejoin="round"/>
<path d="M741.713 125.922C741.713 130.414 738.111 134.046 733.649 134.046C729.187 134.046 725.584 130.414 725.584 125.922C725.584 121.43 729.187 117.798 733.649 117.798C738.111 117.798 741.713 121.43 741.713 125.922Z" fill="#51C3EB"/>
<path d="M451.624 125.922C451.624 130.414 448.021 134.046 443.559 134.046C439.097 134.046 435.494 130.414 435.494 125.922C435.494 121.43 439.097 117.798 443.559 117.798C448.021 117.798 451.624 121.43 451.624 125.922Z" fill="#51C3EB"/>
<path d="M720.955 219.898C725.409 219.898 729.02 216.261 729.02 211.774C729.02 207.287 725.409 203.65 720.955 203.65C716.501 203.65 712.891 207.287 712.891 211.774C712.891 216.261 716.501 219.898 720.955 219.898Z" fill="#51C3EB"/>
<path d="M605.713 207.139C610.167 207.139 613.778 203.501 613.778 199.015C613.778 194.528 610.167 190.891 605.713 190.891C601.259 190.891 597.648 194.528 597.648 199.015C597.648 203.501 601.259 207.139 605.713 207.139Z" fill="#51C3EB"/>
<path d="M646.036 199.015C646.036 203.507 642.433 207.139 637.971 207.139C633.509 207.139 629.906 203.507 629.906 199.015C629.906 194.522 633.509 190.891 637.971 190.891C642.433 190.891 646.036 194.522 646.036 199.015Z" fill="#51C3EB"/>
<path d="M514.639 205.992C519.093 205.992 522.704 202.354 522.704 197.868C522.704 193.381 519.093 189.744 514.639 189.744C510.185 189.744 506.574 193.381 506.574 197.868C506.574 202.354 510.185 205.992 514.639 205.992Z" fill="#51C3EB"/>
<path d="M492.735 299.967C492.735 304.459 489.132 308.091 484.67 308.091C480.208 308.091 476.605 304.459 476.605 299.967C476.605 295.475 480.208 291.843 484.67 291.843C489.132 291.843 492.735 295.475 492.735 299.967Z" fill="#51C3EB"/>
<path d="M505.451 331.723C509.905 331.723 513.516 328.085 513.516 323.599C513.516 319.112 509.905 315.475 505.451 315.475C500.997 315.475 497.387 319.112 497.387 323.599C497.387 328.085 500.997 331.723 505.451 331.723Z" fill="#51C3EB"/>
<path d="M467.395 262.836C471.849 262.836 475.46 259.199 475.46 254.712C475.46 250.225 471.849 246.588 467.395 246.588C462.941 246.588 459.33 250.225 459.33 254.712C459.33 259.199 462.941 262.836 467.395 262.836Z" fill="#51C3EB"/>
<path d="M669.084 219.898C673.538 219.898 677.149 216.261 677.149 211.774C677.149 207.287 673.538 203.65 669.084 203.65C664.63 203.65 661.02 207.287 661.02 211.774C661.02 216.261 664.63 219.898 669.084 219.898Z" fill="#51C3EB"/>
<path d="M733.077 171.751C733.077 176.243 729.474 179.875 725.012 179.875C720.55 179.875 716.947 176.243 716.947 171.751C716.947 167.259 720.55 163.627 725.012 163.627C729.474 163.627 733.077 167.259 733.077 171.751Z" fill="#51C3EB"/>
<path d="M787.024 216.147C787.024 220.639 783.421 224.271 778.959 224.271C774.497 224.271 770.895 220.639 770.895 216.147C770.895 211.655 774.497 208.023 778.959 208.023C783.421 208.023 787.024 211.655 787.024 216.147Z" fill="#51C3EB"/>
<path d="M784.924 194.952C784.924 199.445 781.321 203.077 776.86 203.077C772.398 203.077 768.795 199.445 768.795 194.952C768.795 190.46 772.398 186.828 776.86 186.828C781.321 186.828 784.924 190.46 784.924 194.952Z" fill="#51C3EB"/>
<path d="M695.617 156.101C700.071 156.101 703.682 152.463 703.682 147.977C703.682 143.49 700.071 139.853 695.617 139.853C691.163 139.853 687.553 143.49 687.553 147.977C687.553 152.463 691.163 156.101 695.617 156.101Z" fill="#51C3EB"/>
<path d="M528.477 156.101C532.931 156.101 536.541 152.463 536.541 147.977C536.541 143.49 532.931 139.853 528.477 139.853C524.023 139.853 520.412 143.49 520.412 147.977C520.412 152.463 524.023 156.101 528.477 156.101Z" fill="#51C3EB"/>
<path d="M446.637 226.875C451.091 226.875 454.702 223.238 454.702 218.751C454.702 214.264 451.091 210.627 446.637 210.627C442.183 210.627 438.572 214.264 438.572 218.751C438.572 223.238 442.183 226.875 446.637 226.875Z" fill="#51C3EB"/>
<path d="M69.5527 128.933C69.5527 131.394 71.5331 133.401 73.9907 133.401H159.338C161.796 133.401 163.776 131.394 163.776 128.933C163.776 126.472 161.796 124.465 159.338 124.465H73.9907C71.5331 124.465 69.5527 126.472 69.5527 128.933Z" fill="#51C3EB"/>
<path d="M205.554 124.465H178.282C175.824 124.465 173.844 126.472 173.844 128.933C173.844 131.394 175.824 133.401 178.282 133.401H205.554C208.011 133.401 209.992 131.394 209.992 128.933C209.992 126.472 208.011 124.465 205.554 124.465Z" fill="#51C3EB"/>
<path d="M178.307 146.447H100.666C98.2089 146.447 96.2285 148.454 96.2285 150.916C96.2285 153.377 98.2089 155.384 100.666 155.384H178.307C180.765 155.384 182.745 153.377 182.745 150.916C182.745 148.454 180.765 146.447 178.307 146.447Z" fill="#51C3EB"/>
<path d="M190.238 150.916C190.238 153.377 192.219 155.384 194.676 155.384H211.211C213.669 155.384 215.649 153.377 215.649 150.916C215.649 148.454 213.669 146.447 211.211 146.447H194.676C192.219 146.447 190.238 148.454 190.238 150.916Z" fill="#51C3EB"/>
<path d="M83.7479 146.447H73.9653C71.5077 146.447 69.5273 148.454 69.5273 150.916C69.5273 153.377 71.5077 155.384 73.9653 155.384H83.7479C86.2055 155.384 88.1859 153.377 88.1859 150.916C88.1859 148.454 86.2055 146.447 83.7479 146.447Z" fill="#51C3EB"/>
<path d="M54.6876 146.447H15.5571C13.0995 146.447 11.1191 148.454 11.1191 150.916C11.1191 153.377 13.0995 155.384 15.5571 155.384H54.6638C56.1431 155.384 57.3361 154.189 57.3361 152.708V149.147C57.3361 147.666 56.1431 146.471 54.6638 146.471L54.6876 146.447Z" fill="#51C3EB"/>
<path d="M108.492 171.417C108.492 173.878 110.473 175.885 112.93 175.885H209.54C211.997 175.885 213.978 173.878 213.978 171.417C213.978 168.956 211.997 166.949 209.54 166.949H112.93C110.473 166.949 108.492 168.956 108.492 171.417Z" fill="#51C3EB"/>
<path d="M39.7754 171.417C39.7754 173.878 41.7558 175.885 44.2134 175.885H89.2612C91.7187 175.885 93.6991 173.878 93.6991 171.417C93.6991 168.956 91.7187 166.949 89.2612 166.949H44.2134C41.7558 166.949 39.7754 168.956 39.7754 171.417Z" fill="#51C3EB"/>
<path d="M6.58594 193.399C6.58594 195.861 8.56632 197.868 11.0239 197.868H16.9651C19.4227 197.868 21.403 195.861 21.403 193.399C21.403 190.938 19.4227 188.931 16.9651 188.931H11.0239C8.56632 188.931 6.58594 190.938 6.58594 193.399Z" fill="#51C3EB"/>
<path d="M27.3203 193.399C27.3203 195.861 29.3007 197.868 31.7583 197.868H89.8575C92.3151 197.868 94.2955 195.861 94.2955 193.399C94.2955 190.938 92.3151 188.931 89.8575 188.931H31.7583C29.3007 188.931 27.3203 190.938 27.3203 193.399Z" fill="#51C3EB"/>
<path d="M103.768 193.399C103.768 195.861 105.748 197.868 108.206 197.868H129.56C132.018 197.868 133.998 195.861 133.998 193.399C133.998 190.938 132.018 188.931 129.56 188.931H108.206C105.748 188.931 103.768 190.938 103.768 193.399Z" fill="#51C3EB"/>
<path d="M147.025 193.399C147.025 195.861 149.006 197.868 151.463 197.868H173.415C175.872 197.868 177.853 195.861 177.853 193.399C177.853 190.938 175.872 188.931 173.415 188.931H151.463C149.006 188.931 147.025 190.938 147.025 193.399Z" fill="#51C3EB"/>
<path d="M193.244 193.399C193.244 195.861 195.225 197.868 197.682 197.868H209.541C211.998 197.868 213.979 195.861 213.979 193.399C213.979 190.938 211.998 188.931 209.541 188.931H197.682C195.225 188.931 193.244 190.938 193.244 193.399Z" fill="#51C3EB"/>
<path d="M55.7617 215.382C55.7617 217.843 57.7421 219.85 60.1997 219.85H68.503C70.9606 219.85 72.941 217.843 72.941 215.382C72.941 212.921 70.9606 210.914 68.503 210.914H60.1997C57.7421 210.914 55.7617 212.921 55.7617 215.382Z" fill="#51C3EB"/>
<path d="M90.502 215.382C90.502 217.843 92.4823 219.85 94.9399 219.85H136.671C139.129 219.85 141.109 217.843 141.109 215.382C141.109 212.921 139.129 210.914 136.671 210.914H94.9399C92.4823 210.914 90.502 212.921 90.502 215.382Z" fill="#51C3EB"/>
<path d="M150.105 215.382C150.105 217.843 152.086 219.85 154.543 219.85H187.16C189.618 219.85 191.598 217.843 191.598 215.382C191.598 212.921 189.618 210.914 187.16 210.914H154.543C152.086 210.914 150.105 212.921 150.105 215.382Z" fill="#51C3EB"/>
<path d="M109.637 65.5178C109.637 67.9789 111.617 69.986 114.075 69.986H210.684C213.142 69.986 215.122 67.9789 215.122 65.5178C215.122 63.0567 213.142 61.0496 210.684 61.0496H114.075C111.617 61.0496 109.637 63.0567 109.637 65.5178Z" fill="#51C3EB"/>
<path d="M144.926 42.0538H133.116C130.658 42.0538 128.678 44.0609 128.678 46.522C128.678 48.9831 130.658 50.9902 133.116 50.9902H144.926C147.384 50.9902 149.364 48.9831 149.364 46.522C149.364 44.0609 147.384 42.0538 144.926 42.0538Z" fill="#51C3EB"/>
<path d="M115.172 42.0538H75.063C72.6054 42.0538 70.625 44.0609 70.625 46.522C70.625 48.9831 72.6054 50.9902 75.063 50.9902H115.172C117.629 50.9902 119.61 48.9831 119.61 46.522C119.61 44.0609 117.629 42.0538 115.172 42.0538Z" fill="#51C3EB"/>
<path d="M156.26 46.522C156.26 48.9831 158.24 50.9902 160.698 50.9902H210.685C213.142 50.9902 215.123 48.9831 215.123 46.522C215.123 44.0609 213.142 42.0538 210.685 42.0538H160.698C158.24 42.0538 156.26 44.0609 156.26 46.522Z" fill="#51C3EB"/>
<path d="M104.891 87.4766C104.891 89.9377 106.871 91.9448 109.329 91.9448H130.683C133.141 91.9448 135.121 89.9377 135.121 87.4766C135.121 85.0155 133.141 83.0084 130.683 83.0084H109.329C106.871 83.0084 104.891 85.0155 104.891 87.4766Z" fill="#51C3EB"/>
<path d="M148.148 87.4766C148.148 89.9377 150.129 91.9448 152.586 91.9448H174.538C176.995 91.9448 178.976 89.9377 178.976 87.4766C178.976 85.0155 176.995 83.0084 174.538 83.0084H152.586C150.129 83.0084 148.148 85.0155 148.148 87.4766Z" fill="#51C3EB"/>
<path d="M191.812 87.4766C191.812 89.9377 193.793 91.9448 196.25 91.9448H212.404C214.861 91.9448 216.842 89.9377 216.842 87.4766C216.842 85.0155 214.861 83.0084 212.404 83.0084H196.25C193.793 83.0084 191.812 85.0155 191.812 87.4766Z" fill="#51C3EB"/>
<path d="M125.219 109.459C125.219 111.92 127.199 113.927 129.657 113.927H154.567C157.024 113.927 159.005 111.92 159.005 109.459C159.005 106.998 157.024 104.991 154.567 104.991H129.657C127.199 104.991 125.219 106.998 125.219 109.459Z" fill="#51C3EB"/>
<path d="M56.8828 109.459C56.8828 111.92 58.8632 113.927 61.3208 113.927H69.6241C72.0817 113.927 74.0621 111.92 74.0621 109.459C74.0621 106.998 72.0817 104.991 69.6241 104.991H61.3208C58.8632 104.991 56.8828 106.998 56.8828 109.459Z" fill="#51C3EB"/>
<path d="M82.3652 109.459C82.3652 111.92 84.3456 113.927 86.8032 113.927H105.199C107.657 113.927 109.637 111.92 109.637 109.459C109.637 106.998 107.657 104.991 105.199 104.991H86.8032C84.3456 104.991 82.3652 106.998 82.3652 109.459Z" fill="#51C3EB"/>
<path d="M175.395 109.459C175.395 111.92 177.375 113.927 179.833 113.927H212.449C214.907 113.927 216.887 111.92 216.887 109.459C216.887 106.998 214.907 104.991 212.449 104.991H179.833C177.375 104.991 175.395 106.998 175.395 109.459Z" fill="#51C3EB"/>
<path d="M55.0465 56.7248C54.5455 56.7248 54.0205 56.5336 53.6149 56.1513L43.0449 46.3308L53.5195 35.459C54.3307 34.6227 55.6669 34.5988 56.502 35.4112C57.3371 36.2236 57.361 37.5617 56.5497 38.398L49.0577 46.1636L56.4543 53.0451C57.3132 53.8336 57.361 55.1717 56.5736 56.0319C56.168 56.4858 55.5953 56.7009 55.0227 56.7009L55.0465 56.7248Z" fill="#51C3EB"/>
<path d="M67.7868 56.7248C67.2857 56.7248 66.7608 56.5336 66.3552 56.1513L55.7852 46.3308L66.2597 35.459C67.071 34.6227 68.4071 34.5988 69.2422 35.4112C70.0773 36.2236 70.1012 37.5617 69.29 38.398L61.7979 46.1636L69.1945 53.0451C70.0535 53.8336 70.1012 55.1717 69.3138 56.0319C68.9082 56.4858 68.3355 56.7009 67.7629 56.7009L67.7868 56.7248Z" fill="#51C3EB"/>
<path d="M210.995 226.923C210.422 226.923 209.874 226.684 209.444 226.254C208.657 225.394 208.704 224.056 209.563 223.267L216.96 216.386L209.492 208.62C208.681 207.784 208.704 206.446 209.54 205.633C210.375 204.821 211.711 204.845 212.522 205.681L222.997 216.553L212.427 226.373C212.021 226.756 211.52 226.947 210.995 226.947V226.923Z" fill="#51C3EB"/>
<path d="M198.254 226.923C197.681 226.923 197.132 226.684 196.703 226.254C195.915 225.394 195.963 224.056 196.822 223.267L204.219 216.386L196.727 208.62C195.915 207.784 195.939 206.446 196.774 205.633C197.609 204.821 198.946 204.845 199.757 205.681L210.231 216.553L199.661 226.373C199.256 226.756 198.755 226.947 198.23 226.947L198.254 226.923Z" fill="#51C3EB"/>
<path d="M377.87 125.803H375.245C368.09 125.803 362.289 131.612 362.289 138.777V233.852C362.289 241.018 368.09 246.827 375.245 246.827H377.87C385.025 246.827 390.826 241.018 390.826 233.852V138.777C390.826 131.612 385.025 125.803 377.87 125.803Z" fill="#0484BB"/>
<path d="M423.993 334.303L421.44 335.689C415.904 338.7 409.009 336.621 406.026 331.078L369.377 262.884C366.395 257.316 368.446 250.387 373.958 247.376L376.511 245.99C382.047 242.98 388.942 245.059 391.925 250.602L428.574 318.796C431.556 324.363 429.504 331.293 423.993 334.303Z" fill="#0484BB"/>
<path d="M415.737 375.855C407.791 360.085 411.561 342.093 424.183 335.665C436.781 329.238 453.436 336.812 461.381 352.582" stroke="#0484BB" stroke-width="5" stroke-linecap="round" stroke-linejoin="round"/>
<path d="M377.536 239.348C380.066 239.348 382.117 237.283 382.117 234.736C382.117 232.189 380.066 230.125 377.536 230.125C375.006 230.125 372.955 232.189 372.955 234.736C372.955 237.283 375.006 239.348 377.536 239.348Z" fill="#08668B"/>
<path d="M386.055 256.504C386.055 259.061 384.003 261.115 381.474 261.115C378.945 261.115 376.893 259.037 376.893 256.504C376.893 253.971 378.945 251.892 381.474 251.892C384.003 251.892 386.055 253.971 386.055 256.504Z" fill="#08668B"/>
<path d="M378.181 160.115C393.942 160.115 406.718 147.256 406.718 131.394C406.718 115.532 393.942 102.673 378.181 102.673C362.421 102.673 349.645 115.532 349.645 131.394C349.645 147.256 362.421 160.115 378.181 160.115Z" stroke="#085C7D" stroke-opacity="0.9804" stroke-linecap="round" stroke-linejoin="round"/>
<path d="M378.18 150.939C388.906 150.939 397.602 142.189 397.602 131.394C397.602 120.599 388.906 111.849 378.18 111.849C367.453 111.849 358.758 120.599 358.758 131.394C358.758 142.189 367.453 150.939 378.18 150.939Z" fill="#085C7D" fill-opacity="0.9804"/>
<path d="M415.737 375.855C407.791 360.085 411.561 342.093 424.183 335.665C436.781 329.238 453.436 336.812 461.381 352.582" stroke="black" stroke-linecap="round" stroke-linejoin="round"/>
<path d="M378.731 125.803V88.7908C378.731 74.0481 366.873 62.1249 352.247 62.1249H222.854" stroke="#0484BB" stroke-linecap="round" stroke-linejoin="round"/>
<path d="M222.854 119.543H280.833C292.907 119.543 304.455 124.369 312.997 132.947L367.97 188.286" stroke="#0484BB" stroke-linecap="round" stroke-linejoin="round"/>
<path d="M222.854 138.682H268.736C280.81 138.682 292.358 143.508 300.9 152.086L367.111 218.727" stroke="#0484BB" stroke-linecap="round" stroke-linejoin="round"/>
<path d="M37.5508 269.287H274.969V375.023H37.5508V269.287Z" stroke="#51C3EB" stroke-width="2" stroke-miterlimit="10" stroke-linecap="round"/>
<path d="M210.488 269.287V376" stroke="#51C3EB" stroke-width="2" stroke-miterlimit="10"/>
<path d="M122.555 269.287V376" stroke="#51C3EB" stroke-width="2" stroke-miterlimit="10" stroke-linecap="round"/>
<path d="M274.969 299.629H37.5508" stroke="#51C3EB" stroke-width="2" stroke-miterlimit="10" stroke-linecap="round"/>
<path d="M265.196 282.006H225.123" stroke="#51C3EB" stroke-width="2" stroke-miterlimit="10" stroke-linecap="round"/>
<path d="M186.172 282.006H146.117" stroke="#51C3EB" stroke-width="2" stroke-miterlimit="10" stroke-linecap="round"/>
<path d="M265.196 314.21H225.123" stroke="#51C3EB" stroke-width="2" stroke-miterlimit="10" stroke-linecap="round"/>
<path d="M265.196 325.104H225.123" stroke="#51C3EB" stroke-width="2" stroke-miterlimit="10" stroke-linecap="round"/>
<path d="M265.197 335.962H242.408" stroke="#51C3EB" stroke-width="2" stroke-miterlimit="10" stroke-linecap="round"/>
<path d="M235.891 335.962H225.473" stroke="#51C3EB" stroke-width="2" stroke-miterlimit="10" stroke-linecap="round"/>
<path d="M265.197 344.681H242.408" stroke="#51C3EB" stroke-width="2" stroke-miterlimit="10" stroke-linecap="round"/>
<path d="M235.891 344.681H225.473" stroke="#51C3EB" stroke-width="2" stroke-miterlimit="10" stroke-linecap="round"/>
<path d="M185.822 314.653H142.344" stroke="#51C3EB" stroke-width="2" stroke-miterlimit="10" stroke-linecap="round"/>
<path d="M199.077 309.86L195.598 314.653L199.5 319.003" stroke="#51C3EB" stroke-width="2" stroke-miterlimit="10" stroke-linecap="round"/>
<path d="M170.746 333.363H142.344" stroke="#51C3EB" stroke-width="2" stroke-miterlimit="10" stroke-linecap="round"/>
<path d="M190.387 333.363H180.447" stroke="#51C3EB" stroke-width="2" stroke-miterlimit="10" stroke-linecap="round"/>
<path d="M134.283 342.488L137.762 347.28L133.859 351.631" stroke="#51C3EB" stroke-width="2" stroke-miterlimit="10" stroke-linecap="round"/>
<path d="M107.793 309.86L111.272 314.653L107.369 319.003" stroke="#51C3EB" stroke-width="2" stroke-miterlimit="10" stroke-linecap="round"/>
<path d="M54.8169 309.86L51.3379 314.653L55.2403 319.003" stroke="#51C3EB" stroke-width="2" stroke-miterlimit="10" stroke-linecap="round"/>
<path d="M192.468 347.28H175.957" stroke="#51C3EB" stroke-width="2" stroke-miterlimit="10" stroke-linecap="round"/>
<path d="M171.188 347.28H160.77" stroke="#51C3EB" stroke-width="2" stroke-miterlimit="10" stroke-linecap="round"/>
<path d="M154.254 347.28H144.277" stroke="#51C3EB" stroke-width="2" stroke-miterlimit="10" stroke-linecap="round"/>
<path d="M101.277 314.653H91.7051" stroke="#51C3EB" stroke-width="2" stroke-miterlimit="10" stroke-linecap="round"/>
<path d="M86.073 316.385H76.5195" stroke="#51C3EB" stroke-width="2" stroke-miterlimit="10" stroke-linecap="round"/>
<path d="M91.282 332.92H51.3379" stroke="#51C3EB" stroke-width="2" stroke-miterlimit="10" stroke-linecap="round"/>
<path d="M109.947 348.589H87.3613" stroke="#51C3EB" stroke-width="2" stroke-miterlimit="10" stroke-linecap="round"/>
<path d="M80.8638 348.589H69.5801" stroke="#51C3EB" stroke-width="2" stroke-miterlimit="10" stroke-linecap="round"/>
<path d="M63.4868 347.723H47.4355" stroke="#51C3EB" stroke-width="2" stroke-miterlimit="10" stroke-linecap="round"/>
<path d="M70.8874 318.137H61.334" stroke="#51C3EB" stroke-width="2" stroke-miterlimit="10" stroke-linecap="round"/>
<path d="M70.8874 312.901H61.334" stroke="#51C3EB" stroke-width="2" stroke-miterlimit="10" stroke-linecap="round"/>
<path d="M104.314 327.261L109.966 336.828" stroke="#51C3EB" stroke-width="2" stroke-miterlimit="10" stroke-linecap="round"/>
<path d="M96.9336 327.261L102.566 336.828" stroke="#51C3EB" stroke-width="2" stroke-miterlimit="10" stroke-linecap="round"/>
<path d="M99.5273 280.274L106.485 287.223" stroke="#51C3EB" stroke-width="2" stroke-miterlimit="10" stroke-linecap="round"/>
<path d="M87.8203 280.274L94.7599 287.223" stroke="#51C3EB" stroke-width="2" stroke-miterlimit="10" stroke-linecap="round"/>
<path d="M76.0957 280.274L83.0353 287.223" stroke="#51C3EB" stroke-width="2" stroke-miterlimit="10" stroke-linecap="round"/>
<path d="M64.3516 280.274L71.3096 287.223" stroke="#51C3EB" stroke-width="2" stroke-miterlimit="10" stroke-linecap="round"/>
<path d="M52.6445 280.274L59.5841 287.223" stroke="#51C3EB" stroke-width="2" stroke-miterlimit="10" stroke-linecap="round"/>
<path d="M914.293 346.203L899.953 335.809L887.88 346.203L869.794 335.809L858.485 347.684L838.848 335.809L827.538 349.165L815.465 335.809" stroke="black" stroke-width="2" stroke-miterlimit="10"/>
<path d="M912.79 363.287L813.914 360.324" stroke="black" stroke-width="2" stroke-miterlimit="10"/>
</g>
<defs>
<clipPath id="clip0_55_13458">
<rect width="933" height="410" fill="white"/>
</clipPath>
</defs>
</svg>
