<svg width="204" height="182" viewBox="0 0 204 182" fill="none" xmlns="http://www.w3.org/2000/svg">
<path d="M164.257 116.345C141.439 89.8974 104.162 76.7883 69.8237 83.1421C60.1729 84.9265 50.663 88.1958 42.6196 93.8168C34.5698 99.4377 28.0569 107.57 25.4825 117.046C21.9924 129.875 26.4624 144.526 36.5102 153.225C43.6699 159.42 52.9813 162.498 62.1774 164.754C80.3263 169.215 99.1156 171.076 117.79 170.266C128.804 169.788 139.979 168.329 149.989 163.715C159.236 159.458 167.894 151.664 172.55 142.487C177.327 133.061 170.379 123.432 164.263 116.339L164.257 116.345Z" fill="#91E2EB"/>
<path d="M31.3426 25.2718C26.5238 39.0053 36.4849 53.263 42.0679 58.6752C48.9859 61.1026 63.8468 66.317 72.3831 47.7296C80.9194 29.1423 71.6415 12.9373 63.2131 8.25331C54.7848 3.56935 37.3661 8.10489 31.3426 25.2718Z" fill="#91E2EB"/>
<path d="M105.18 179.38L116.643 97.1691C116.662 96.9014 117.059 96.8823 117.098 97.1499L129.592 179.373" stroke="#010101" stroke-width="2" stroke-linecap="round" stroke-linejoin="round"/>
<path d="M43.657 178.762L56.6379 125.127L76.3878 178.762" stroke="#010101" stroke-width="2" stroke-linecap="round" stroke-linejoin="round"/>
<path d="M14.8646 102.446C14.7365 102.095 14.6021 101.751 14.4868 101.394C14.6021 101.751 14.7301 102.102 14.8646 102.446Z" fill="#0484BB"/>
<path d="M18.9374 73.602C20.4424 77.139 22.1202 80.5995 23.7724 84.0664C25.5207 87.7435 27.301 91.357 29.5168 94.7856C34.07 101.847 39.8272 108.105 46.2184 113.541C53.1027 119.404 61.018 123.935 69.1191 127.88C69.1831 127.912 69.2535 127.944 69.3176 127.976C67.6333 128.039 65.9555 128.052 64.2776 127.995C60.922 127.887 57.5855 127.472 54.281 126.873C57.2204 127.638 60.1983 128.218 63.317 128.314C68.4274 128.479 73.5826 128.11 78.6034 127.122C83.5793 126.147 88.6 124.566 92.8458 121.718C94.767 120.43 96.5281 118.85 97.8794 116.957C98.603 115.937 99.1922 114.848 99.6469 113.694C99.6148 113.573 99.5956 113.446 99.5636 113.318C97.1109 104.358 89.2852 103.191 82.2856 99.2148C74.8955 95.0214 68.5747 88.9353 64.1624 81.6701C60.0702 74.9276 57.6623 67.3757 54.3899 60.238C51.3352 53.5783 47.3711 50.1433 40.378 47.7025C35.1907 45.8862 29.4592 44.6435 24.2527 46.396C19.6098 47.9574 16.1773 51.6856 13.9743 56.1402C14.3394 62.169 16.6384 68.1723 18.9502 73.5957L18.9374 73.602Z" fill="#0484BB"/>
<path d="M92.596 88.9288C92.6345 85.4237 92.532 82.2373 93.4414 78.7449C94.6453 74.1245 98.2059 71.6009 102.65 70.1733C103.624 69.861 104.7 69.638 105.66 69.9949C106.768 70.4091 107.479 71.4989 107.914 72.6078C109.31 76.1766 108.587 80.1788 107.838 83.9388C106.166 92.3575 104.495 100.776 102.823 109.188C102.727 109.673 102.586 110.221 102.151 110.45C101.818 110.629 101.408 110.565 101.036 110.488C97.2838 109.743 93.6207 108.545 90.1497 106.932C91.6098 107.608 92.5832 89.7063 92.596 88.9224V88.9288Z" fill="white"/>
<path d="M101.703 138.644C104.482 137.86 105.872 137.611 108.555 136.554C108.555 148.783 110.277 169.4 110.22 172.917C106.768 173.306 104.072 174.581 100.582 174.619C97.8473 170.381 96.7331 158.387 95.1833 153.748C94.8247 152.677 93.2685 147.324 91.5266 141.231C94.9399 140.467 98.3276 139.6 101.696 138.65L101.703 138.644Z" fill="white"/>
<path d="M95.3243 114.115C99.3011 115.032 103.38 115.453 107.415 116.046C109.541 116.358 113.883 117.569 115.881 116.084C118.417 114.204 114.267 113.108 112.384 112.062C109.15 110.253 105.872 108.532 102.612 106.773C99.6021 105.148 95.7341 101.681 92.6666 105.033C90.6942 107.187 90.4636 110.629 90.2395 113.388C91.9622 113.445 93.6336 113.726 95.3243 114.115Z" fill="#010101"/>
<path d="M31.009 99.7755C32.8469 93.9698 41.1657 92.6379 46.3081 93.0521C56.9964 93.9061 67.7166 94.1737 78.3472 95.0405C87.0054 95.7478 96.4321 97.6215 102.388 104.53C107.255 110.176 108.036 117.945 109.419 125.019C111.968 138.115 112.685 150.396 112.384 163.67C112.378 163.983 112.365 164.314 112.179 164.569C111.936 164.894 111.488 164.977 111.084 165.028C106 165.71 100.921 166.392 95.8365 167.067C95.5355 167.105 95.2089 167.144 94.9464 166.984C94.6582 166.812 94.5429 166.462 94.4533 166.143C93.6592 163.409 83.1758 121.609 83.9123 121.494C75.1324 122.89 68.1905 122.482 59.3338 121.775C53.0707 121.271 46.7052 120.188 41.2426 117.091C35.9657 114.089 28.8829 106.499 31.009 99.7819V99.7755Z" fill="#1C1C1B"/>
<path d="M28.4603 97.5003C29.0879 98.4435 29.043 99.3102 29.3568 99.8201C30.9642 99.8009 32.578 99.8201 34.1854 99.8456C38.3993 99.9093 42.6515 99.973 46.7949 99.0999C50.4003 98.3416 53.9866 97.2454 57.4575 96.0218C62.8177 94.1354 67.8512 92.8099 67.4541 86.2394C66.961 77.7698 65.9364 67.1015 68.3251 58.8422C69.2921 55.5092 69.8108 53.0237 71.2581 49.8691C71.6552 49.0024 72.0522 48.1102 72.1098 47.1543C72.1483 46.4724 72.0138 45.7968 71.8537 45.1341C69.1832 34.2937 60.128 34.1663 50.5156 33.3123C49.0299 33.1785 47.5185 33.051 46.0456 33.2995C44.2269 33.6118 42.1072 34.1471 40.5318 35.0967C32.1106 40.1504 31.5406 48.6455 29.0046 57.4147C27.7366 61.7992 25.7514 65.948 24.4834 70.3262C21.7681 79.6817 23.0297 89.343 28.4603 97.4876V97.5003Z" fill="#FF9C40"/>
<path d="M112.589 172.79C113.62 173.37 115.17 173.714 116.278 174.045C119.141 174.906 122.112 175.397 124.936 176.391C126.416 176.913 127.831 178.768 126.224 180.081C125.519 180.654 124.571 180.794 123.675 180.903C116.509 181.731 109.266 181.33 102.061 180.922C101.671 180.903 101.242 180.864 100.96 180.584C100.8 180.425 100.716 180.214 100.633 180.004C99.7559 177.71 99.1539 175.142 98.6031 172.796C99.5702 172.561 100.588 172.962 101.562 173.039C102.823 173.134 104.194 173.236 105.347 172.599C106.896 171.745 108.324 170.661 109.56 169.4C109.676 169.285 109.797 169.157 109.945 169.1C110.444 168.896 110.937 169.438 111.11 169.954C111.443 170.955 111.456 172.076 112.404 172.675C112.468 172.714 112.525 172.752 112.596 172.79H112.589Z" fill="#010101"/>
<path d="M92.2887 86.6089C92.2055 85.4172 92.2887 84.3147 93.403 83.8941C94.9336 83.3141 95.4523 84.1363 96.4385 82.543C98.3277 79.4776 99.6661 75.6539 100.947 72.2954C102.49 68.2486 105.391 62.9654 105.238 58.6191C105.231 58.396 105.212 58.1539 105.077 57.9691C104.924 57.7587 104.655 57.6695 104.399 57.5994C102.132 57.0067 99.7558 57.0705 97.4183 57.217C82.0167 58.2048 73.4226 74.9146 66.1349 86.354C65.0334 88.0811 58.6358 96.385 56.9579 96.2512C62.8432 96.7164 67.3772 99.6989 72.8206 101.343C76.1635 102.35 79.8394 105.333 82.9645 105.76C83.9764 105.9 88.1005 98.316 88.7025 97.3218C90.2779 94.7217 92.5065 91.7519 92.4552 88.5973C92.4488 87.9791 92.34 87.2781 92.2951 86.6026L92.2887 86.6089Z" fill="#1C1C1B"/>
<path d="M110.649 88.0559C110.297 90.6496 109.9 93.1415 109.253 95.6715C109.195 95.8946 109.138 96.124 108.984 96.2897C108.741 96.5573 108.337 96.5956 107.972 96.5765C107.21 96.5318 106.467 96.3088 105.718 96.1686C101.043 95.27 93.2686 98.4182 89.6696 94.0592C88.9459 93.1861 88.7154 92.0071 88.5617 90.8854C87.4602 82.7536 90.0602 74.8066 89.9513 66.6365C89.8937 62.271 91.5139 59.639 93.7297 56.0766C95.8558 52.6607 98.8465 51.5008 102.682 52.8009C109.144 54.9932 112.846 61.844 112.538 68.3572C112.231 74.9276 111.526 81.5172 110.643 88.0559H110.649Z" fill="#1C1C1B"/>
<path d="M50.4899 24.8873C50.4259 25.6776 52.0781 27.4747 52.5776 28.0419C53.3781 28.9405 54.3067 29.6415 55.4338 30.0813C58.3604 31.2348 61.4279 31.3431 63.7206 28.9278C64.8092 27.7806 65.5521 26.3531 66.1733 24.8937C67.1211 22.6759 68.4339 16.5643 67.8383 14.2318C67.294 12.116 65.027 13.9578 62.9585 13.2504C61.159 12.6322 59.7885 12.0778 57.8673 12.4155C56.1575 12.7151 54.5116 13.5627 53.4358 14.952C53.1476 15.328 52.885 15.704 52.6417 16.0863C52.0717 17.2972 51.5466 18.5272 51.1687 19.8081C50.855 20.8788 50.7461 21.9622 50.5732 23.0456C50.5604 23.6637 50.5348 24.2755 50.4835 24.8873H50.4899Z" fill="white"/>
<path d="M49.2732 38.9715C50.9766 40.1632 53.0772 40.9535 55.1456 41.1192C55.5427 41.151 60.5954 40.5838 59.8718 39.6343C57.9762 37.1297 59.0136 34.8992 60.1984 32.1843C60.3777 31.7637 61.9723 29.1954 61.8058 28.9087C61.761 28.8258 61.7033 28.7493 61.6265 28.6792C61.2486 28.316 60.6531 28.3224 60.1279 28.316C58.1555 28.2905 56.3112 27.6723 54.7102 26.5252C53.9481 25.9835 53.2629 25.3398 52.6033 24.6707C52.2254 24.2883 51.5402 22.9564 50.9702 22.9117C50.919 22.9117 50.8742 22.9372 50.8294 22.9564C50.1569 25.6521 49.8303 28.0165 48.4791 30.5975C47.4352 32.5922 44.8544 33.5864 44.118 33.7202C45.2771 35.7723 47.3264 37.6141 49.2732 38.9779V38.9715Z" fill="white"/>
<path d="M54.9407 20.8341C54.9919 20.4198 55.0431 19.91 55.4274 19.7443C55.818 19.5723 56.2343 19.8845 56.6505 19.9801C57.9761 20.2796 59.2057 18.833 59.9614 17.9217C60.1151 17.7369 60.2688 17.5648 60.4225 17.4055C61.2934 16.5069 62.1836 16.0735 63.6629 16.1946C65.123 16.3157 66.5831 16.8192 68.0176 16.5387C69.6122 16.2265 70.9378 14.9009 71.3092 13.3204C71.9112 10.7649 69.8171 7.35537 66.9225 7.83971C66.1412 7.96717 65.2959 8.36229 64.6107 7.96717C64.2264 7.74411 64.0087 7.32987 63.7397 6.97299C62.7215 5.60281 60.7235 5.05474 59.1481 5.71753C58.7318 5.89597 58.3476 6.14451 57.9185 6.27197C57.0924 6.52689 56.2086 6.32933 55.3505 6.28472C54.3323 6.22736 53.2692 6.4058 52.4303 6.98574C51.5914 7.56567 51.0278 8.61083 51.2135 9.61138C51.2648 9.90453 51.38 10.1977 51.3416 10.4972C51.2071 11.5424 49.5421 11.587 49.049 12.5174C48.5751 13.4096 49.4396 14.5058 49.1963 15.4872C49.049 16.0735 48.5239 16.526 48.4598 17.1251C48.383 17.8643 49.0682 18.3869 49.3628 19.0051C49.6894 19.687 49.9904 20.5855 50.0608 21.3312C50.1953 22.8734 49.2603 24.5368 51.5465 24.3456C53.4229 24.1862 54.7229 22.6886 54.9535 20.8405L54.9407 20.8341Z" fill="#1D1D1B"/>
<path d="M83.7905 60.6839C84.6935 61.7673 85.43 62.8762 88.0236 62.7042C91.3152 62.4875 94.5172 60.8114 96.4 58.071C96.9251 57.3063 97.3542 56.4587 97.4759 55.541C98.2251 50.0284 92.0197 46.4532 88.0556 44.2227C83.5152 41.6671 78.6033 39.87 73.653 38.2831C69.2663 36.8747 64.6747 34.4339 59.9485 34.8163C59.8268 34.829 59.6988 34.8481 59.5771 34.88C59.6283 35.4918 59.6603 36.1036 59.6667 36.7154C61.8249 40.1121 63.1697 44.1462 64.0407 48.0656C64.6042 50.602 65.8658 53.5208 65.6096 56.1337C70.8353 56.8538 76.0353 57.797 81.1841 58.9569C82.5226 59.2564 83.195 59.9638 83.7969 60.6839H83.7905Z" fill="#FF9C40"/>
<path d="M91.674 49.0088C89.6695 49.2319 87.9917 50.7359 87.0183 52.5012C86.0449 54.2665 85.6606 56.2867 85.2892 58.2687C84.2326 63.9342 83.8867 70.4983 81.9848 75.928C80.8064 79.2993 76.2212 83.9515 78.4882 87.8008C79.1542 88.9288 80.5567 89.5661 81.8439 89.3239C84.1237 88.8969 85.1804 86.3414 86.1538 84.2383C87.4025 81.5235 89.2533 79.4331 90.9119 77.0497C92.9804 74.0671 94.4789 70.4091 95.9775 67.1143C97.8987 62.8891 99.6021 58.0775 98.0332 53.712C97.0726 51.0354 94.5046 48.7029 91.674 49.0152V49.0088Z" fill="white"/>
<mask id="mask0_17_1173" style="mask-type:luminance" maskUnits="userSpaceOnUse" x="38" y="22" width="52" height="58">
<path d="M89.8035 62.5627C89.8389 62.3984 89.8507 62.2341 89.8743 62.0698C88.8012 58.1973 83.2472 58.256 80.134 56.6248C79.5091 56.2963 78.9666 55.8855 78.5067 55.4161C78.4478 55.3575 78.377 55.2988 78.3299 55.2284C77.3511 54.1723 76.7497 52.8227 76.5257 51.2855C75.5823 45.0425 78.8015 39.4215 81.5609 33.9413C81.4783 33.7888 81.3722 33.648 81.2307 33.5189C80.535 32.85 79.4383 32.8617 78.4714 32.85C74.8394 32.803 71.4433 31.6648 68.4953 29.5525C67.092 28.555 65.8302 27.3698 64.6157 26.1376C63.9199 25.4335 62.6582 22.9809 61.6087 22.8988C61.5143 22.8988 61.4318 22.9457 61.3493 22.9809C60.1111 27.9448 60.005 32.5918 57.0216 37.0511C55.8895 38.7292 54.557 40.2312 52.9651 41.3343C52.1278 42.1323 51.1137 42.719 49.7223 42.9537C49.3685 43.0124 49.0029 43.0476 48.6374 43.0476C48.4959 43.0711 48.3544 43.1063 48.2011 43.118C48.0242 43.1297 47.8827 43.0945 47.753 43.0241C45.5007 42.9302 43.1777 42.3904 41.456 43.7165C40.6424 44.3384 40.1353 45.2772 39.7344 46.2277C36.7981 53.1983 38.8618 62.2928 42.5645 68.5709C45.3828 73.3588 50.3472 77.7711 55.7362 79.2732C60.8658 80.7048 66.2312 79.4961 71.1131 77.7242C73.2593 76.9496 75.2875 76.1752 77.245 75.2716C83.1292 72.5725 88.1998 69.5567 89.7446 62.8795C89.7682 62.7622 89.7918 62.6566 89.8153 62.5392L89.8035 62.5627Z" fill="white"/>
</mask>
<g mask="url(#mask0_17_1173)">
<path d="M55.6963 29.7752C55.7732 29.8135 55.8628 29.8517 55.9589 29.8899C57.6239 30.5718 59.4491 30.9925 61.1974 30.7375C61.6328 30.9224 61.4919 31.2856 61.2678 31.9293C60.9604 32.8406 60.6786 33.7583 60.4353 34.6824C58.8215 33.0318 57.2013 31.3812 55.5875 29.7242C55.6259 29.7434 55.6579 29.7561 55.6963 29.7689V29.7752Z" fill="#0D1432"/>
</g>
<path d="M30.3815 41.2848C27.0707 45.0703 25.713 50.175 24.5859 54.9547C23.1322 61.1301 21.6785 67.3118 20.2248 73.4872C19.8854 74.9402 19.5396 76.3996 19.5012 77.8909C19.4307 80.2807 20.1223 83.3206 20.6795 85.6212C21.3967 88.5782 23.1642 88.3934 25.7963 88.1321C29.9589 87.7179 35.6136 86.4624 38.4249 83.0657C39.757 81.4533 40.186 79.2993 40.5767 77.2344C41.1082 74.4049 41.6333 71.5753 42.1649 68.7393C44.323 57.1725 46.4876 45.2424 44.0412 33.7329C38.2136 34.5996 33.7885 37.391 30.3879 41.2784L30.3815 41.2848Z" fill="#FF9C40"/>
<path d="M44.1499 52.7689C39.3405 54.0244 39.7696 60.1806 39.3341 63.9725C38.6937 69.5807 37.6243 75.1442 36.1385 80.5867" stroke="#1D1D1B" stroke-linecap="round" stroke-linejoin="round"/>
<path d="M95.2345 66.3113C93.3966 74.2456 89.1827 86.3031 89.1059 94.4477" stroke="#0D1432" stroke-width="0.5" stroke-linecap="round" stroke-linejoin="round"/>
<mask id="path-25-inside-1_17_1173" fill="white">
<path d="M60.89 25.4546C61.1782 26.2002 61.8122 26.7483 62.5038 26.8439C63.1955 26.9395 63.9191 26.589 64.3482 25.9389"/>
</mask>
<path d="M60.89 25.4546C61.1782 26.2002 61.8122 26.7483 62.5038 26.8439C63.1955 26.9395 63.9191 26.589 64.3482 25.9389" fill="white"/>
<path d="M60.89 25.4546L59.9573 25.8151C60.3524 26.8375 61.2536 27.6806 62.3669 27.8345L62.5038 26.8439L62.6407 25.8533C62.3708 25.816 62.004 25.5629 61.8228 25.0941L60.89 25.4546ZM62.5038 26.8439L62.3669 27.8345C63.4853 27.989 64.5679 27.4213 65.1828 26.4898L64.3482 25.9389L63.5136 25.3881C63.2703 25.7567 62.9056 25.8899 62.6407 25.8533L62.5038 26.8439Z" fill="black" mask="url(#path-25-inside-1_17_1173)"/>
<path d="M16.3503 92.7207C29.6705 89.6935 40.9544 87.4885 52.9426 93.1285C60.7491 96.8057 66.0131 103.644 67.4925 110.928C68.9718 118.212 66.5959 123.311 60.1791 126.516" stroke="#08668B" stroke-width="4" stroke-linecap="round" stroke-linejoin="round"/>
<path d="M86.2113 122.463C85.8463 119.704 85.763 116.281 85.4044 113.522" stroke="#0D1432" stroke-width="0.5" stroke-linecap="round" stroke-linejoin="round"/>
<path d="M89.2916 97.118C80.7167 95.8115 75.2029 96.9586 64.1624 96.9586" stroke="#0D1432" stroke-width="0.5" stroke-linecap="round" stroke-linejoin="round"/>
<path d="M52.3535 20.5411C52.3535 21.9431 53.4934 23.0839 54.8959 23.0839C56.2984 23.0839 57.4383 21.9431 57.4383 20.5411C57.4383 19.139 56.2984 17.9983 54.8959 17.9983C53.4934 17.9983 52.3535 19.1327 52.3535 20.5411Z" fill="white"/>
<path d="M69.9067 128.224C69.8427 128.192 69.1767 127.912 69.1126 127.88C61.0116 123.935 53.0963 119.404 46.212 113.541C39.8208 108.105 34.0636 101.847 29.5104 94.7854C27.301 91.3567 25.5207 87.7433 23.766 84.0661C22.1138 80.5929 20.436 77.1388 18.931 73.6018C16.6256 68.1784 14.3266 62.1751 13.9551 56.1464C12.7256 58.6382 11.8738 61.353 11.4255 64.0552C9.47233 75.7495 10.8108 90.0822 14.4802 101.388C14.5955 101.745 14.7364 102.089 14.8581 102.439C17.3044 109.169 22.2419 115.179 31.4892 120.424C47.8834 129.722 60.8835 128.326 64.2392 128.441C65.9171 128.498 68.2225 128.294 69.9067 128.224Z" fill="#08668B"/>
<path d="M37.2848 75.4884C39.8656 76.0492 42.3952 76.8777 44.9248 77.6424C48.9465 78.8596 53.0194 79.5607 57.0988 80.6504C58.2579 80.9627 59.4362 81.2622 60.6402 81.275C62.7023 81.2941 64.7003 80.4592 66.7624 80.4146C69.5225 80.3509 72.2186 81.8931 73.7171 84.1874C76.2403 88.0494 72.0585 87.017 69.42 86.9787C67.3643 86.9469 65.3087 86.9214 63.2594 86.8895C55.184 86.7748 47.544 87.1827 39.443 87.8646C35.0434 88.2342 27.3651 89.2666 23.4522 86.6537C21.5503 85.3855 18.4123 79.2038 20.1606 77.3556C20.4872 77.0115 20.9419 76.8139 21.3838 76.6355C25.3478 75.055 29.6385 74.4814 33.8907 74.9339C35.037 75.055 36.1641 75.2526 37.2848 75.4947V75.4884Z" fill="white"/>
<path d="M13.2572 74.4687C13.3917 76.1192 13.6607 77.7635 13.9233 79.3631C14.2563 81.4024 14.5957 83.4481 15.0952 85.4492C15.5371 87.2081 16.1262 88.9798 17.2725 90.3818C19.1553 92.6825 22.5814 93.581 25.3864 92.6506C27.5958 91.9241 27.2884 91.1338 26.347 89.3048C24.3938 85.5066 22.3637 81.5299 20.6859 77.5786C18.9888 73.5764 17.4198 69.7846 16.0302 65.6613C15.7356 64.7946 15.441 63.9215 15.1912 63.042C14.8134 61.7292 14.5252 60.3909 14.3267 59.0334C14.4996 60.2379 14.141 61.7611 14.0193 62.9719C13.8848 64.3485 13.7183 65.725 13.5262 67.0952C13.1804 69.5424 13.0523 71.9896 13.2572 74.4687Z" fill="#08668B"/>
<path d="M1.00006 179.38L13.0139 97.1691C13.0396 96.9014 13.4494 96.8823 13.4878 97.1499L26.584 179.373" stroke="#010101" stroke-width="2" stroke-linecap="round" stroke-linejoin="round"/>
<path d="M124.655 94.5815H5.63657V98.2332H124.655V94.5815Z" fill="#51C3EB"/>
<path d="M56.087 20.1715C55.9333 19.2538 54.6846 18.744 53.9353 19.292" stroke="#1C1C1B" stroke-width="0.5" stroke-linecap="round" stroke-linejoin="round"/>
<path d="M95.6254 92.2172H42.0496C41.512 92.2172 41.0762 92.6509 41.0762 93.1858V93.7722C41.0762 94.3071 41.512 94.7408 42.0496 94.7408H95.6254C96.163 94.7408 96.5988 94.3071 96.5988 93.7722V93.1858C96.5988 92.6509 96.163 92.2172 95.6254 92.2172Z" fill="#010101"/>
<path d="M96.7715 94.741H49.3243L53.4549 67.6242C53.5958 66.681 54.4027 65.98 55.3377 65.98H99.0193C100.146 65.98 100.998 66.9933 100.825 68.1277L96.7715 94.7346V94.741Z" fill="#010101"/>
<path d="M76.5349 79.4395L78.5906 81.1538" stroke="#FF9C40" stroke-linecap="round" stroke-linejoin="round"/>
<path d="M73.8326 79.4395L75.8883 81.1538" stroke="#FF9C40" stroke-linecap="round" stroke-linejoin="round"/>
<path d="M82.9325 56.2993C82.8044 58.071 83.7522 60.3716 84.5527 61.4932" stroke="#1D1D1B" stroke-linecap="round" stroke-linejoin="round"/>
<path d="M191.243 8.78279C190.616 8.96761 190.02 9.2034 189.45 9.49656C189.488 9.54117 189.533 9.57941 189.565 9.62402C190.116 10.3505 189.969 11.3829 189.245 11.931C188.521 12.4791 187.484 12.3325 186.94 11.606C186.901 11.555 186.876 11.4977 186.844 11.4467C186.395 11.9119 185.992 12.4217 185.646 12.9634C185.704 12.9825 185.761 12.9953 185.819 13.0208C186.658 13.3777 187.049 14.34 186.696 15.1812C186.344 16.0161 185.377 16.4112 184.538 16.0543C184.474 16.0288 184.416 15.9906 184.352 15.9523C184.199 16.5769 184.103 17.2205 184.071 17.8833C184.135 17.8642 184.199 17.8451 184.269 17.8387C185.172 17.724 185.992 18.3677 186.107 19.2726C186.216 20.1776 185.576 20.9997 184.673 21.108C184.596 21.1208 184.519 21.1144 184.436 21.108C184.615 21.7517 184.865 22.3635 185.159 22.937C185.217 22.8797 185.268 22.8287 185.332 22.7777C186.056 22.2297 187.093 22.3762 187.638 23.1027C188.188 23.8293 188.041 24.8617 187.318 25.4097C187.247 25.4607 187.177 25.499 187.1 25.5436C187.574 26.0024 188.099 26.4167 188.656 26.7735C188.675 26.6907 188.694 26.6142 188.733 26.5314C189.085 25.6965 190.052 25.3014 190.891 25.6583C191.73 26.0152 192.12 26.9775 191.768 27.8187C191.73 27.9015 191.685 27.978 191.64 28.0545C192.281 28.2138 192.934 28.3094 193.613 28.3349C193.587 28.2521 193.568 28.1692 193.555 28.08C193.446 27.175 194.087 26.3529 194.989 26.2446C195.892 26.1299 196.712 26.7735 196.827 27.6785C196.84 27.7677 196.84 27.8633 196.827 27.9525C197.474 27.7677 198.095 27.5128 198.672 27.2069C198.608 27.1495 198.55 27.0858 198.492 27.0157C197.942 26.2892 198.089 25.2568 198.813 24.7087C199.536 24.1606 200.574 24.3072 201.118 25.0337C201.169 25.1038 201.214 25.1803 201.253 25.2568C201.707 24.7788 202.117 24.2562 202.469 23.6954C202.392 23.6763 202.316 23.6572 202.239 23.6253C201.4 23.2684 201.009 22.3061 201.361 21.4649C201.714 20.63 202.681 20.2349 203.52 20.5918C203.596 20.6237 203.667 20.6683 203.731 20.7065C203.885 20.0756 203.974 19.4256 204 18.7564C203.929 18.7755 203.859 18.7946 203.782 18.8074C202.879 18.9221 202.059 18.2784 201.944 17.3735C201.835 16.4685 202.476 15.6464 203.379 15.5381C203.449 15.5317 203.526 15.5381 203.596 15.5381C203.411 14.9072 203.161 14.3017 202.866 13.7282C202.822 13.7728 202.777 13.8238 202.719 13.862C201.995 14.4101 200.958 14.2635 200.414 13.537C199.863 12.8105 200.01 11.7781 200.734 11.23C200.785 11.1918 200.843 11.1599 200.9 11.128C200.433 10.6819 199.921 10.2868 199.376 9.93629C199.357 9.99365 199.344 10.051 199.325 10.1084C198.973 10.9432 198.006 11.3383 197.167 10.9814C196.328 10.6246 195.937 9.66225 196.289 8.82103C196.315 8.76367 196.347 8.71269 196.379 8.66171C195.758 8.51513 195.124 8.41953 194.471 8.39404C194.484 8.4514 194.503 8.50238 194.509 8.55974C194.618 9.46469 193.978 10.2868 193.075 10.3951C192.172 10.5099 191.352 9.86619 191.237 8.96123C191.23 8.8975 191.237 8.84015 191.237 8.78279H191.243ZM193.209 11.7016C196.885 11.2491 200.241 13.862 200.695 17.5392C201.15 21.2164 198.537 24.5685 194.861 25.0274C191.186 25.4798 187.83 22.8669 187.375 19.1898C186.92 15.5126 189.533 12.1604 193.209 11.7016Z" fill="#FF9C40"/>
<path d="M193.139 26.4103C197.577 26.9074 201.586 23.7018 202.085 19.2599C202.585 14.8243 199.376 10.8094 194.938 10.3123C190.5 9.81521 186.491 13.0208 185.992 17.4563C185.492 21.8919 188.701 25.9068 193.139 26.4039V26.4103ZM188.931 17.8451C189.258 15.1812 191.82 13.2438 194.637 13.5306C197.455 13.8174 199.479 16.2136 199.146 18.8775C198.819 21.5414 196.258 23.4788 193.44 23.192C190.622 22.9052 188.598 20.509 188.931 17.8451Z" fill="#FF9C40"/>
<path d="M103.544 84.1764H141.016V45.3466" stroke="#51C3EB"/>
<path d="M102.458 87.4349H167.084V46.7042" stroke="#51C3EB"/>
<path d="M100.014 91.2365H194.237V32.3129" stroke="#51C3EB"/>
<ellipse cx="141.287" cy="45.3467" rx="2.44384" ry="2.44384" fill="#51C3EB"/>
<ellipse cx="166.812" cy="46.4328" rx="2.44384" ry="2.44384" fill="#51C3EB"/>
<ellipse cx="166.812" cy="87.1634" rx="2.44384" ry="2.44384" fill="#51C3EB"/>
<ellipse cx="193.966" cy="90.4219" rx="2.44384" ry="2.44384" fill="#51C3EB"/>
<ellipse cx="193.966" cy="33.399" rx="2.44384" ry="2.44384" fill="#51C3EB"/>
<ellipse cx="140.745" cy="83.9049" rx="2.44384" ry="2.44384" fill="#51C3EB"/>
<path d="M137.264 23.8675C136.752 24.0204 136.265 24.218 135.804 24.4665C135.836 24.5048 135.868 24.5366 135.9 24.5749C136.348 25.1867 136.233 26.0598 135.644 26.5186C135.054 26.9775 134.209 26.8564 133.761 26.2382C133.729 26.1936 133.71 26.149 133.678 26.1044C133.313 26.4995 132.986 26.9265 132.704 27.3853C132.749 27.3981 132.8 27.4108 132.845 27.4299C133.53 27.7295 133.851 28.5452 133.562 29.2526C133.274 29.96 132.486 30.285 131.801 29.9855C131.75 29.96 131.699 29.9281 131.654 29.9026C131.526 30.4316 131.449 30.9733 131.43 31.5277C131.481 31.515 131.539 31.4959 131.596 31.4895C132.333 31.4003 133.005 31.942 133.095 32.7003C133.185 33.4587 132.666 34.1534 131.929 34.249C131.865 34.2553 131.801 34.249 131.737 34.249C131.891 34.7907 132.089 35.3069 132.333 35.7976C132.378 35.753 132.422 35.702 132.474 35.6637C133.063 35.2049 133.908 35.326 134.356 35.9442C134.805 36.556 134.689 37.429 134.1 37.8879C134.043 37.9325 133.985 37.9644 133.921 37.9962C134.312 38.385 134.734 38.7355 135.189 39.035C135.208 38.9649 135.221 38.9012 135.247 38.8311C135.535 38.1237 136.322 37.7987 137.008 38.0982C137.693 38.3977 138.013 39.2135 137.725 39.9209C137.693 39.991 137.661 40.0547 137.622 40.1184C138.141 40.2522 138.679 40.3351 139.23 40.3606C139.211 40.2905 139.191 40.2204 139.185 40.1439C139.089 39.3792 139.614 38.6909 140.351 38.5953C141.087 38.5061 141.759 39.0478 141.849 39.8061C141.855 39.8826 141.855 39.9591 141.849 40.0356C142.374 39.8762 142.88 39.6723 143.354 39.411C143.303 39.36 143.252 39.3091 143.207 39.2517C142.758 38.6399 142.874 37.7668 143.463 37.308C144.052 36.8491 144.897 36.9702 145.346 37.5884C145.39 37.6457 145.423 37.7158 145.455 37.7796C145.826 37.3781 146.159 36.9383 146.447 36.4667C146.383 36.4476 146.319 36.4349 146.255 36.403C145.57 36.1035 145.25 35.2877 145.538 34.5804C145.826 33.873 146.614 33.5479 147.299 33.8475C147.363 33.873 147.414 33.9112 147.472 33.9494C147.593 33.4141 147.67 32.866 147.683 32.3052C147.625 32.318 147.568 32.3371 147.504 32.3435C146.767 32.4327 146.095 31.891 146.005 31.1326C145.909 30.3679 146.434 29.6796 147.171 29.584C147.228 29.5776 147.292 29.584 147.35 29.584C147.196 29.0487 146.991 28.5388 146.748 28.0545C146.71 28.0927 146.671 28.131 146.626 28.1692C146.037 28.628 145.192 28.507 144.744 27.8888C144.295 27.277 144.411 26.4039 145 25.945C145.045 25.9132 145.09 25.8877 145.134 25.8622C144.75 25.4862 144.334 25.1484 143.886 24.8553C143.873 24.9063 143.86 24.9509 143.841 25.0019C143.553 25.7092 142.765 26.0343 142.08 25.7347C141.394 25.4352 141.074 24.6195 141.362 23.9121C141.382 23.8611 141.407 23.8229 141.433 23.7783C140.927 23.6508 140.408 23.5743 139.877 23.5488C139.889 23.5934 139.902 23.638 139.909 23.689C140.005 24.4538 139.48 25.1421 138.743 25.2377C138.007 25.3269 137.334 24.7852 137.245 24.0268C137.245 23.9758 137.245 23.9248 137.245 23.8738L137.264 23.8675ZM138.871 26.3338C141.868 25.9578 144.609 28.1692 144.987 31.2792C145.365 34.3828 143.245 37.206 140.248 37.582C137.251 37.958 134.51 35.7466 134.132 32.6366C133.754 29.533 135.874 26.7098 138.871 26.3338Z" fill="#FF9C40"/>
<path d="M138.942 37.9263C142.125 38.3023 144.994 35.938 145.339 32.6432C145.685 29.3548 143.38 26.3659 140.197 25.9899C137.014 25.6139 134.145 27.9782 133.799 31.273C133.454 34.5614 135.759 37.5503 138.942 37.9263ZM135.477 31.5216C135.733 29.3165 137.783 27.7169 140.037 27.9591C142.291 28.2013 143.918 30.196 143.661 32.401C143.405 34.606 141.356 36.2056 139.102 35.9635C136.848 35.7213 135.221 33.7266 135.477 31.5216Z" fill="#FF9C40"/>
<path d="M160.952 7.54013C159.851 7.85878 158.794 8.27939 157.801 8.7956C157.872 8.87207 157.949 8.9358 158.006 9.01865C158.973 10.2932 158.717 12.1159 157.443 13.0782C156.168 14.0405 154.35 13.792 153.383 12.511C153.312 12.4218 153.267 12.3198 153.21 12.2306C152.422 13.0527 151.718 13.9449 151.103 14.9009C151.205 14.9327 151.308 14.9518 151.41 14.9964C152.883 15.621 153.575 17.3226 152.947 18.7947C152.326 20.2669 150.623 20.9551 149.15 20.337C149.034 20.286 148.932 20.2222 148.829 20.1585C148.554 21.261 148.388 22.3954 148.33 23.5553C148.445 23.5234 148.56 23.4915 148.682 23.4724C150.27 23.2749 151.718 24.4029 151.916 25.9961C152.115 27.583 150.988 29.0296 149.399 29.2272C149.258 29.2463 149.124 29.2399 148.99 29.2335C149.31 30.3616 149.739 31.4386 150.264 32.4519C150.36 32.3563 150.456 32.2543 150.565 32.1715C151.839 31.2092 153.658 31.4577 154.625 32.7387C155.592 34.0132 155.336 35.8359 154.061 36.7982C153.94 36.8874 153.812 36.9575 153.677 37.0276C154.516 37.837 155.432 38.5635 156.412 39.188C156.45 39.0478 156.482 38.9076 156.54 38.7674C157.161 37.2953 158.864 36.607 160.337 37.2252C161.81 37.8497 162.502 39.5513 161.874 41.0234C161.81 41.17 161.727 41.3102 161.644 41.4377C162.764 41.7181 163.924 41.8838 165.108 41.9348C165.064 41.7882 165.025 41.6416 165.006 41.4887C164.807 39.9018 165.934 38.4552 167.523 38.2576C169.111 38.06 170.558 39.188 170.757 40.7749C170.776 40.9342 170.776 41.0936 170.769 41.2529C171.909 40.9215 172.998 40.4818 174.016 39.9464C173.907 39.8445 173.799 39.7361 173.702 39.6087C172.735 38.3341 172.992 36.5114 174.266 35.5491C175.54 34.5868 177.359 34.8353 178.326 36.1163C178.422 36.2438 178.493 36.3776 178.563 36.5114C179.364 35.6702 180.087 34.7461 180.708 33.7583C180.568 33.7201 180.433 33.6882 180.299 33.6309C178.826 33.0063 178.134 31.3047 178.762 29.8326C179.383 28.3605 181.086 27.6722 182.559 28.2904C182.694 28.3477 182.815 28.4242 182.937 28.4943C183.206 27.3854 183.366 26.2383 183.411 25.0657C183.283 25.0975 183.161 25.1358 183.027 25.1549C181.438 25.3524 179.991 24.2244 179.793 22.6312C179.594 21.0443 180.721 19.5977 182.309 19.4001C182.438 19.381 182.566 19.3874 182.694 19.3938C182.367 18.2785 181.932 17.2142 181.406 16.2137C181.323 16.2965 181.246 16.3794 181.15 16.4495C179.876 17.4118 178.057 17.1632 177.09 15.8823C176.123 14.6077 176.379 12.785 177.654 11.8227C177.75 11.7526 177.852 11.7016 177.948 11.6443C177.122 10.8604 176.226 10.1594 175.265 9.5476C175.233 9.64957 175.214 9.75154 175.169 9.84713C174.548 11.3193 172.844 12.0075 171.371 11.3894C169.899 10.7648 169.207 9.06326 169.834 7.59112C169.879 7.48915 169.937 7.39993 169.988 7.31071C168.899 7.04942 167.779 6.89009 166.632 6.83911C166.652 6.93471 166.684 7.0303 166.697 7.12589C166.895 8.71275 165.768 10.1594 164.18 10.357C162.592 10.5545 161.144 9.42652 160.946 7.83329C160.933 7.72495 160.946 7.62298 160.939 7.51464L160.952 7.54013ZM164.513 13.4988C170.533 12.7532 176.021 17.0294 176.764 23.0518C177.506 29.0742 173.235 34.5613 167.215 35.3069C161.195 36.0526 155.707 31.7763 154.964 25.7539C154.222 19.7315 158.493 14.2444 164.513 13.4988Z" fill="#0484BB"/>
<path d="M164.378 37.7413C171.73 38.5634 178.384 33.2484 179.21 25.894C180.036 18.5397 174.721 11.8864 167.369 11.0579C160.017 10.2294 153.364 15.5444 152.537 22.9051C151.711 30.2595 157.027 36.9192 164.378 37.7413ZM156.911 23.3958C157.462 18.4568 161.932 14.8816 166.876 15.4361C171.813 15.9905 175.387 20.4579 174.83 25.4033C174.279 30.3423 169.809 33.9175 164.865 33.3631C159.928 32.8086 156.354 28.3412 156.911 23.3958Z" stroke="#08668B" stroke-linecap="round" stroke-linejoin="round"/>
</svg>
