<svg width="194" height="179" viewBox="0 0 194 179" fill="none" xmlns="http://www.w3.org/2000/svg">
<path d="M134.597 100.431C133.317 100.802 132.087 101.298 130.934 101.905C131.018 101.989 131.102 102.073 131.178 102.166C132.298 103.656 132.003 105.787 130.521 106.915C129.03 108.044 126.917 107.749 125.797 106.25C125.721 106.141 125.662 106.031 125.595 105.922C124.677 106.882 123.851 107.926 123.136 109.046C123.253 109.08 123.38 109.105 123.498 109.155C125.216 109.888 126.016 111.875 125.291 113.602C124.567 115.328 122.588 116.128 120.87 115.404C120.735 115.345 120.618 115.269 120.491 115.193C120.171 116.482 119.978 117.804 119.91 119.168C120.045 119.135 120.18 119.092 120.323 119.076C122.176 118.848 123.86 120.162 124.087 122.023C124.315 123.884 123.001 125.577 121.157 125.804C120.997 125.821 120.837 125.821 120.677 125.813C121.047 127.135 121.552 128.389 122.159 129.577C122.268 129.467 122.378 129.349 122.512 129.248C124.003 128.12 126.117 128.415 127.237 129.914C128.357 131.404 128.062 133.535 126.58 134.663C126.437 134.773 126.285 134.857 126.133 134.933C127.11 135.876 128.171 136.726 129.317 137.459C129.359 137.291 129.401 137.131 129.468 136.962C130.193 135.236 132.171 134.436 133.889 135.16C135.607 135.893 136.407 137.88 135.683 139.606C135.607 139.783 135.515 139.935 135.414 140.095C136.719 140.423 138.066 140.617 139.447 140.676C139.397 140.508 139.355 140.331 139.33 140.154C139.102 138.293 140.416 136.6 142.26 136.373C144.113 136.145 145.797 137.459 146.024 139.32C146.05 139.514 146.041 139.699 146.041 139.884C147.372 139.497 148.635 138.983 149.822 138.352C149.696 138.225 149.57 138.107 149.46 137.956C148.34 136.465 148.635 134.335 150.117 133.206C151.608 132.078 153.721 132.373 154.841 133.872C154.951 134.015 155.035 134.175 155.119 134.335C156.054 133.35 156.888 132.272 157.612 131.118C157.452 131.076 157.292 131.034 157.132 130.966C155.414 130.234 154.614 128.246 155.338 126.52C156.062 124.794 158.041 123.994 159.759 124.718C159.919 124.785 160.054 124.869 160.197 124.962C160.509 123.665 160.694 122.318 160.745 120.953C160.602 120.996 160.458 121.038 160.298 121.055C158.446 121.282 156.77 119.968 156.534 118.107C156.307 116.246 157.62 114.553 159.465 114.326C159.616 114.309 159.759 114.318 159.911 114.318C159.532 113.012 159.027 111.766 158.412 110.595C158.311 110.688 158.227 110.789 158.109 110.873C156.618 112.002 154.505 111.707 153.385 110.208C152.265 108.717 152.559 106.587 154.041 105.458C154.151 105.374 154.269 105.315 154.387 105.248C153.427 104.33 152.382 103.513 151.262 102.797C151.229 102.915 151.203 103.033 151.153 103.151C150.429 104.877 148.45 105.677 146.732 104.953C145.014 104.221 144.214 102.233 144.938 100.507C144.989 100.389 145.056 100.288 145.115 100.178C143.852 99.8668 142.538 99.6815 141.207 99.6226C141.233 99.732 141.266 99.8415 141.283 99.9594C141.511 101.82 140.197 103.513 138.353 103.741C136.5 103.968 134.824 102.654 134.588 100.793C134.572 100.667 134.588 100.549 134.588 100.423L134.597 100.431ZM138.622 106.452C146.159 105.517 153.022 110.89 153.949 118.469C154.884 126.04 149.528 132.945 141.999 133.88C134.462 134.815 127.599 129.442 126.672 121.863C125.738 114.292 131.094 107.387 138.622 106.452Z" fill="#0484BB"/>
<path d="M138.471 136.726C147.557 137.745 155.776 131.152 156.795 122.015C157.814 112.878 151.246 104.616 142.159 103.597C133.073 102.57 124.854 109.172 123.835 118.309C122.816 127.446 129.384 135.708 138.471 136.735V136.726ZM129.856 119.092C130.529 113.61 135.776 109.627 141.544 110.208C147.313 110.798 151.456 115.732 150.782 121.215C150.109 126.697 144.862 130.688 139.094 130.099C133.325 129.51 129.182 124.575 129.856 119.092Z" fill="#085C7D" fill-opacity="0.9804"/>
<path d="M24.0347 131.48C22.9905 131.792 21.9884 132.204 21.0452 132.71C21.1126 132.785 21.1799 132.853 21.2389 132.929C22.1568 134.192 21.921 135.985 20.7168 136.937C19.5041 137.889 17.7778 137.628 16.8599 136.364C16.7925 136.272 16.7504 136.179 16.6914 136.086C15.9504 136.895 15.2767 137.771 14.6956 138.714C14.7967 138.748 14.8893 138.764 14.9903 138.807C16.3883 139.43 17.0535 141.106 16.4641 142.562C15.8746 144.019 14.2661 144.693 12.8598 144.07C12.7503 144.019 12.6492 143.952 12.5566 143.893C12.2956 144.979 12.144 146.099 12.0934 147.245C12.2029 147.219 12.3124 147.177 12.4303 147.169C13.9377 146.984 15.3104 148.095 15.504 149.661C15.6977 151.228 14.6282 152.651 13.1208 152.845C12.9861 152.862 12.8598 152.853 12.7335 152.845C13.045 153.956 13.4493 155.026 13.9545 156.028C14.0472 155.935 14.1314 155.834 14.2409 155.75C15.4535 154.798 17.1799 155.059 18.0978 156.323C19.0157 157.586 18.7799 159.38 17.5757 160.331C17.4578 160.424 17.3399 160.491 17.2135 160.559C18.0136 161.359 18.8809 162.074 19.8157 162.698C19.8494 162.554 19.8831 162.42 19.942 162.285C20.5315 160.828 22.14 160.154 23.5463 160.777C24.9442 161.401 25.6095 163.076 25.02 164.533C24.9611 164.677 24.8853 164.811 24.8011 164.946C25.8706 165.224 26.9653 165.392 28.0938 165.451C28.0516 165.308 28.018 165.165 27.9927 165.013C27.799 163.447 28.8685 162.024 30.3759 161.83C31.8833 161.645 33.256 162.756 33.4496 164.323C33.4665 164.483 33.4665 164.643 33.4581 164.794C34.536 164.474 35.5718 164.037 36.5402 163.514C36.4392 163.413 36.3297 163.304 36.2455 163.186C35.3276 161.923 35.5634 160.129 36.7676 159.177C37.9803 158.226 39.7066 158.487 40.6245 159.75C40.7172 159.876 40.7845 160.003 40.8519 160.137C41.6098 159.304 42.2919 158.403 42.8814 157.426C42.7467 157.392 42.6203 157.358 42.494 157.3C41.0961 156.676 40.4308 155.001 41.0203 153.544C41.6098 152.087 43.2183 151.413 44.6246 152.036C44.7509 152.095 44.8688 152.171 44.9783 152.238C45.2309 151.144 45.3825 150.007 45.4162 148.853C45.2983 148.887 45.1804 148.92 45.0541 148.937C43.5467 149.131 42.174 148.011 41.9803 146.445C41.7866 144.878 42.8561 143.455 44.3635 143.261C44.4899 143.245 44.6077 143.253 44.7256 143.261C44.4141 142.158 43.993 141.106 43.4961 140.12C43.4204 140.196 43.3446 140.28 43.2519 140.356C42.0393 141.308 40.3129 141.047 39.395 139.783C38.4771 138.52 38.7129 136.727 39.9171 135.775C40.0098 135.708 40.1024 135.657 40.195 135.598C39.4119 134.823 38.5529 134.124 37.6434 133.526C37.6181 133.628 37.5929 133.729 37.5592 133.821C36.9697 135.278 35.3613 135.952 33.9549 135.329C32.557 134.705 31.8917 133.03 32.4812 131.573C32.5233 131.472 32.5738 131.387 32.6244 131.295C31.5886 131.034 30.5275 130.874 29.4327 130.815C29.458 130.907 29.4833 131 29.4917 131.101C29.6854 132.667 28.6159 134.091 27.1085 134.284C25.6011 134.47 24.2284 133.358 24.0347 131.792C24.0179 131.682 24.0347 131.581 24.0347 131.48ZM27.3274 136.567C33.4665 135.792 39.0834 140.348 39.8582 146.739C40.6414 153.131 36.2876 158.942 30.1485 159.708C24.0095 160.483 18.3925 155.927 17.6178 149.535C16.8346 143.143 21.1884 137.333 27.3274 136.567Z" fill="#0484BB"/>
<path d="M27.4621 160.424C33.9801 161.199 39.8581 156.323 40.5655 149.552C41.2729 142.781 36.5485 136.634 30.0305 135.859C23.5125 135.076 17.6345 139.96 16.9271 146.731C16.2197 153.502 20.944 159.649 27.4621 160.424ZM20.3714 147.228C20.9019 142.689 25.0873 139.396 29.7105 139.893C34.3338 140.39 37.6686 144.491 37.138 149.038C36.6075 153.577 32.4222 156.87 27.7989 156.373C23.1757 155.876 19.8409 151.775 20.3714 147.228Z" fill="#085C7D" fill-opacity="0.9804"/>
<path d="M72.5492 97.8794C70.2923 98.5362 68.1365 99.4036 66.0986 100.465C66.2417 100.616 66.3933 100.751 66.5196 100.928C68.4986 103.555 67.9765 107.294 65.3575 109.282C62.7385 111.269 59.0163 110.747 57.0458 108.12C56.9026 107.934 56.81 107.732 56.6921 107.539C55.0752 109.231 53.6268 111.067 52.372 113.038C52.5825 113.105 52.8015 113.147 53.0036 113.231C56.0184 114.52 57.4331 118.014 56.1531 121.055C54.8731 124.086 51.3951 125.509 48.3719 124.221C48.1361 124.12 47.9256 123.985 47.7066 123.859C47.1424 126.124 46.7972 128.457 46.6877 130.848C46.9235 130.789 47.1593 130.714 47.4119 130.68C50.6625 130.276 53.6268 132.6 54.031 135.867C54.4352 139.135 52.1194 142.116 48.8688 142.52C48.5825 142.554 48.3046 142.545 48.0267 142.537C48.6835 144.861 49.5593 147.076 50.6372 149.165C50.8309 148.962 51.0246 148.76 51.252 148.592C53.871 146.605 57.5932 147.127 59.5637 149.754C61.5427 152.381 61.0206 156.12 58.4016 158.108C58.149 158.293 57.8879 158.445 57.6184 158.588C59.3363 160.255 61.2059 161.746 63.2185 163.043C63.2943 162.748 63.3617 162.462 63.488 162.175C64.768 159.144 68.246 157.721 71.2692 159.009C74.284 160.297 75.6988 163.792 74.4187 166.832C74.2924 167.135 74.124 167.413 73.9556 167.691C76.2546 168.264 78.6293 168.609 81.0547 168.719C80.9704 168.415 80.8862 168.121 80.8441 167.801C80.4399 164.533 82.7557 161.552 86.0063 161.148C89.2569 160.744 92.2212 163.068 92.6254 166.335C92.6675 166.672 92.6591 167.001 92.6507 167.321C94.9833 166.639 97.2065 165.738 99.3034 164.626C99.0845 164.407 98.8571 164.188 98.6634 163.935C96.6844 161.308 97.2065 157.561 99.8255 155.582C102.445 153.594 106.167 154.116 108.137 156.744C108.331 157.005 108.483 157.274 108.626 157.552C110.268 155.817 111.742 153.923 113.022 151.893C112.735 151.817 112.457 151.75 112.179 151.632C109.165 150.344 107.75 146.849 109.03 143.809C110.31 140.777 113.788 139.354 116.811 140.642C117.089 140.76 117.333 140.912 117.577 141.063C118.125 138.773 118.453 136.415 118.546 134.006C118.285 134.074 118.032 134.15 117.763 134.183C114.512 134.587 111.548 132.263 111.144 128.996C110.739 125.728 113.055 122.747 116.306 122.343C116.575 122.309 116.828 122.326 117.089 122.326C116.415 120.036 115.531 117.846 114.445 115.783C114.276 115.951 114.116 116.128 113.914 116.271C111.295 118.259 107.573 117.737 105.602 115.109C103.624 112.482 104.146 108.734 106.765 106.755C106.958 106.612 107.169 106.503 107.371 106.385C105.678 104.776 103.842 103.328 101.872 102.073C101.813 102.284 101.771 102.486 101.678 102.696C100.398 105.728 96.9202 107.151 93.897 105.863C90.8822 104.574 89.4674 101.079 90.7475 98.0394C90.8317 97.8288 90.958 97.652 91.0675 97.4583C88.8359 96.9194 86.5369 96.5909 84.1958 96.4814C84.2379 96.6751 84.3052 96.8688 84.3305 97.0709C84.7347 100.338 82.4189 103.319 79.1683 103.724C75.9177 104.128 72.9534 101.804 72.5492 98.5362C72.524 98.3173 72.5408 98.1067 72.5324 97.8878L72.5492 97.8794ZM79.842 110.141C92.1707 108.608 103.405 117.408 104.929 129.804C106.453 142.2 97.695 153.493 85.3663 155.026C73.0377 156.558 61.8038 147.758 60.2795 135.362C58.7553 122.966 67.5133 111.673 79.842 110.141Z" fill="#FF9C40"/>
<path d="M79.564 160.045C94.6211 161.737 108.247 150.798 109.939 135.665C111.624 120.524 100.743 106.831 85.6862 105.13C70.6291 103.437 57.0036 114.368 55.3109 129.509C53.6267 144.651 64.5069 158.344 79.564 160.045ZM64.2795 130.52C65.4164 120.347 74.5702 113.004 84.6841 114.141C94.798 115.278 102.108 124.482 100.979 134.655C99.8423 144.828 90.6969 152.171 80.5746 151.034C70.4607 149.897 63.1511 140.693 64.2795 130.52Z" fill="#FF9C40" stroke="white" stroke-linecap="round" stroke-linejoin="round"/>
<path d="M131.338 0.639648L131.91 56.0007L120.373 56.0596L119.801 0.698597L131.338 0.639648Z" fill="#085C7D" fill-opacity="0.9804"/>
<path d="M105.695 9.79358L106.167 56.1355L94.6297 56.2029L94.1581 9.85253L105.695 9.79358Z" fill="#0484BB"/>
<path d="M68.4902 16.8168L68.8944 56.3375L80.4314 56.2786L80.0272 16.8168H68.4902Z" fill="#085C7D" fill-opacity="0.9804"/>
<path d="M56.3131 35.1665L56.5321 56.4048L44.995 56.4638L44.7761 35.2255L56.3131 35.1665Z" fill="#0484BB"/>
<path d="M139.591 56.2196L38.2076 56.8512" stroke="#51C3EB" stroke-linecap="round" stroke-linejoin="round"/>
<path d="M96.3309 13.1703V25.7853" stroke="white" stroke-linecap="round" stroke-linejoin="round"/>
<path d="M122.462 32.7328V48.6657" stroke="white" stroke-linecap="round" stroke-linejoin="round"/>
<path d="M46.4688 41.0361V46.3078" stroke="white" stroke-linecap="round" stroke-linejoin="round"/>
<path d="M70.8567 31.0571V33.314" stroke="white" stroke-linecap="round" stroke-linejoin="round"/>
<path d="M188.737 103.505L162.597 129.779H58.7721L26.5273 162.748" stroke="#51C3EB" stroke-linecap="round" stroke-linejoin="round"/>
<path d="M189.562 114.814L166.277 138.225H74.4944L38.9485 173.957" stroke="#51C3EB" stroke-linecap="round" stroke-linejoin="round"/>
<path d="M164.66 65.6094H5.18781" stroke="#51C3EB" stroke-linecap="round" stroke-linejoin="round"/>
<path d="M159.911 90.4518H31.9674L5.01111 117.551" stroke="#51C3EB" stroke-linecap="round" stroke-linejoin="round"/>
<path d="M113.973 106.056L99.7161 120.389H34.7633L16.5482 138.697" stroke="#51C3EB" stroke-linecap="round" stroke-linejoin="round"/>
<path d="M41.736 105.416H94.3264" stroke="#51C3EB" stroke-linecap="round" stroke-linejoin="round"/>
<path d="M143.751 77.3905H51.8752" stroke="#51C3EB" stroke-linecap="round" stroke-linejoin="round"/>
<path d="M125.376 111.791H158.959" stroke="#51C3EB" stroke-linecap="round" stroke-linejoin="round"/>
<path d="M169.098 65.2893C169.098 67.7483 167.111 69.7441 164.66 69.7441C162.21 69.7441 160.222 67.7483 160.222 65.2893C160.222 62.8303 162.21 60.8345 164.66 60.8345C167.111 60.8345 169.098 62.8303 169.098 65.2893Z" fill="#51C3EB"/>
<path d="M9.62595 65.2893C9.62595 67.7483 7.63855 69.7441 5.18798 69.7441C2.73741 69.7441 0.75 67.7483 0.75 65.2893C0.75 62.8303 2.73741 60.8345 5.18798 60.8345C7.63855 60.8345 9.62595 62.8303 9.62595 65.2893Z" fill="#51C3EB"/>
<path d="M157.688 116.878C160.139 116.878 162.126 114.883 162.126 112.423C162.126 109.962 160.139 107.968 157.688 107.968C155.237 107.968 153.25 109.962 153.25 112.423C153.25 114.883 155.237 116.878 157.688 116.878Z" fill="#51C3EB"/>
<path d="M94.3265 109.871C96.7776 109.871 98.7645 107.877 98.7645 105.416C98.7645 102.956 96.7776 100.961 94.3265 100.961C91.8755 100.961 89.8885 102.956 89.8885 105.416C89.8885 107.877 91.8755 109.871 94.3265 109.871Z" fill="#51C3EB"/>
<path d="M116.5 105.416C116.5 107.875 114.512 109.871 112.062 109.871C109.611 109.871 107.624 107.875 107.624 105.416C107.624 102.957 109.611 100.961 112.062 100.961C114.512 100.961 116.5 102.957 116.5 105.416Z" fill="#51C3EB"/>
<path d="M44.2709 109.24C46.722 109.24 48.7089 107.245 48.7089 104.785C48.7089 102.324 46.722 100.33 44.2709 100.33C41.8199 100.33 39.8329 102.324 39.8329 104.785C39.8329 107.245 41.8199 109.24 44.2709 109.24Z" fill="#51C3EB"/>
<path d="M32.2286 160.836C32.2286 163.295 30.2411 165.291 27.7906 165.291C25.34 165.291 23.3526 163.295 23.3526 160.836C23.3526 158.377 25.34 156.382 27.7906 156.382C30.2411 156.382 32.2286 158.377 32.2286 160.836Z" fill="#51C3EB"/>
<path d="M39.2181 178.268C41.6691 178.268 43.656 176.274 43.656 173.813C43.656 171.353 41.6691 169.359 39.2181 169.359C36.767 169.359 34.7801 171.353 34.7801 173.813C34.7801 176.274 36.767 178.268 39.2181 178.268Z" fill="#51C3EB"/>
<path d="M18.2914 140.449C20.7424 140.449 22.7294 138.454 22.7294 135.994C22.7294 133.533 20.7424 131.539 18.2914 131.539C15.8403 131.539 13.8534 133.533 13.8534 135.994C13.8534 138.454 15.8403 140.449 18.2914 140.449Z" fill="#51C3EB"/>
<path d="M129.173 116.878C131.624 116.878 133.611 114.883 133.611 112.423C133.611 109.962 131.624 107.968 129.173 107.968C126.722 107.968 124.735 109.962 124.735 112.423C124.735 114.883 126.722 116.878 129.173 116.878Z" fill="#51C3EB"/>
<path d="M164.34 90.4519C164.34 92.9109 162.353 94.9067 159.902 94.9067C157.452 94.9067 155.464 92.9109 155.464 90.4519C155.464 87.9929 157.452 85.9971 159.902 85.9971C162.353 85.9971 164.34 87.9929 164.34 90.4519Z" fill="#51C3EB"/>
<path d="M194 114.814C194 117.273 192.013 119.269 189.562 119.269C187.112 119.269 185.124 117.273 185.124 114.814C185.124 112.355 187.112 110.36 189.562 110.36C192.013 110.36 194 112.355 194 114.814Z" fill="#51C3EB"/>
<path d="M192.855 103.193C192.855 105.652 190.867 107.648 188.417 107.648C185.966 107.648 183.979 105.652 183.979 103.193C183.979 100.734 185.966 98.7384 188.417 98.7384C190.867 98.7384 192.855 100.734 192.855 103.193Z" fill="#51C3EB"/>
<path d="M143.751 81.8454C146.202 81.8454 148.189 79.8509 148.189 77.3906C148.189 74.9303 146.202 72.9358 143.751 72.9358C141.3 72.9358 139.313 74.9303 139.313 77.3906C139.313 79.8509 141.3 81.8454 143.751 81.8454Z" fill="#51C3EB"/>
<path d="M51.8752 81.8454C54.3263 81.8454 56.3132 79.8509 56.3132 77.3906C56.3132 74.9303 54.3263 72.9358 51.8752 72.9358C49.4242 72.9358 47.4373 74.9303 47.4373 77.3906C47.4373 79.8509 49.4242 81.8454 51.8752 81.8454Z" fill="#51C3EB"/>
<path d="M6.88909 120.701C9.34012 120.701 11.3271 118.706 11.3271 116.246C11.3271 113.786 9.34012 111.791 6.88909 111.791C4.43806 111.791 2.45111 113.786 2.45111 116.246C2.45111 118.706 4.43806 120.701 6.88909 120.701Z" fill="#51C3EB"/>
</svg>
