<svg width="587" height="580" viewBox="0 0 587 580" fill="none" xmlns="http://www.w3.org/2000/svg">
<g clip-path="url(#clip0_55_11756)">
<mask id="mask0_55_11756" style="mask-type:luminance" maskUnits="userSpaceOnUse" x="0" y="-1" width="580" height="580">
<path d="M442 544.788C319.959 615.789 171.103 563.915 89.6316 482.366C-17.1066 375.523 -25.9371 199.96 49.4386 95.8837C80.7758 52.6087 146.207 -7.34364 216.066 0.738324C275.278 7.58739 283.175 56.8811 381.76 134.116C493.54 221.69 541.848 204.119 567.934 259.368C606.807 341.696 547.912 483.171 442 544.785V544.788Z" fill="white"/>
</mask>
<g mask="url(#mask0_55_11756)">
<path d="M455.157 553.482C450.681 553.482 446.298 551.266 443.721 547.216L377.043 442.404C373.033 436.1 374.894 427.707 381.186 423.692L585.934 293.084C586.149 292.948 586.418 292.938 586.642 293.062C586.864 293.185 587.003 293.417 587.003 293.673V471.508C587.003 471.746 586.883 471.968 586.68 472.095L462.408 551.368C460.161 552.8 457.644 553.485 455.157 553.485V553.482ZM585.611 294.935L381.933 424.861C376.287 428.465 374.619 435.995 378.214 441.649L444.892 546.462C448.491 552.116 456.011 553.786 461.661 550.186L585.611 471.115V294.932V294.935Z" fill="#51C3EB"/>
<path d="M390.66 444.182C390.432 444.182 390.207 444.068 390.074 443.862C389.869 443.538 389.964 443.107 390.287 442.901C400.62 436.296 410.964 429.66 421.32 423.013C445.979 407.189 471.48 390.825 496.689 375.029C497.012 374.826 497.443 374.924 497.648 375.251C497.851 375.577 497.753 376.005 497.427 376.211C472.223 392.004 446.729 408.368 422.07 424.189C411.714 430.835 401.367 437.472 391.037 444.077C390.92 444.15 390.79 444.188 390.663 444.188L390.66 444.182Z" fill="#0484BB"/>
<path d="M395.335 427.216C396.313 428.75 395.86 430.788 394.328 431.767C392.796 432.747 390.761 432.293 389.783 430.759C388.805 429.225 389.258 427.187 390.79 426.208C392.321 425.229 394.357 425.682 395.335 427.216Z" fill="#0484BB"/>
<path d="M406.441 420.129C407.419 421.666 406.966 423.701 405.434 424.68C403.899 425.66 401.867 425.207 400.889 423.673C399.911 422.139 400.364 420.101 401.896 419.121C403.428 418.142 405.463 418.595 406.441 420.129Z" fill="#0484BB"/>
<path d="M417.546 413.046C418.524 414.58 418.072 416.618 416.54 417.597C415.008 418.576 412.973 418.123 411.995 416.589C411.017 415.055 411.47 413.017 413.001 412.038C414.533 411.058 416.568 411.512 417.546 413.046Z" fill="#0484BB"/>
<path d="M455.03 389.83C454.79 389.83 454.559 389.706 454.429 389.484C454.236 389.151 454.347 388.727 454.679 388.533C462.604 383.916 470.197 378.886 477.537 374.024C483.797 369.878 490.27 365.593 496.847 361.632C497.176 361.435 497.603 361.54 497.803 361.869C497.999 362.199 497.894 362.627 497.565 362.823C491.014 366.769 484.554 371.045 478.306 375.184C470.947 380.055 463.338 385.095 455.378 389.735C455.268 389.798 455.147 389.83 455.03 389.83Z" fill="#0484BB"/>
<path d="M424.209 409.49C423.981 409.49 423.756 409.375 423.623 409.166C423.418 408.843 423.513 408.412 423.835 408.206L437.626 399.411C437.948 399.205 438.379 399.3 438.585 399.623C438.79 399.946 438.695 400.378 438.373 400.584L424.582 409.379C424.468 409.452 424.339 409.486 424.209 409.486V409.49Z" fill="#0484BB"/>
<path d="M454.283 527.001C454.233 527.001 454.182 526.995 454.131 526.985C453.951 526.944 453.796 526.836 453.695 526.681L408.349 455.401C408.143 455.078 408.238 454.647 408.561 454.441L479.743 409.033C479.898 408.935 480.085 408.9 480.268 408.941C480.449 408.982 480.604 409.09 480.705 409.245L526.051 480.525C526.257 480.849 526.162 481.28 525.839 481.486L454.657 526.894C454.543 526.966 454.413 527.001 454.283 527.001ZM409.9 455.24L454.495 525.347L524.506 480.687L479.911 410.58L409.9 455.24Z" fill="#0484BB"/>
<path d="M508.759 391.334L493.215 401.25L503.119 416.818L518.663 406.902L508.759 391.334Z" fill="#0484BB"/>
<path d="M586.304 341.886L519.395 384.569L529.298 400.133L586.304 363.768V341.886Z" fill="#0484BB"/>
<path d="M526.478 419.188L510.935 429.104L520.837 444.669L536.381 434.753L526.478 419.188Z" fill="#0484BB"/>
<path d="M586.304 381.047L537.116 412.424L547.02 427.992L586.304 402.929V381.047Z" fill="#0484BB"/>
<path d="M544.201 447.044L528.657 456.96L538.56 472.525L554.103 462.609L544.201 447.044Z" fill="#0484BB"/>
<path d="M586.304 420.205L554.837 440.28L564.737 455.848L586.304 442.09V420.205Z" fill="#0484BB"/>
</g>
<path d="M156.714 524.386L155.107 518.507L148.463 518.808C147.846 517.512 147.134 516.285 146.33 515.138L149.846 509.497L145.516 505.208L139.914 508.796C138.746 507.994 137.515 507.294 136.233 506.695L136.461 500.039L130.571 498.492L127.514 504.397C126.118 504.286 124.697 504.299 123.272 504.429L120.149 498.549L114.277 500.16L114.578 506.812C113.287 507.43 112.059 508.143 110.913 508.948L105.279 505.427L100.997 509.763L104.58 515.373C103.779 516.542 103.076 517.775 102.481 519.059L95.8346 518.83L94.29 524.729L100.187 527.79C100.076 529.188 100.088 530.611 100.218 532.037L94.347 535.166L95.9549 541.045L102.598 540.744C103.215 542.04 103.928 543.267 104.732 544.414L101.215 550.055L105.545 554.344L111.147 550.756C112.315 551.558 113.546 552.261 114.828 552.857L114.6 559.513L120.49 561.06L123.548 555.155C124.944 555.266 126.365 555.253 127.789 555.123L130.913 561.003L136.784 559.392L136.483 552.74C137.778 552.122 139.003 551.409 140.148 550.604L145.782 554.125L150.065 549.789L146.482 544.179C147.282 543.01 147.985 541.777 148.58 540.493L155.227 540.722L156.771 534.823L150.875 531.762C150.986 530.364 150.973 528.941 150.843 527.515L156.714 524.386ZM129.672 544.911C121.323 547.2 112.701 542.278 110.416 533.92C108.131 525.559 113.046 516.926 121.392 514.637C129.742 512.349 138.363 517.271 140.649 525.629C142.934 533.99 138.018 542.623 129.672 544.911Z" fill="#FF9C40"/>
<path d="M254.072 463.477L251.321 453.414L239.955 453.931C238.901 451.715 237.683 449.614 236.303 447.649L242.323 437.995L234.917 430.658L225.33 436.797C223.333 435.428 221.228 434.223 219.031 433.203L219.424 421.812L209.346 419.166L204.117 429.27C201.728 429.083 199.3 429.102 196.86 429.32L191.514 419.261L181.465 422.015L181.981 433.396C179.769 434.452 177.67 435.672 175.708 437.054L166.067 431.026L158.74 438.442L164.871 448.042C163.504 450.042 162.301 452.15 161.282 454.349L149.906 453.956L147.264 464.047L157.354 469.283C157.167 471.676 157.186 474.107 157.405 476.551L147.359 481.904L150.109 491.967L161.475 491.45C162.529 493.666 163.747 495.767 165.127 497.732L159.11 507.386L166.517 514.723L176.104 508.584C178.101 509.956 180.206 511.157 182.402 512.178L182.01 523.569L192.087 526.215L197.316 516.111C199.705 516.298 202.133 516.279 204.573 516.06L209.919 526.12L219.968 523.366L219.452 511.985C221.665 510.929 223.763 509.709 225.725 508.327L235.366 514.352L242.693 506.936L236.559 497.336C237.93 495.336 239.129 493.228 240.148 491.029L251.524 491.422L254.166 481.33L244.076 476.094C244.263 473.701 244.244 471.271 244.026 468.827L254.072 463.474V463.477ZM207.795 498.6C193.508 502.518 178.756 494.097 174.844 479.79C170.932 465.483 179.341 450.711 193.629 446.793C207.916 442.876 222.668 451.297 226.58 465.604C230.492 479.91 222.082 494.683 207.795 498.6Z" fill="#FF9C40"/>
<path d="M124.991 480.525C124.738 480.525 124.497 480.389 124.374 480.148L5.10833 248.633C-0.446339 237.854 3.25994 222.473 15.8252 204.157C27.8809 186.579 48.0296 166.302 74.0938 145.51C78.3476 142.119 83.839 140.826 89.1689 141.97C94.521 143.117 99.0312 146.569 101.538 151.44L204.478 351.261C208.495 359.055 206.402 368.601 199.506 373.961C171.875 395.433 150.425 416.434 137.471 434.696C124.238 453.354 120.133 468.843 125.599 479.489L125.611 479.511C125.789 479.853 125.652 480.272 125.314 480.449C125.213 480.503 125.102 480.528 124.997 480.528L124.991 480.525ZM6.3427 247.996L122.07 472.64C119.082 449.56 146.77 413.179 198.651 372.861C205.019 367.913 206.947 359.099 203.241 351.898L100.3 152.077C97.9836 147.58 93.8184 144.391 88.8746 143.333C83.9561 142.278 78.8825 143.469 74.9579 146.601C21.3261 189.384 -4.32669 227.287 6.3427 247.996Z" fill="#51C3EB"/>
<path d="M3.85546 261.244L123.121 492.759C111.489 470.177 141.82 429.378 197.205 386.337C203.846 381.177 205.84 371.989 201.985 364.506L99.0444 164.685C93.9993 154.892 81.2568 152.115 72.651 158.983C20.6397 200.48 -7.40263 239.394 3.85546 261.244Z" fill="#91E2EB"/>
<path d="M396.373 263.523C389.739 263.523 383.399 259.869 380.203 253.663L277.095 53.5121C274.702 48.869 274.42 43.4144 276.319 38.5431C278.222 33.6685 282.13 29.8431 287.043 28.0492C328.511 12.9058 365.71 3.86985 394.619 1.9175C424.491 -0.0982392 443.804 5.66056 450.457 18.5759L569.723 250.091C569.9 250.433 569.764 250.852 569.422 251.029C569.08 251.207 568.663 251.07 568.485 250.731C561.997 238.136 542.655 232.672 512.571 234.922C482.972 237.138 444.975 246.633 402.694 262.379C400.617 263.152 398.481 263.52 396.373 263.52V263.523ZM278.329 52.8719L381.44 253.023C385.33 260.572 394.262 264.033 402.209 261.073C482.687 231.097 544.453 224.872 564.953 243.869L449.22 19.2161C436.335 -5.79365 372.863 -1.81289 287.517 29.3582C282.982 31.0158 279.37 34.5465 277.614 39.0502C275.86 43.5476 276.12 48.5837 278.329 52.8719Z" fill="#0484BB"/>
<path d="M275.841 66.1232L378.952 266.274C383.006 274.144 392.293 277.744 400.582 274.657C485.589 242.995 553.539 236.757 567.235 263.342L447.966 31.8272C434.492 5.67329 368.495 11.2895 285.406 41.6333C275.505 45.2496 271.008 56.7418 275.838 66.1232H275.841Z" fill="#91E2EB"/>
<path d="M397.525 142.075C395.097 142.886 392.593 143.615 390.004 144.243C373.492 148.249 370.125 144.252 326.944 142.747C274.198 140.905 256.354 146.068 243.921 151.519C236.832 154.629 231.22 157.957 221.377 163.788C187.897 183.632 179.326 196.141 170.609 193.314C168.612 192.668 166.609 191.207 164.801 188.405C151.404 198.515 136.139 196.278 127.786 193.831C127.789 195.723 127.868 197.65 128.043 199.612C128.543 205.285 129.416 215.218 135.512 223.592C148.634 241.619 181.003 245.622 215.569 233.829C213.382 238.577 195.743 278.533 216.531 315.697C238.006 354.088 284.991 361.8 315.873 356.529C366.241 347.933 406.504 299.217 399.623 270.226C398.439 265.237 393.223 258.03 382.842 243.816C370.565 227.008 359.458 213.912 351.616 205.101C360.05 204.585 389.185 201.767 414.565 178.355C416.869 176.228 418.996 174.06 420.974 171.87C406.529 167.027 400.196 152.109 397.518 142.075H397.525Z" fill="#0484BB"/>
<path d="M461.921 106.039L457.411 108.923L464.307 96.4924C464.643 95.887 464.665 95.158 464.371 94.5337C463.696 93.1106 461.769 92.8761 460.775 94.0963L451.612 105.348L457.92 89.4658C458.439 88.16 457.945 86.6672 456.749 85.9319C455.239 85.0001 453.258 85.6372 452.568 87.2726L446.539 101.601L448.624 89.1077C448.871 87.618 447.767 86.1665 446.26 86.1791C445.323 86.1886 444.418 86.7306 444.06 88.5657C443.206 92.9743 438.743 110.606 438.743 110.606C438.743 110.606 436.806 109.908 434.306 106.517C431.805 103.123 430.783 104.999 430.783 104.999C429.254 110.175 432.961 115.829 435.664 119.084C426.52 127.419 413.84 136.626 397.521 142.071C400.199 152.106 406.529 167.024 420.978 171.867C436.793 154.369 442.617 135.511 444.798 126.012C451.172 123.388 461.962 111.585 464.358 108.904C464.671 108.555 464.839 108.105 464.839 107.639C464.839 106.137 463.181 105.227 461.918 106.035L461.921 106.039Z" fill="white"/>
<path d="M420.978 172.564C420.905 172.564 420.829 172.552 420.756 172.529C406.39 167.715 399.826 153.408 396.851 142.255C396.756 141.9 396.955 141.533 397.303 141.415C410.552 136.994 423.13 129.46 434.708 119.014C431.685 115.239 428.622 109.87 430.119 104.806C430.134 104.758 430.15 104.714 430.176 104.669C430.22 104.587 430.644 103.858 431.575 103.795C432.6 103.725 433.67 104.482 434.869 106.108C436.319 108.077 437.563 109.088 438.294 109.569C439.202 105.963 442.652 92.2168 443.383 88.4389C443.877 85.8875 445.396 85.4945 446.257 85.4882C446.267 85.4882 446.273 85.4882 446.283 85.4882C447.156 85.4882 447.992 85.878 448.574 86.5626C449.204 87.3011 449.473 88.2709 449.315 89.2281L448.207 95.8585L451.932 87.0063C452.34 86.0397 453.144 85.3012 454.141 84.9811C455.142 84.661 456.224 84.7941 457.117 85.3424C458.604 86.2584 459.212 88.1029 458.566 89.7289L453.926 101.411L460.237 93.6621C460.858 92.9014 461.81 92.5211 462.776 92.6384C463.747 92.7556 464.58 93.3546 464.998 94.2421C465.39 95.0693 465.358 96.0391 464.915 96.8378L459.354 106.859L461.548 105.455C462.358 104.936 463.345 104.904 464.19 105.367C465.035 105.829 465.539 106.682 465.539 107.645C465.539 108.286 465.305 108.901 464.88 109.376C461.902 112.707 451.815 123.648 445.4 126.522C442.598 138.522 436.183 156.096 421.497 172.342C421.364 172.491 421.174 172.571 420.981 172.571L420.978 172.564ZM398.367 142.525C401.301 153.136 407.549 166.393 420.769 171.062C435.176 154.974 441.421 137.622 444.121 125.86C444.171 125.641 444.327 125.457 444.535 125.372C450.812 122.786 461.719 110.815 463.842 108.441C464.039 108.222 464.146 107.937 464.146 107.639C464.146 107.192 463.912 106.796 463.519 106.581C463.127 106.365 462.671 106.381 462.291 106.622L457.781 109.506C457.512 109.677 457.164 109.645 456.93 109.427C456.699 109.208 456.645 108.859 456.8 108.58L463.697 96.1501C463.921 95.7412 463.94 95.2468 463.741 94.8252C463.523 94.3657 463.111 94.0678 462.608 94.0075C462.101 93.9473 461.633 94.1375 461.313 94.5305L452.151 105.782C451.935 106.048 451.556 106.118 451.258 105.943C450.961 105.769 450.837 105.405 450.964 105.088L457.272 89.2059C457.667 88.2107 457.294 87.0824 456.382 86.5214C455.835 86.1855 455.17 86.1031 454.559 86.2996C453.948 86.4961 453.455 86.9461 453.205 87.5388L447.175 101.868C447.039 102.194 446.681 102.365 446.34 102.267C446.001 102.169 445.789 101.833 445.849 101.484L447.935 88.9904C448.027 88.4484 447.865 87.8779 447.511 87.4596C447.185 87.0792 446.713 86.8669 446.264 86.8732C445.944 86.8732 445.093 86.8827 444.741 88.6956C443.893 93.0726 439.598 110.054 439.418 110.774C439.37 110.964 439.243 111.125 439.069 111.217C438.895 111.309 438.693 111.325 438.509 111.259C438.424 111.227 436.341 110.45 433.746 106.926C432.511 105.249 431.828 105.164 431.663 105.173C431.54 105.183 431.457 105.253 431.416 105.294C430.036 110.225 433.809 115.759 436.192 118.631C436.43 118.916 436.401 119.341 436.126 119.591C424.453 130.231 411.749 137.942 398.361 142.515L398.367 142.525Z" fill="black"/>
<path d="M157.832 148.451C160.801 143.602 159.949 131.948 156.632 126.288C153.274 120.558 141.738 104.172 141.738 104.172C136.031 108.634 144.536 121.806 144.536 121.806C134.673 128.129 140.203 134.842 140.203 134.842C136.224 143.127 141.295 145.951 144.327 146.873C137.743 155.725 127.735 172.491 127.789 193.834C136.145 196.281 151.407 198.519 164.805 188.408C161.041 182.573 158.123 170.891 157.832 148.451Z" fill="white"/>
<path d="M141.757 196.591C136.123 196.591 131.141 195.539 127.59 194.5C127.296 194.414 127.09 194.142 127.09 193.834C127.039 173.772 135.69 157.529 143.2 147.219C141.488 146.55 139.564 145.339 138.614 143.178C137.639 140.956 137.902 138.179 139.393 134.918C138.826 134.078 137.611 131.879 138.051 129.064C138.481 126.326 140.339 123.816 143.583 121.6C141.953 118.903 135.822 107.912 141.304 103.623C141.453 103.506 141.646 103.456 141.833 103.484C142.02 103.513 142.191 103.617 142.298 103.772C142.412 103.937 153.892 120.25 157.225 125.939C160.434 131.416 161.605 143.301 158.522 148.642C158.788 168.137 161.095 181.391 165.381 188.034C165.58 188.342 165.507 188.747 165.216 188.966C157.449 194.826 149.056 196.595 141.751 196.595L141.757 196.591ZM128.483 193.308C136.408 195.542 151.002 197.603 163.874 188.227C159.652 181.179 157.386 167.807 157.136 148.458C157.136 148.328 157.171 148.198 157.237 148.084C159.95 143.653 159.307 132.227 156.031 126.636C153.107 121.645 143.802 108.324 141.624 105.221C137.623 109.693 145.036 121.306 145.115 121.426C145.216 121.581 145.251 121.771 145.21 121.952C145.172 122.133 145.061 122.291 144.906 122.389C141.659 124.472 139.817 126.789 139.424 129.273C138.965 132.205 140.716 134.373 140.731 134.395C140.902 134.604 140.94 134.896 140.823 135.14C139.361 138.183 139.048 140.699 139.886 142.613C140.798 144.689 142.909 145.71 144.523 146.201C144.738 146.268 144.909 146.436 144.982 146.648C145.052 146.864 145.014 147.101 144.881 147.282C137.437 157.288 128.584 173.363 128.483 193.305V193.308Z" fill="black"/>
<path d="M150.685 144.135C150.524 144.135 150.363 144.078 150.233 143.964C150.033 143.792 145.406 139.707 147.543 135.124C149.245 131.467 148.986 131.042 147.543 128.684L147.353 128.373C145.507 125.34 147.296 122.649 147.372 122.535C147.486 122.367 147.666 122.26 147.869 122.234C148.071 122.212 148.271 122.279 148.419 122.415L155.072 128.576C155.354 128.836 155.373 129.277 155.11 129.559C154.848 129.841 154.411 129.857 154.129 129.597L148.163 124.072C147.881 124.868 147.666 126.205 148.54 127.648L148.726 127.955C150.35 130.611 150.73 131.562 148.799 135.711C147.109 139.336 151.1 142.877 151.141 142.911C151.429 143.165 151.461 143.602 151.211 143.894C151.075 144.052 150.882 144.135 150.685 144.135Z" fill="black"/>
<path d="M144.22 138.693C143.438 138.693 142.663 138.389 142.086 137.796L139.7 135.327C139.434 135.051 139.44 134.611 139.716 134.345C139.991 134.078 140.431 134.085 140.7 134.36L143.087 136.829C143.65 137.412 144.584 137.466 145.214 136.953C145.511 136.709 145.948 136.753 146.192 137.051C146.435 137.349 146.391 137.786 146.093 138.031C145.549 138.477 144.884 138.696 144.22 138.696V138.693Z" fill="black"/>
<path d="M372.423 497.691C372.565 498.493 397.05 533.901 397.05 533.901L377.287 539.077L357.81 508.578L372.423 497.691Z" fill="white"/>
<path d="M377.287 539.771C377.053 539.771 376.832 539.654 376.702 539.451L357.224 508.952C357.028 508.644 357.104 508.235 357.395 508.02L372.008 497.133C372.201 496.99 372.454 496.955 372.679 497.044C372.869 497.12 373.018 497.276 373.081 497.469C373.749 498.835 388.096 519.728 397.623 533.502C397.753 533.689 397.781 533.926 397.702 534.139C397.623 534.351 397.446 534.513 397.227 534.57L377.465 539.745C377.408 539.761 377.348 539.768 377.287 539.768V539.771ZM358.743 508.749L377.601 538.275L395.914 533.48C386.048 519.211 374.711 502.714 372.233 498.702L358.743 508.749Z" fill="black"/>
<path d="M377.18 529.153C377.18 529.153 379.478 518.802 390.761 521.765C390.761 521.765 414.812 546.04 425.982 567.63C429.141 573.737 423.548 580.742 416.892 579.052C401.313 575.1 376.281 565.437 358.845 542.36C358.845 542.36 361 531.207 366.561 525.245L377.183 529.153H377.18Z" fill="black"/>
<path d="M418.895 580C418.176 580 417.445 579.911 416.72 579.727C399.496 575.357 375.379 565.399 358.287 542.779C358.167 542.62 358.123 542.42 358.161 542.227C358.249 541.764 360.417 530.808 366.051 524.77C366.241 524.564 366.539 524.497 366.798 524.593L376.721 528.244C377.189 526.836 378.49 523.819 381.478 521.994C384.048 520.425 387.229 520.12 390.935 521.093C391.055 521.125 391.163 521.189 391.251 521.277C391.492 521.521 415.505 545.875 426.595 567.313C428.178 570.374 427.827 573.962 425.674 576.678C423.978 578.821 421.503 580.003 418.892 580.003L418.895 580ZM359.588 542.189C376.423 564.308 400.117 574.076 417.062 578.374C419.886 579.09 422.769 578.108 424.589 575.81C426.396 573.528 426.694 570.517 425.364 567.95C414.796 547.526 392.343 524.377 390.4 522.393C387.159 521.578 384.405 521.841 382.215 523.176C378.809 525.249 377.869 529.267 377.86 529.309C377.816 529.505 377.689 529.67 377.515 529.768C377.338 529.863 377.129 529.879 376.942 529.809L366.76 526.063C362.117 531.331 359.971 540.43 359.591 542.195L359.588 542.189Z" fill="black"/>
<path d="M416.702 572.219C408.207 572.219 389.869 568.448 363.317 542.807C363.042 542.541 363.032 542.1 363.298 541.825C363.564 541.549 364.004 541.539 364.282 541.806C400.405 576.688 421.399 570.321 421.608 570.254C421.972 570.134 422.364 570.333 422.485 570.695C422.605 571.059 422.409 571.452 422.045 571.573C421.801 571.655 419.987 572.219 416.702 572.219Z" fill="white"/>
<path d="M400.332 553.066C400.135 553.066 399.939 552.984 399.803 552.822C399.556 552.531 399.591 552.09 399.882 551.84L408.507 544.506C408.801 544.259 409.238 544.294 409.488 544.585C409.735 544.877 409.7 545.317 409.409 545.564L400.784 552.898C400.655 553.009 400.493 553.063 400.335 553.063L400.332 553.066Z" fill="white"/>
<path d="M394.236 546.696C394.03 546.696 393.828 546.604 393.691 546.433C393.454 546.132 393.505 545.694 393.805 545.457L403.231 537.98C403.532 537.742 403.968 537.793 404.209 538.094C404.446 538.395 404.396 538.833 404.095 539.07L394.669 546.547C394.543 546.648 394.388 546.696 394.239 546.696H394.236Z" fill="white"/>
<path d="M311.942 417.074L295.541 429.685L309.942 449.278L325.296 434.62L311.942 417.074Z" fill="white"/>
<path d="M309.942 449.975C309.923 449.975 309.901 449.975 309.882 449.975C309.682 449.959 309.502 449.855 309.382 449.693L294.981 430.1C294.756 429.796 294.816 429.365 295.117 429.137L311.518 416.525C311.664 416.415 311.85 416.364 312.034 416.389C312.217 416.415 312.382 416.51 312.496 416.659L325.852 434.201C326.068 434.483 326.036 434.883 325.78 435.127L310.426 449.785C310.296 449.909 310.125 449.979 309.945 449.979L309.942 449.975ZM296.503 429.821L310.034 448.229L324.365 434.544L311.809 418.05L296.503 429.818V429.821Z" fill="black"/>
<path d="M319.696 446.98L304.453 434.616L301.583 424.256C293.578 424.059 284.593 430.03 279.665 433.872C277.383 435.65 276.639 438.775 277.914 441.374C286.045 457.915 304.38 483.72 313.255 495.871C315.49 498.933 320.335 497.944 321.117 494.23C325.036 475.629 319.696 446.977 319.696 446.977V446.98Z" fill="black"/>
<path d="M314.584 489.159C314.366 489.159 314.148 489.054 314.012 488.861L289.729 453.817C288.064 451.417 287.327 448.397 287.643 445.32C288.248 439.485 285.893 433.495 285.871 433.434C285.729 433.076 285.903 432.674 286.257 432.531C286.615 432.388 287.02 432.563 287.159 432.921C287.26 433.178 289.663 439.291 289.023 445.465C288.739 448.213 289.394 450.898 290.869 453.024L315.151 488.068C315.369 488.385 315.29 488.816 314.977 489.038C314.857 489.121 314.717 489.162 314.581 489.162L314.584 489.159Z" fill="white"/>
<path d="M328.283 250.674C328.283 250.674 375.113 287.702 399.892 322.36C406.817 332.045 407.795 344.793 402.541 355.48C391.134 378.683 366.466 420.291 328.283 441.044L296.218 400.016C296.218 400.016 324.257 368.972 344.871 354.83L292.309 295.835L279.24 266.207L328.286 250.674H328.283Z" fill="black"/>
<path d="M350.818 527.226C352.48 530.158 390.248 502.508 390.248 502.508C390.248 502.508 361.351 468.64 315.43 296.494C314.895 294.491 306.428 252.392 306.428 252.392L243.675 285.328C243.675 285.328 254.702 357.771 350.818 527.223V527.226Z" fill="black"/>
<path d="M322.972 324.797C322.665 324.797 322.386 324.594 322.301 324.283L316.398 302.687C315.3 298.671 316.018 294.396 318.363 290.96L321.978 285.671C322.193 285.354 322.627 285.271 322.943 285.49C323.26 285.705 323.342 286.14 323.124 286.457L319.509 291.746C317.392 294.846 316.746 298.697 317.737 302.319L323.639 323.916C323.741 324.287 323.522 324.67 323.152 324.771C323.092 324.787 323.029 324.797 322.969 324.797H322.972Z" fill="white"/>
<path d="M361.307 437.78C361.038 437.78 360.782 437.621 360.668 437.358C360.525 437.022 346.273 403.54 340.981 386.717C340.867 386.35 341.07 385.96 341.434 385.846C341.804 385.732 342.19 385.934 342.307 386.299C347.577 403.056 361.804 436.474 361.946 436.81C362.098 437.165 361.934 437.573 361.579 437.722C361.491 437.76 361.399 437.78 361.307 437.78Z" fill="white"/>
<path d="M228.903 173.838C230.096 198.921 233.638 261.504 240.183 286.64C241.025 289.87 244.586 291.553 247.625 290.181C262.579 283.424 305.048 265.38 337.366 262.94C341.972 262.591 345.023 258.005 343.586 253.609C337.395 234.662 323.557 190.192 319.661 159.798C318.553 151.158 311.698 144.499 303.178 143.834C287.447 142.607 262.038 143.507 238.11 156.961C232.132 160.324 228.571 166.882 228.903 173.835V173.838Z" fill="#FF9C40"/>
<path d="M257.411 111.585C257.411 111.585 252.53 101.652 250.812 99.9026C249.09 98.1531 247.761 96.3085 252.822 92.9173C257.882 89.526 271.103 80.4742 279.205 80.5344C287.308 80.5915 292.983 85.7164 290.489 89.4119C287.995 93.1074 286.852 94.6636 288.773 94.9013C290.695 95.139 291.755 97.2879 286.311 100.448C280.864 103.608 261.88 117.318 257.411 111.585Z" fill="black"/>
<path d="M285.152 146.097L282.322 131.039C290.84 126.757 287.409 120.817 286.136 116.076C284.766 110.973 280.544 99.8962 280.544 99.8962C273.555 104.007 259.854 102.78 259.854 102.78C259.854 102.78 261.819 105.915 260.689 107.462C259.563 109.008 260.265 114.941 260.265 114.941C260.265 114.941 257.819 112.637 255.201 114.399C253.729 115.391 255.41 119.623 256.616 121.996C257.822 124.37 260.417 124.836 260.417 124.836C260.417 124.836 260.844 124.58 261.718 126.671L257.068 151.199L247.94 154.993L268.251 157.738C274.66 158.603 281.148 156.879 286.282 152.942L293.558 147.364L285.152 146.097Z" fill="white"/>
<path d="M271.454 158.651C270.356 158.651 269.254 158.578 268.159 158.429L247.849 155.684C247.539 155.643 247.292 155.396 247.254 155.085C247.213 154.774 247.387 154.473 247.678 154.353L256.458 150.702L260.997 126.751C260.645 125.946 260.411 125.635 260.313 125.524C260.307 125.524 260.3 125.524 260.294 125.524C260.174 125.502 257.344 124.966 255.996 122.313C254.939 120.234 252.704 115.242 254.812 113.823C256.493 112.691 258.208 112.973 259.433 113.56C259.284 111.563 259.208 108.311 260.126 107.053C260.816 106.105 259.705 103.864 259.262 103.151C259.123 102.926 259.123 102.644 259.262 102.419C259.402 102.194 259.648 102.067 259.917 102.089C260.054 102.102 273.483 103.246 280.196 99.2972C280.373 99.1926 280.585 99.1736 280.778 99.2402C280.971 99.3067 281.123 99.4589 281.196 99.649C281.37 100.102 285.447 110.818 286.811 115.895C286.979 116.517 287.181 117.157 287.396 117.835C288.767 122.136 290.466 127.467 283.105 131.419L285.747 145.482L293.666 146.677C293.942 146.718 294.166 146.921 294.236 147.19C294.306 147.459 294.208 147.748 293.986 147.916L286.71 153.494C282.345 156.841 276.926 158.647 271.457 158.647L271.454 158.651ZM250.584 154.651L268.343 157.05C274.524 157.887 280.908 156.188 285.858 152.391L291.834 147.811L285.045 146.788C284.754 146.743 284.519 146.518 284.466 146.227L281.636 131.169C281.579 130.864 281.731 130.557 282.006 130.418C288.846 126.979 287.431 122.548 286.067 118.26C285.846 117.566 285.637 116.913 285.463 116.257C284.323 112.01 281.142 103.462 280.174 100.891C274.17 103.963 264.5 103.753 261.047 103.563C261.592 104.764 262.161 106.622 261.247 107.874C260.582 108.786 260.674 112.507 260.952 114.859C260.987 115.151 260.835 115.429 260.576 115.563C260.313 115.693 260 115.648 259.788 115.448C259.705 115.372 257.702 113.553 255.588 114.976C254.958 115.401 255.407 118.085 257.237 121.68C258.145 123.467 260.016 124.022 260.452 124.129C260.547 124.129 260.655 124.142 260.756 124.177C261.12 124.297 261.633 124.659 262.361 126.402C262.415 126.529 262.427 126.665 262.402 126.801L257.753 151.329C257.708 151.561 257.553 151.754 257.335 151.843L250.584 154.648V154.651ZM260.772 125.432C260.743 125.448 260.715 125.464 260.687 125.476C260.715 125.464 260.743 125.451 260.772 125.432Z" fill="black"/>
<path d="M274.479 133.517C266.709 133.517 263.816 127.508 263.778 127.429C263.617 127.08 263.769 126.665 264.117 126.507C264.465 126.345 264.877 126.497 265.038 126.846C265.212 127.216 269.381 135.717 282.05 130.399C282.405 130.25 282.813 130.418 282.959 130.773C283.107 131.127 282.94 131.533 282.585 131.682C279.433 133.007 276.746 133.517 274.473 133.517H274.479Z" fill="black"/>
<path d="M254.163 106.755L256.765 114.368C256.765 114.368 273.321 124.279 293.033 120.266C295.736 119.715 297.455 117.04 296.844 114.346L295.325 100.955C294.72 98.2863 292.058 96.6255 289.4 97.2531L254.16 106.755H254.163Z" fill="#51C3EB"/>
<path d="M272.897 115.829C272.72 115.829 272.542 115.762 272.406 115.626C272.134 115.353 272.134 114.913 272.406 114.64L278.721 108.317C278.993 108.045 279.433 108.045 279.705 108.317C279.977 108.59 279.977 109.031 279.705 109.303L273.391 115.626C273.255 115.762 273.077 115.829 272.9 115.829H272.897Z" fill="white"/>
<path d="M282.323 114.602C282.145 114.602 281.968 114.536 281.832 114.399C281.56 114.127 281.56 113.686 281.832 113.414L291.289 103.947C291.561 103.674 292.001 103.674 292.274 103.947C292.546 104.219 292.546 104.66 292.274 104.932L282.82 114.399C282.683 114.536 282.506 114.602 282.329 114.602H282.323Z" fill="white"/>
<path d="M165.46 497.155C165.46 497.155 165.448 497.155 165.441 497.155C143.707 496.575 129.891 490.854 124.375 480.148L5.10916 248.633C4.93192 248.291 5.06801 247.872 5.40667 247.695C5.7485 247.517 6.16629 247.654 6.34353 247.993C12.8572 260.639 32.3159 266.096 62.6118 263.776C92.4203 261.491 130.648 251.872 173.167 235.962C181.785 232.735 191.464 236.481 195.683 244.668L298.797 444.825C301.187 449.462 301.472 454.913 299.579 459.778C297.683 464.65 293.784 468.478 288.878 470.279C276.56 474.801 264.431 478.845 252.831 482.297C252.464 482.408 252.078 482.196 251.967 481.828C251.857 481.46 252.069 481.07 252.436 480.963C264.007 477.517 276.107 473.486 288.397 468.973C292.926 467.309 296.531 463.775 298.282 459.274C300.029 454.783 299.766 449.75 297.56 445.465L194.446 245.308C190.549 237.746 181.611 234.288 173.651 237.268C123.359 256.091 80.3266 265.684 49.9991 265.688C31.474 265.688 17.6902 262.109 9.88206 254.867L125.609 479.511C130.8 489.587 144.587 495.209 165.476 495.764C165.859 495.773 166.163 496.093 166.153 496.477C166.144 496.854 165.834 497.155 165.46 497.155Z" fill="#51C3EB"/>
<path d="M223.304 490.068C222.988 490.068 222.7 489.85 222.627 489.526C222.542 489.152 222.776 488.778 223.149 488.693C232.464 486.576 242.317 483.973 252.432 480.963C252.799 480.852 253.186 481.064 253.296 481.432C253.407 481.799 253.195 482.189 252.828 482.297C242.684 485.317 232.803 487.926 223.459 490.049C223.409 490.062 223.355 490.068 223.304 490.068Z" fill="white"/>
<path d="M186.663 496.264C186.309 496.264 186.008 495.995 185.973 495.637C185.935 495.253 186.214 494.914 186.597 494.876C197.662 493.773 209.958 491.694 223.153 488.693C223.53 488.607 223.9 488.842 223.985 489.216C224.071 489.59 223.837 489.964 223.463 490.049C210.214 493.063 197.858 495.152 186.736 496.258C186.714 496.258 186.688 496.261 186.666 496.261L186.663 496.264Z" fill="black"/>
<path d="M169.03 497.203C167.812 497.203 166.615 497.187 165.441 497.155C165.058 497.146 164.754 496.825 164.764 496.442C164.773 496.058 165.093 495.751 165.476 495.764C171.869 495.935 178.972 495.634 186.593 494.876C186.976 494.838 187.315 495.117 187.353 495.501C187.391 495.884 187.112 496.223 186.729 496.261C180.447 496.886 174.509 497.203 169.027 497.203H169.03Z" fill="white"/>
<path d="M358.738 438.502C352.119 438.502 345.707 434.895 342.498 428.668C342.32 428.325 342.457 427.907 342.798 427.729C343.137 427.552 343.558 427.688 343.735 428.027C347.907 436.128 357.956 439.424 366.125 435.383C370.645 433.146 375.215 430.835 379.709 428.515C438.965 397.905 491.242 362.481 526.909 328.768C562.377 295.242 577.142 267.529 568.489 250.731L452.778 26.1222C455.069 43.6394 439.747 68.8171 408.593 98.264C372.835 132.062 320.447 167.569 261.077 198.236C256.731 200.48 252.316 202.715 247.958 204.876C243.9 206.889 240.887 210.369 239.472 214.679C238.054 218.999 238.421 223.601 240.504 227.642L274.573 293.778C274.75 294.12 274.614 294.539 274.275 294.716C273.933 294.894 273.515 294.757 273.338 294.418L239.27 228.282C237.016 223.905 236.617 218.923 238.152 214.245C239.684 209.576 242.947 205.808 247.344 203.631C251.696 201.475 256.101 199.244 260.444 197.003C319.7 166.393 371.977 130.969 407.644 97.2561C443.083 63.7556 457.857 36.0582 449.242 19.2573L449.223 19.2192C449.046 18.8769 449.182 18.4586 449.524 18.2811C449.863 18.1036 450.284 18.2399 450.461 18.579L569.726 250.094C578.69 267.494 563.823 295.794 527.865 329.782C492.107 363.581 439.719 399.087 380.349 429.755C375.848 432.081 371.268 434.395 366.742 436.635C364.178 437.903 361.444 438.505 358.741 438.505L358.738 438.502Z" fill="#0484BB"/>
<path d="M343.117 429.045C342.864 429.045 342.624 428.908 342.5 428.667L319.171 383.38C318.993 383.038 319.129 382.619 319.471 382.442C319.813 382.264 320.231 382.401 320.408 382.74L343.738 428.027C343.915 428.37 343.779 428.788 343.437 428.965C343.336 429.019 343.228 429.045 343.121 429.045H343.117Z" fill="white"/>
<path d="M319.785 383.757C319.531 383.757 319.291 383.621 319.167 383.38L309.242 364.113C309.065 363.771 309.201 363.353 309.543 363.175C309.881 362.998 310.302 363.134 310.479 363.473L320.405 382.74C320.582 383.082 320.446 383.5 320.104 383.678C320.003 383.732 319.895 383.754 319.788 383.754L319.785 383.757Z" fill="black"/>
<path d="M309.859 364.487C309.606 364.487 309.365 364.351 309.242 364.11L273.338 294.415C273.16 294.073 273.297 293.654 273.635 293.477C273.974 293.299 274.395 293.436 274.572 293.775L310.476 363.47C310.654 363.812 310.518 364.23 310.176 364.408C310.074 364.462 309.967 364.487 309.859 364.487Z" fill="white"/>
<path d="M274.386 227.604C274.132 227.604 273.892 227.468 273.768 227.227C273.591 226.885 273.727 226.466 274.066 226.289C368.046 177.74 443.266 117.195 461.244 75.6282C461.396 75.2764 461.801 75.1116 462.159 75.2669C462.51 75.419 462.671 75.8279 462.519 76.1828C444.425 118.022 368.945 178.843 274.702 227.528C274.601 227.582 274.49 227.604 274.386 227.604Z" fill="#51C3EB"/>
<path d="M285.719 251.631C285.466 251.631 285.226 251.495 285.102 251.254C284.925 250.912 285.061 250.493 285.4 250.316C379.38 201.767 454.603 141.222 472.581 99.6554C472.733 99.3036 473.141 99.1388 473.496 99.2941C473.847 99.4462 474.008 99.8551 473.857 100.21C455.762 142.049 380.282 202.87 286.039 251.555C285.938 251.609 285.827 251.634 285.723 251.634L285.719 251.631Z" fill="#51C3EB"/>
<path d="M327.141 259.368C326.897 259.368 326.663 259.241 326.536 259.016C326.346 258.68 326.463 258.255 326.799 258.068C350.265 244.75 372.303 230.761 392.306 216.489C392.619 216.267 393.053 216.34 393.275 216.651C393.496 216.964 393.423 217.399 393.113 217.62C373.072 231.921 350.989 245.936 327.486 259.279C327.378 259.339 327.261 259.371 327.144 259.371L327.141 259.368Z" fill="#51C3EB"/>
<path d="M408.903 205.786C408.694 205.786 408.488 205.691 408.349 205.513C408.115 205.209 408.175 204.772 408.479 204.537C447.495 174.669 474.284 145.954 483.915 123.686C484.067 123.334 484.478 123.172 484.829 123.324C485.181 123.477 485.342 123.889 485.19 124.24C475.467 146.724 448.523 175.635 409.324 205.646C409.197 205.742 409.049 205.789 408.903 205.789V205.786Z" fill="#51C3EB"/>
<path d="M368.135 265.732C367.904 265.732 367.676 265.615 367.543 265.405C367.34 265.079 367.438 264.651 367.764 264.445C391.075 249.872 412.265 234.906 430.749 219.969C431.05 219.728 431.486 219.776 431.727 220.074C431.967 220.371 431.92 220.812 431.622 221.053C413.097 236.025 391.86 251.023 368.502 265.624C368.388 265.697 368.261 265.729 368.135 265.729V265.732Z" fill="#51C3EB"/>
<path d="M443.884 210.572C443.691 210.572 443.498 210.489 443.359 210.331C443.105 210.039 443.137 209.602 443.428 209.348C469.815 186.408 487.736 165.094 495.253 147.71C495.405 147.358 495.81 147.193 496.167 147.348C496.519 147.501 496.68 147.913 496.528 148.264C488.929 165.836 470.882 187.324 444.34 210.4C444.21 210.515 444.045 210.572 443.884 210.572Z" fill="#51C3EB"/>
<path d="M331.065 347.746C330.812 347.746 330.571 347.61 330.448 347.369C330.271 347.027 330.407 346.609 330.749 346.431C335.037 344.216 339.367 341.934 343.621 339.645C343.96 339.465 344.38 339.592 344.561 339.931C344.741 340.27 344.615 340.691 344.276 340.872C340.016 343.163 335.68 345.449 331.385 347.667C331.284 347.721 331.176 347.743 331.068 347.743L331.065 347.746Z" fill="black"/>
<path d="M343.947 340.954C343.7 340.954 343.46 340.821 343.333 340.587C343.153 340.248 343.279 339.826 343.618 339.645C357.278 332.302 370.704 324.604 383.532 316.769C383.858 316.569 384.286 316.674 384.488 317C384.688 317.33 384.583 317.758 384.257 317.957C371.41 325.805 357.959 333.516 344.276 340.872C344.172 340.929 344.058 340.954 343.947 340.954Z" fill="white"/>
<path d="M383.896 318.059C383.662 318.059 383.434 317.941 383.301 317.726C383.102 317.396 383.207 316.968 383.533 316.769C417.725 295.882 448.204 273.646 471.676 252.468C494.983 231.439 510.976 211.833 517.924 195.767C518.076 195.416 518.484 195.254 518.838 195.406C519.19 195.558 519.351 195.97 519.199 196.322C504.773 229.68 454.328 275.151 384.254 317.957C384.14 318.027 384.017 318.059 383.893 318.059H383.896Z" fill="#51C3EB"/>
<path d="M342.402 371.774C342.149 371.774 341.908 371.637 341.785 371.396C341.608 371.054 341.744 370.636 342.086 370.458C356.907 362.801 371.505 354.725 385.475 346.45C385.804 346.254 386.232 346.365 386.428 346.694C386.624 347.024 386.513 347.452 386.184 347.648C372.192 355.936 357.569 364.028 342.725 371.698C342.624 371.751 342.516 371.777 342.408 371.777L342.402 371.774Z" fill="white"/>
<path d="M385.827 347.746C385.59 347.746 385.359 347.623 385.229 347.404C385.033 347.075 385.144 346.647 385.473 346.45C459.288 302.725 514.385 254.195 529.264 219.798C529.416 219.446 529.821 219.281 530.179 219.436C530.53 219.589 530.692 220.001 530.54 220.352C515.553 255.007 460.238 303.784 386.182 347.651C386.071 347.718 385.947 347.75 385.827 347.75V347.746Z" fill="#51C3EB"/>
<path d="M353.736 395.804C353.483 395.804 353.242 395.668 353.119 395.427C352.942 395.085 353.078 394.666 353.42 394.489C362.089 390.01 370.739 385.358 379.132 380.658C379.468 380.471 379.892 380.591 380.079 380.924C380.265 381.26 380.145 381.684 379.813 381.871C371.407 386.578 362.741 391.237 354.059 395.725C353.958 395.779 353.85 395.804 353.742 395.804H353.736Z" fill="black"/>
<path d="M379.471 381.963C379.227 381.963 378.99 381.833 378.863 381.608C378.677 381.272 378.797 380.848 379.129 380.661C461.117 334.761 524.497 281.053 540.598 243.828C540.75 243.476 541.161 243.315 541.512 243.467C541.864 243.619 542.025 244.031 541.873 244.383C533.932 262.743 514.704 285.246 486.266 309.457C457.499 333.95 420.686 358.991 379.807 381.878C379.699 381.938 379.582 381.966 379.468 381.966L379.471 381.963Z" fill="#51C3EB"/>
<path d="M435.02 448.781C434.786 448.781 434.555 448.66 434.425 448.445C434.226 448.115 434.33 447.687 434.66 447.487C437.046 446.036 439.413 444.581 441.759 443.126C442.085 442.924 442.512 443.025 442.715 443.351C442.917 443.678 442.816 444.106 442.49 444.309C440.141 445.766 437.771 447.221 435.381 448.676C435.267 448.746 435.144 448.777 435.02 448.777V448.781ZM449.19 439.985C448.959 439.985 448.735 439.871 448.602 439.662C448.396 439.339 448.491 438.908 448.817 438.702C451.178 437.203 453.517 435.707 455.831 434.204C456.153 433.995 456.584 434.087 456.793 434.411C457.002 434.734 456.91 435.165 456.587 435.374C454.27 436.876 451.928 438.379 449.564 439.878C449.45 439.951 449.32 439.985 449.193 439.985H449.19ZM463.183 430.915C462.958 430.915 462.737 430.804 462.604 430.604C462.392 430.284 462.48 429.853 462.8 429.641C465.133 428.094 467.44 426.547 469.719 425.001C470.035 424.785 470.469 424.867 470.684 425.188C470.899 425.505 470.817 425.939 470.497 426.154C468.215 427.704 465.905 429.254 463.566 430.804C463.449 430.883 463.316 430.921 463.183 430.921V430.915ZM476.983 421.546C476.764 421.546 476.546 421.441 476.41 421.248C476.191 420.931 476.271 420.5 476.584 420.278C478.863 418.693 481.157 417.08 483.401 415.48C483.715 415.258 484.148 415.331 484.37 415.645C484.591 415.958 484.519 416.392 484.208 416.614C481.961 418.218 479.663 419.834 477.378 421.422C477.258 421.505 477.119 421.546 476.983 421.546ZM490.573 411.857C490.358 411.857 490.149 411.759 490.01 411.572C489.785 411.261 489.852 410.827 490.162 410.599C492.425 408.941 494.675 407.271 496.856 405.632C497.163 405.401 497.6 405.464 497.831 405.772C498.062 406.079 497.999 406.517 497.692 406.745C495.508 408.387 493.251 410.063 490.982 411.721C490.858 411.813 490.716 411.854 490.573 411.854V411.857Z" fill="#51C3EB"/>
<path d="M497.274 406.884C497.062 406.884 496.853 406.789 496.717 406.605C496.486 406.298 496.55 405.861 496.857 405.632L497.024 405.506C497.331 405.274 497.768 405.338 497.996 405.645C498.227 405.952 498.164 406.39 497.857 406.618L497.689 406.745C497.566 406.84 497.417 406.884 497.274 406.884ZM504.073 401.696C503.864 401.696 503.658 401.604 503.522 401.427C503.288 401.122 503.342 400.685 503.646 400.45C505.849 398.742 508.051 397.008 510.197 395.297C510.498 395.056 510.935 395.107 511.175 395.408C511.416 395.709 511.365 396.146 511.065 396.387C508.915 398.105 506.706 399.842 504.497 401.553C504.37 401.652 504.222 401.699 504.073 401.699V401.696Z" fill="white"/>
<path d="M516.024 392.166C515.824 392.166 515.622 392.08 515.486 391.912C515.242 391.614 515.286 391.177 515.581 390.933C517.765 389.139 519.917 387.342 521.974 385.589C522.269 385.339 522.705 385.377 522.955 385.668C523.202 385.96 523.167 386.4 522.876 386.651C520.809 388.407 518.654 390.21 516.464 392.007C516.334 392.115 516.179 392.166 516.024 392.166Z" fill="#51C3EB"/>
<path d="M528.042 381.963C527.849 381.963 527.656 381.884 527.519 381.726C527.266 381.437 527.295 380.997 527.583 380.743C529.694 378.886 531.78 377.016 533.783 375.181C534.065 374.921 534.505 374.94 534.764 375.225C535.024 375.507 535.002 375.948 534.72 376.208C532.71 378.049 530.615 379.928 528.497 381.789C528.365 381.906 528.203 381.963 528.039 381.963H528.042Z" fill="white"/>
<path d="M534.252 376.391C534.065 376.391 533.875 376.315 533.739 376.166C533.48 375.884 533.502 375.444 533.783 375.184C535.141 373.938 536.477 372.699 537.787 371.463C538.066 371.2 538.506 371.213 538.768 371.492C539.031 371.77 539.019 372.211 538.74 372.474C537.426 373.713 536.084 374.959 534.72 376.208C534.587 376.331 534.42 376.391 534.252 376.391ZM544.266 366.864C544.086 366.864 543.909 366.795 543.772 366.658C543.503 366.386 543.503 365.945 543.779 365.673C545.779 363.695 547.745 361.698 549.618 359.736C549.884 359.457 550.324 359.451 550.599 359.714C550.878 359.98 550.887 360.421 550.622 360.697C548.738 362.665 546.763 364.674 544.757 366.661C544.621 366.795 544.443 366.861 544.269 366.861L544.266 366.864ZM555.796 354.798C555.632 354.798 555.464 354.738 555.331 354.621C555.046 354.364 555.021 353.924 555.281 353.638C557.173 351.531 559.006 349.417 560.731 347.35C560.978 347.055 561.414 347.014 561.709 347.262C562.003 347.509 562.041 347.946 561.797 348.241C560.063 350.32 558.218 352.447 556.312 354.567C556.176 354.719 555.986 354.798 555.796 354.798ZM566.478 341.975C566.33 341.975 566.184 341.927 566.058 341.832C565.754 341.598 565.694 341.16 565.928 340.856C567.662 338.587 569.302 336.324 570.805 334.128C571.023 333.811 571.454 333.728 571.77 333.947C572.087 334.166 572.166 334.597 571.951 334.914C570.435 337.129 568.779 339.411 567.029 341.699C566.893 341.877 566.684 341.972 566.475 341.972L566.478 341.975ZM575.876 328.185C575.755 328.185 575.632 328.153 575.521 328.087C575.192 327.89 575.081 327.462 575.277 327.133C576.746 324.657 578.069 322.204 579.215 319.84C579.382 319.494 579.797 319.349 580.142 319.517C580.487 319.685 580.633 320.1 580.465 320.445C579.303 322.844 577.958 325.332 576.471 327.839C576.341 328.058 576.11 328.182 575.872 328.182L575.876 328.185Z" fill="#51C3EB"/>
<path d="M71.4513 576.913C69.1598 576.913 66.8873 576.875 64.7066 576.802C64.3236 576.789 64.0229 576.466 64.0356 576.083C64.0483 575.699 64.3648 575.401 64.7541 575.411C67.4317 575.499 70.2233 575.534 73.0655 575.515C73.4358 575.496 73.7618 575.823 73.765 576.206C73.765 576.59 73.458 576.903 73.075 576.907C72.5306 576.91 71.9925 576.913 71.4545 576.913H71.4513ZM81.4054 576.697C81.0351 576.697 80.7281 576.406 80.7122 576.032C80.6964 575.648 80.9939 575.322 81.3769 575.306C84.0704 575.192 86.8651 575.03 89.682 574.828C90.0681 574.799 90.3973 575.087 90.4258 575.471C90.4543 575.854 90.1663 576.187 89.7833 576.216C86.9537 576.422 84.1432 576.58 81.437 576.694C81.4276 576.694 81.4181 576.694 81.4086 576.694L81.4054 576.697ZM56.4047 576.323C56.3857 576.323 56.3667 576.323 56.3477 576.323C53.4706 576.086 50.6696 575.769 48.0204 575.385C47.6406 575.331 47.3779 574.976 47.4317 574.596C47.4855 574.216 47.84 573.953 48.2198 574.007C50.8405 574.387 53.6162 574.698 56.4648 574.935C56.8478 574.967 57.1326 575.303 57.101 575.686C57.0693 576.051 56.7655 576.323 56.4078 576.323H56.4047ZM98.0409 575.506C97.6864 575.506 97.3857 575.236 97.3509 574.878C97.3129 574.495 97.5915 574.156 97.9744 574.118C100.665 573.851 103.45 573.544 106.248 573.202C106.628 573.157 106.976 573.427 107.023 573.807C107.071 574.187 106.799 574.536 106.419 574.583C103.608 574.929 100.813 575.236 98.1105 575.503C98.0884 575.503 98.0631 575.506 98.0409 575.506ZM39.9147 573.893C39.8641 573.893 39.8135 573.886 39.7628 573.877C36.9048 573.233 34.1765 572.479 31.6603 571.633C31.2963 571.509 31.1001 571.116 31.2235 570.752C31.3469 570.387 31.7426 570.191 32.1034 570.314C34.5753 571.145 37.2561 571.886 40.0698 572.52C40.4433 572.606 40.6807 572.977 40.5952 573.351C40.5224 573.674 40.2344 573.896 39.9179 573.896L39.9147 573.893ZM114.6 573.484C114.259 573.484 113.964 573.233 113.914 572.888C113.86 572.508 114.123 572.156 114.502 572.099C117.199 571.712 119.968 571.284 122.735 570.831C123.111 570.768 123.469 571.027 123.532 571.405C123.596 571.785 123.336 572.143 122.959 572.203C120.187 572.656 117.408 573.084 114.702 573.474C114.667 573.481 114.635 573.481 114.604 573.481L114.6 573.484ZM131.065 570.796C130.736 570.796 130.442 570.562 130.381 570.226C130.312 569.848 130.565 569.484 130.942 569.417C133.632 568.929 136.382 568.406 139.126 567.861C139.5 567.788 139.87 568.032 139.943 568.41C140.016 568.787 139.772 569.151 139.395 569.227C136.648 569.772 133.885 570.298 131.188 570.787C131.147 570.793 131.106 570.799 131.065 570.799V570.796ZM24.1749 568.498C24.0705 568.498 23.966 568.473 23.8648 568.425C21.2061 567.091 18.7912 565.586 16.6864 563.947C16.3826 563.712 16.3288 563.275 16.563 562.971C16.7972 562.667 17.234 562.613 17.5378 562.847C19.5698 564.429 21.9088 565.887 24.4883 567.18C24.8301 567.351 24.9694 567.769 24.7984 568.115C24.6782 568.359 24.4313 568.498 24.1749 568.498ZM147.428 567.554C147.109 567.554 146.821 567.329 146.748 567.002C146.669 566.625 146.906 566.257 147.283 566.175C149.954 565.605 152.692 564.996 155.417 564.375C155.79 564.289 156.164 564.524 156.249 564.898C156.335 565.272 156.101 565.646 155.727 565.731C152.996 566.356 150.252 566.964 147.574 567.538C147.527 567.547 147.476 567.554 147.428 567.554ZM163.694 563.836C163.38 563.836 163.095 563.624 163.019 563.304C162.928 562.93 163.159 562.552 163.532 562.464C166.194 561.817 168.916 561.139 171.619 560.448C171.992 560.353 172.369 560.578 172.464 560.949C172.559 561.323 172.334 561.7 171.964 561.795C169.255 562.489 166.529 563.167 163.861 563.817C163.808 563.83 163.751 563.836 163.697 563.836H163.694ZM179.854 559.7C179.547 559.7 179.266 559.494 179.183 559.183C179.085 558.813 179.304 558.429 179.674 558.331C182.323 557.618 185.029 556.876 187.71 556.122C188.08 556.02 188.463 556.233 188.568 556.604C188.672 556.974 188.457 557.358 188.087 557.462C185.4 558.217 182.69 558.962 180.035 559.675C179.975 559.69 179.914 559.7 179.854 559.7ZM11.252 558.191C11.04 558.191 10.8311 558.096 10.695 557.912C9.51441 556.34 8.50476 554.654 7.68818 552.898C7.31153 552.084 6.96971 551.244 6.67219 550.395C6.54559 550.033 6.7355 549.634 7.09948 549.507C7.46029 549.38 7.85909 549.571 7.98569 549.935C8.26738 550.74 8.59022 551.539 8.95103 552.312C9.72647 553.979 10.6855 555.583 11.8091 557.076C12.0401 557.383 11.9768 557.821 11.6698 558.049C11.5432 558.144 11.3976 558.188 11.252 558.188V558.191ZM195.917 555.187C195.616 555.187 195.338 554.99 195.249 554.686C195.142 554.318 195.354 553.932 195.721 553.824C198.367 553.051 201.029 552.255 203.706 551.441C204.07 551.33 204.463 551.536 204.573 551.903C204.684 552.271 204.478 552.661 204.111 552.772C201.427 553.586 198.762 554.385 196.11 555.158C196.044 555.177 195.98 555.187 195.914 555.187H195.917ZM211.878 550.334C211.584 550.334 211.309 550.144 211.217 549.846C211.103 549.479 211.305 549.089 211.673 548.975C214.306 548.144 216.952 547.298 219.611 546.433C219.975 546.316 220.367 546.515 220.487 546.88C220.604 547.244 220.405 547.637 220.041 547.758C217.376 548.626 214.727 549.476 212.09 550.306C212.021 550.328 211.951 550.338 211.882 550.338L211.878 550.334ZM227.745 545.168C227.454 545.168 227.185 544.984 227.086 544.693C226.963 544.328 227.159 543.935 227.523 543.812C230.141 542.931 232.771 542.034 235.414 541.121C235.774 540.994 236.173 541.188 236.297 541.552C236.423 541.916 236.23 542.313 235.866 542.436C233.22 543.352 230.587 544.252 227.966 545.133C227.893 545.159 227.818 545.168 227.745 545.168ZM5.76382 542.693C5.39668 542.693 5.08967 542.405 5.07068 542.031C5.04219 541.466 5.02637 540.893 5.02637 540.319C5.02637 538.158 5.22893 535.888 5.63089 533.568C5.69736 533.191 6.05501 532.934 6.43482 533.001C6.81462 533.068 7.06783 533.426 7.00136 533.806C6.61522 536.047 6.41899 538.237 6.41899 540.319C6.41899 540.871 6.43165 541.419 6.46014 541.961C6.47913 542.344 6.18478 542.671 5.8018 542.69C5.78914 542.69 5.77648 542.69 5.76699 542.69L5.76382 542.693ZM8.4193 526.317C8.34334 526.317 8.26738 526.304 8.19458 526.279C7.8306 526.155 7.63754 525.759 7.76414 525.394C8.62503 522.881 9.70431 520.26 10.9672 517.604C11.1318 517.255 11.5464 517.11 11.8945 517.274C12.2395 517.439 12.3883 517.854 12.2237 518.203C10.983 520.811 9.9227 523.382 9.0808 525.844C8.98268 526.133 8.71365 526.314 8.42247 526.314L8.4193 526.317ZM15.5153 511.234C15.3951 511.234 15.2748 511.202 15.164 511.138C14.8317 510.945 14.7209 510.517 14.9172 510.184C16.2686 507.877 17.7784 505.491 19.4084 503.095C19.6236 502.778 20.0572 502.695 20.3737 502.911C20.6902 503.126 20.7725 503.56 20.5573 503.877C18.9463 506.251 17.4524 508.609 16.1167 510.891C15.9869 511.113 15.7559 511.237 15.5153 511.237V511.234ZM24.8554 497.405C24.7098 497.405 24.5611 497.358 24.4345 497.263C24.1275 497.031 24.0705 496.594 24.3015 496.287C25.9315 494.141 27.685 491.935 29.5144 489.729C29.7612 489.434 30.198 489.393 30.4924 489.64C30.7867 489.888 30.8279 490.325 30.5842 490.62C28.7674 492.807 27.0266 494.997 25.4061 497.13C25.27 497.31 25.0611 497.405 24.8523 497.405H24.8554ZM35.5058 484.554C35.3412 484.554 35.1767 484.497 35.0437 484.376C34.7589 484.119 34.7335 483.679 34.9899 483.394C36.7972 481.371 38.7089 479.305 40.668 477.248C40.9339 476.969 41.3738 476.96 41.6524 477.226C41.9309 477.492 41.9404 477.933 41.6745 478.208C39.7248 480.256 37.8226 482.313 36.0249 484.322C35.8888 484.474 35.6989 484.554 35.5058 484.554ZM47.0108 472.462C46.8304 472.462 46.6531 472.393 46.517 472.256C46.248 471.984 46.248 471.543 46.5202 471.271C48.4509 469.35 50.4733 467.394 52.5275 465.452C52.806 465.189 53.2459 465.198 53.5086 465.48C53.7713 465.759 53.7587 466.2 53.4801 466.463C51.4355 468.396 49.4226 470.348 47.4982 472.259C47.3621 472.393 47.1849 472.462 47.0076 472.462H47.0108ZM59.1329 460.986C58.943 460.986 58.7531 460.91 58.617 460.758C58.3607 460.472 58.3828 460.032 58.6677 459.775C60.6965 457.94 62.7981 456.073 64.9218 454.226C65.213 453.972 65.6498 454.004 65.903 454.295C66.1562 454.587 66.1245 455.024 65.8333 455.278C63.7191 457.116 61.6207 458.977 59.6014 460.808C59.4684 460.929 59.3007 460.989 59.1361 460.989L59.1329 460.986ZM71.7235 450.026C71.5241 450.026 71.3279 449.941 71.1918 449.776C70.9449 449.481 70.9829 449.04 71.2772 448.796C72.5654 447.716 73.8726 446.632 75.1924 445.545C75.4899 445.301 75.9267 445.345 76.1704 445.643C76.4141 445.941 76.3698 446.378 76.0723 446.622C74.7525 447.706 73.4516 448.784 72.1666 449.864C72.0368 449.972 71.8786 450.026 71.7203 450.026H71.7235Z" fill="#51C3EB"/>
<path d="M135.047 49.3253C129.277 39.2086 116.594 35.8395 106.947 41.9818C97.5408 47.972 94.6923 60.526 100.5 70.367C103.298 75.1116 107.596 78.3507 112.413 79.7389C116.11 80.8038 119.282 83.2886 121.231 86.7052L122.39 88.7336C123.346 90.4103 125.431 90.9871 127.049 90.0204L138.845 82.9653C140.462 81.9987 140.994 79.8562 140.038 78.1795L138.886 76.1606C136.965 72.7916 136.319 68.7823 137.253 65.0265C138.528 59.8985 137.87 54.2791 135.047 49.3285V49.3253Z" fill="#FF9C40"/>
<path d="M135.771 100.628C135.008 100.628 134.239 100.53 133.48 100.33C131.062 99.6934 129.03 98.1214 127.764 95.9028L124.963 90.9902C124.776 90.6606 124.883 90.2423 125.209 90.0489L139.788 81.3331C139.949 81.238 140.139 81.2095 140.319 81.257C140.5 81.3046 140.655 81.4218 140.747 81.5835L143.548 86.496C146.115 90.9934 144.668 96.7649 140.329 99.3638C138.927 100.204 137.36 100.632 135.771 100.632V100.628ZM126.51 90.892L128.973 95.2119C130.052 97.104 131.777 98.4447 133.834 98.9835C135.812 99.5032 137.866 99.2117 139.617 98.1658C143.313 95.9567 144.535 91.0283 142.342 87.1838L139.892 82.8893L126.51 90.892Z" fill="#FF9C40"/>
<path d="M100.294 29.2187C100.054 29.2187 99.8195 29.0919 99.6897 28.87L89.4697 11.0168C89.2798 10.684 89.3938 10.2593 89.7261 10.066C90.0584 9.87584 90.4826 9.98993 90.6756 10.3227L100.896 28.1759C101.085 28.5087 100.972 28.9334 100.639 29.1268C100.532 29.1902 100.411 29.2187 100.294 29.2187Z" fill="#FF9C40"/>
<path d="M66.5518 95.4528C66.3113 95.4528 66.077 95.326 65.9473 95.101C65.7574 94.7682 65.8713 94.3435 66.2037 94.1502L89.4351 80.8292C89.7706 80.639 90.1916 80.7531 90.3847 81.0859C90.5746 81.4187 90.4606 81.8434 90.1283 82.0367L66.8968 95.3577C66.7892 95.4211 66.6689 95.4496 66.5518 95.4496V95.4528Z" fill="#FF9C40"/>
<path d="M149.634 48.4474C149.39 48.4474 149.153 48.3174 149.026 48.0892C148.84 47.7533 148.96 47.3286 149.295 47.1416L173.321 33.7224C173.657 33.5354 174.081 33.6558 174.268 33.9918C174.454 34.3277 174.334 34.7524 173.999 34.9394L149.973 48.3586C149.865 48.4189 149.748 48.4474 149.634 48.4474Z" fill="#FF9C40"/>
<path d="M83.048 54.7355C82.9847 54.7355 82.9214 54.726 82.8581 54.7102L60.2565 48.327C59.8862 48.2224 59.6709 47.8389 59.7754 47.4681C59.8798 47.0973 60.2628 46.8818 60.6331 46.9864L83.2348 53.3695C83.6051 53.4741 83.8203 53.8576 83.7158 54.2284C83.6304 54.5359 83.3519 54.7355 83.048 54.7355Z" fill="#FF9C40"/>
<path d="M130.302 29.1426C130.242 29.1426 130.179 29.1331 130.116 29.1173C129.745 29.0158 129.53 28.6323 129.631 28.2615L136.224 4.34523C136.326 3.97441 136.709 3.75889 137.079 3.86031C137.449 3.96173 137.664 4.34523 137.563 4.71605L130.97 28.6323C130.885 28.9398 130.606 29.1426 130.299 29.1426H130.302Z" fill="#FF9C40"/>
<path d="M538.287 109.509C538.12 109.509 537.952 109.449 537.819 109.328C537.534 109.068 537.515 108.628 537.775 108.346C538.651 107.382 539.515 106.425 540.364 105.471C540.617 105.183 541.057 105.157 541.345 105.414C541.633 105.671 541.658 106.108 541.402 106.397C540.55 107.357 539.683 108.321 538.8 109.287C538.664 109.436 538.474 109.515 538.287 109.515V109.509ZM546.33 100.305C546.171 100.305 546.013 100.251 545.883 100.143C545.589 99.8962 545.551 99.4589 545.795 99.1641C547.612 96.9899 549.371 94.8094 551.02 92.6859C551.258 92.3816 551.691 92.3277 551.995 92.5622C552.299 92.7968 552.353 93.2342 552.115 93.5384C550.457 95.6746 548.688 97.8678 546.861 100.055C546.722 100.22 546.526 100.305 546.327 100.305H546.33ZM556.553 87.1109C556.414 87.1109 556.271 87.0697 556.151 86.9809C555.838 86.7591 555.765 86.3249 555.989 86.0111C557.642 83.6879 559.208 81.3711 560.642 79.124C560.851 78.8007 561.278 78.7056 561.601 78.9117C561.924 79.1177 562.019 79.5487 561.813 79.872C560.367 82.1381 558.787 84.4771 557.123 86.8193C556.986 87.0095 556.774 87.1109 556.556 87.1109H556.553ZM565.504 73.0261C565.39 73.0261 565.276 72.9976 565.168 72.9373C564.833 72.7503 564.709 72.3288 564.896 71.9897C566.289 69.4732 567.545 66.982 568.627 64.586C568.786 64.2373 569.197 64.0789 569.549 64.2405C569.897 64.399 570.052 64.811 569.894 65.1628C568.795 67.5906 567.52 70.1166 566.111 72.6648C565.985 72.893 565.747 73.0229 565.504 73.0229V73.0261ZM572.315 57.8066C572.242 57.8066 572.169 57.7939 572.096 57.7718C571.732 57.6513 571.533 57.2583 571.653 56.8938C572.562 54.1428 573.245 51.4583 573.688 48.9101C573.755 48.533 574.109 48.2794 574.492 48.3428C574.869 48.4094 575.122 48.7707 575.059 49.1478C574.603 51.7626 573.904 54.5168 572.973 57.3312C572.878 57.6228 572.606 57.8098 572.315 57.8098V57.8066ZM575.002 41.4145C574.628 41.4145 574.321 41.1166 574.309 40.7426C574.214 37.9155 573.771 35.2152 572.983 32.7177C572.869 32.35 573.071 31.9602 573.435 31.8429C573.799 31.7256 574.192 31.9317 574.309 32.2961C575.135 34.9141 575.603 37.7412 575.698 40.695C575.711 41.0785 575.41 41.4018 575.027 41.4145C575.018 41.4145 575.011 41.4145 575.005 41.4145H575.002ZM402.139 28.8478C401.842 28.8478 401.567 28.6577 401.475 28.3566C401.361 27.9889 401.567 27.5991 401.934 27.485C404.596 26.6609 407.283 25.8464 409.922 25.0636C410.293 24.9526 410.676 25.165 410.786 25.5326C410.894 25.9003 410.685 26.287 410.318 26.3979C407.681 27.1807 404.997 27.9921 402.342 28.8161C402.272 28.8383 402.203 28.8478 402.136 28.8478H402.139ZM569.963 25.7482C569.745 25.7482 569.53 25.6467 569.393 25.4534C567.884 23.3046 566.007 21.3205 563.813 19.552C563.513 19.3111 563.468 18.8737 563.709 18.5726C563.95 18.2747 564.386 18.224 564.687 18.4681C566.979 20.3158 568.944 22.3981 570.53 24.6515C570.751 24.9653 570.675 25.3995 570.362 25.6214C570.242 25.707 570.102 25.7482 569.963 25.7482ZM418.136 24.1096C417.832 24.1096 417.553 23.9099 417.468 23.6025C417.363 23.2317 417.579 22.8482 417.949 22.7436C420.642 21.9829 423.348 21.2349 426.001 20.525C426.371 20.4267 426.754 20.6454 426.852 21.0162C426.95 21.3871 426.732 21.7706 426.362 21.8688C423.719 22.5788 421.016 23.3236 418.329 24.0811C418.265 24.1001 418.202 24.1064 418.139 24.1064L418.136 24.1096ZM434.249 19.7865C433.939 19.7865 433.654 19.5773 433.575 19.2604C433.48 18.8864 433.708 18.5093 434.078 18.4142C436.797 17.7264 439.528 17.0577 442.19 16.427C442.567 16.3382 442.937 16.5696 443.026 16.9436C443.114 17.3176 442.883 17.6915 442.51 17.7803C439.854 18.4078 437.129 19.0766 434.42 19.7612C434.363 19.777 434.306 19.7833 434.249 19.7833V19.7865ZM450.482 15.9484C450.163 15.9484 449.875 15.7265 449.805 15.4001C449.723 15.0261 449.96 14.6521 450.334 14.5729C453.081 13.9707 455.831 13.3907 458.509 12.855C458.883 12.779 459.253 13.023 459.326 13.4002C459.402 13.7773 459.158 14.145 458.781 14.2179C456.113 14.7535 453.369 15.3303 450.631 15.9294C450.581 15.9389 450.53 15.9452 450.482 15.9452V15.9484ZM557.227 15.2353C557.123 15.2353 557.015 15.2099 556.917 15.1624C554.609 14.0024 552.043 12.9596 549.295 12.069C548.931 11.9518 548.732 11.5588 548.849 11.1911C548.966 10.8266 549.359 10.6238 549.726 10.7442C552.543 11.657 555.173 12.7251 557.544 13.9168C557.885 14.0879 558.025 14.5063 557.854 14.8518C557.73 15.0958 557.487 15.2353 557.233 15.2353H557.227ZM466.839 12.6712C466.51 12.6712 466.216 12.4367 466.156 12.0976C466.089 11.7204 466.339 11.3559 466.716 11.2894C469.492 10.7886 472.264 10.3195 474.955 9.89483C475.334 9.83461 475.689 10.0945 475.749 10.4748C475.809 10.8552 475.55 11.2101 475.17 11.2703C472.489 11.695 469.726 12.1609 466.96 12.6617C466.919 12.6681 466.877 12.6744 466.836 12.6744L466.839 12.6712ZM483.317 10.0691C482.972 10.0691 482.674 9.81559 482.63 9.46379C482.579 9.08346 482.845 8.73166 483.228 8.68095C486.032 8.30696 488.827 7.971 491.527 7.68576C491.913 7.64455 492.252 7.92346 492.29 8.30379C492.331 8.68729 492.052 9.02958 491.672 9.06761C488.982 9.35286 486.203 9.68565 483.408 10.0596C483.377 10.0628 483.345 10.066 483.317 10.066V10.0691ZM541.446 9.99625C541.399 9.99625 541.351 9.99308 541.307 9.9804C538.734 9.45111 535.983 9.0074 533.131 8.66193C532.752 8.61439 532.479 8.26893 532.524 7.8886C532.571 7.50827 532.913 7.2357 533.296 7.28007C536.186 7.62871 538.974 8.07876 541.585 8.61756C541.962 8.69363 542.202 9.06445 542.127 9.43843C542.06 9.76805 541.769 9.99308 541.446 9.99308V9.99625ZM499.902 8.32281C499.541 8.32281 499.237 8.0439 499.208 7.67942C499.18 7.29592 499.468 6.96313 499.851 6.93461C502.693 6.72226 505.504 6.56062 508.204 6.4592C508.571 6.44652 508.909 6.74444 508.925 7.12794C508.941 7.51144 508.64 7.83472 508.257 7.85057C505.573 7.95516 502.782 8.11363 499.955 8.32281C499.936 8.32281 499.921 8.32281 499.902 8.32281ZM524.905 7.94248C524.905 7.94248 524.88 7.94248 524.867 7.94248C522.209 7.79352 519.417 7.71111 516.566 7.7016C516.183 7.7016 515.872 7.38783 515.872 7.00117C515.872 6.61767 516.186 6.30707 516.569 6.30707C519.443 6.31975 522.26 6.40215 524.94 6.55111C525.323 6.5733 525.618 6.89975 525.595 7.28641C525.576 7.65723 525.269 7.94248 524.902 7.94248H524.905Z" fill="#51C3EB"/>
<path d="M59.5892 342.045C59.5892 342.045 59.5797 342.045 59.5765 342.045C56.6995 341.991 53.8826 341.864 51.2081 341.668C50.8252 341.639 50.5372 341.306 50.5656 340.923C50.5941 340.539 50.9233 340.251 51.3094 340.279C53.9586 340.476 56.7501 340.599 59.6019 340.653C59.9848 340.66 60.2918 340.977 60.2855 341.363C60.2792 341.744 59.969 342.048 59.5924 342.048L59.5892 342.045ZM67.9291 342.007C67.5525 342.007 67.2455 341.706 67.236 341.328C67.2265 340.945 67.5272 340.625 67.9133 340.615C70.5973 340.542 73.392 340.416 76.2184 340.232C76.6077 340.213 76.9305 340.498 76.9558 340.882C76.9812 341.265 76.69 341.595 76.307 341.62C73.4616 341.804 70.6511 341.934 67.9481 342.007C67.9418 342.007 67.9354 342.007 67.9291 342.007ZM84.571 340.945C84.2165 340.945 83.9158 340.675 83.881 340.317C83.843 339.934 84.1247 339.595 84.5045 339.557C87.1916 339.297 89.9737 338.986 92.7748 338.631C93.1546 338.584 93.5027 338.853 93.5502 339.237C93.5977 339.617 93.3287 339.966 92.9457 340.013C90.132 340.368 87.3372 340.679 84.6374 340.942C84.6153 340.942 84.5931 340.945 84.571 340.945ZM42.9663 340.78C42.9347 340.78 42.8999 340.78 42.8651 340.774C39.9754 340.359 37.1996 339.839 34.6106 339.224C34.2371 339.135 34.0061 338.761 34.0947 338.387C34.1833 338.013 34.5568 337.782 34.9303 337.871C37.4781 338.473 40.2159 338.989 43.0645 339.398C43.4443 339.452 43.707 339.807 43.6532 340.187C43.6025 340.533 43.305 340.783 42.9663 340.783V340.78ZM101.124 338.875C100.786 338.875 100.491 338.628 100.437 338.283C100.38 337.902 100.64 337.547 101.02 337.49C103.704 337.085 106.467 336.635 109.236 336.153C109.616 336.086 109.974 336.34 110.04 336.72C110.107 337.097 109.853 337.459 109.474 337.525C106.695 338.01 103.919 338.46 101.225 338.866C101.191 338.872 101.156 338.875 101.121 338.875H101.124ZM26.7866 336.86C26.7075 336.86 26.6252 336.847 26.5461 336.815C23.7608 335.788 21.1813 334.593 18.8803 333.269C18.548 333.078 18.434 332.651 18.6239 332.318C18.817 331.985 19.2411 331.871 19.5734 332.061C21.808 333.348 24.3179 334.508 27.0271 335.509C27.388 335.642 27.5715 336.042 27.4386 336.403C27.3342 336.685 27.0683 336.86 26.7866 336.86ZM117.557 336.02C117.231 336.02 116.94 335.788 116.877 335.456C116.804 335.078 117.051 334.714 117.427 334.641C120.092 334.121 122.836 333.56 125.587 332.971C125.96 332.891 126.331 333.129 126.413 333.506C126.492 333.883 126.255 334.251 125.878 334.334C123.121 334.923 120.368 335.487 117.693 336.007C117.649 336.016 117.605 336.02 117.56 336.02H117.557ZM133.873 332.533C133.556 332.533 133.272 332.315 133.196 331.995C133.11 331.621 133.341 331.247 133.715 331.158C136.373 330.543 139.098 329.887 141.814 329.212C142.188 329.12 142.564 329.348 142.656 329.719C142.748 330.093 142.52 330.47 142.15 330.562C139.428 331.237 136.693 331.893 134.028 332.511C133.974 332.524 133.924 332.53 133.87 332.53L133.873 332.533ZM150.065 328.518C149.758 328.518 149.477 328.312 149.394 327.998C149.296 327.627 149.518 327.247 149.888 327.148C152.544 326.448 155.247 325.713 157.931 324.968C158.301 324.867 158.684 325.082 158.785 325.453C158.886 325.824 158.671 326.207 158.301 326.309C155.614 327.057 152.901 327.792 150.243 328.495C150.182 328.511 150.122 328.518 150.065 328.518ZM12.5154 328.442C12.3445 328.442 12.1736 328.378 12.0406 328.251C9.91371 326.248 8.13179 324.008 6.74233 321.589C6.55242 321.257 6.66637 320.832 6.9987 320.639C7.33103 320.448 7.75514 320.562 7.94821 320.895C9.2712 323.196 10.9677 325.329 12.9965 327.237C13.275 327.5 13.2908 327.941 13.0281 328.22C12.892 328.366 12.7053 328.438 12.5217 328.438L12.5154 328.442ZM166.138 324.042C165.837 324.042 165.558 323.846 165.47 323.542C165.362 323.174 165.574 322.787 165.941 322.68C168.575 321.909 171.262 321.104 173.924 320.29C174.291 320.179 174.68 320.385 174.791 320.753C174.902 321.12 174.696 321.51 174.329 321.621C171.661 322.439 168.967 323.244 166.327 324.014C166.264 324.033 166.198 324.042 166.131 324.042H166.138ZM182.093 319.165C181.798 319.165 181.523 318.975 181.431 318.68C181.314 318.312 181.516 317.922 181.884 317.805C184.507 316.968 187.15 316.109 189.812 315.232C190.176 315.111 190.569 315.308 190.689 315.675C190.809 316.04 190.61 316.433 190.246 316.553C187.581 317.434 184.935 318.293 182.305 319.133C182.235 319.155 182.162 319.165 182.093 319.165ZM4.34955 314.179C4.02988 314.179 3.74502 313.957 3.67223 313.634C3.17215 311.381 2.91895 308.978 2.91895 306.497C2.91895 306.053 2.92528 305.609 2.94427 305.159C2.96009 304.776 3.27343 304.471 3.66273 304.487C4.0457 304.5 4.34638 304.823 4.33372 305.207C4.3179 305.638 4.31157 306.069 4.31157 306.494C4.31157 308.874 4.55528 311.172 5.0332 313.33C5.11549 313.704 4.88128 314.078 4.50464 314.16C4.454 314.173 4.40335 314.176 4.35271 314.176L4.34955 314.179ZM197.93 313.926C197.642 313.926 197.37 313.745 197.272 313.454C197.149 313.089 197.342 312.693 197.706 312.569C200.314 311.675 202.938 310.763 205.577 309.828C205.938 309.701 206.337 309.888 206.463 310.252C206.59 310.614 206.4 311.013 206.039 311.14C203.396 312.075 200.77 312.991 198.155 313.888C198.079 313.913 198.003 313.926 197.93 313.926ZM4.74518 297.626C4.69454 297.626 4.6439 297.619 4.59326 297.61C4.21978 297.524 3.9824 297.153 4.06786 296.779C4.65023 294.187 5.46365 291.471 6.48596 288.701C6.61889 288.339 7.02085 288.155 7.3785 288.288C7.73932 288.422 7.92289 288.821 7.78996 289.182C6.7898 291.895 5.99221 294.554 5.42567 297.084C5.35287 297.407 5.06485 297.629 4.74835 297.629L4.74518 297.626ZM10.4201 281.962C10.3188 281.962 10.2144 281.94 10.1163 281.893C9.77128 281.725 9.62569 281.309 9.79344 280.964C10.9582 278.558 12.2875 276.064 13.7466 273.554C13.9397 273.221 14.3638 273.107 14.6961 273.3C15.0284 273.494 15.1424 273.918 14.9493 274.251C13.5092 276.733 12.1957 279.195 11.0468 281.569C10.9265 281.817 10.6797 281.962 10.4201 281.962ZM18.7505 267.507C18.6176 267.507 18.4847 267.469 18.3676 267.393C18.0479 267.18 17.9593 266.749 18.1713 266.429C19.6557 264.182 21.2668 261.872 22.9632 259.555C23.1911 259.244 23.6247 259.178 23.9349 259.406C24.2451 259.634 24.3115 260.068 24.0836 260.379C22.403 262.677 20.8015 264.971 19.3297 267.199C19.1968 267.402 18.9753 267.51 18.7505 267.51V267.507ZM28.5907 254.024C28.4388 254.024 28.2868 253.973 28.1571 253.872C27.8564 253.634 27.8057 253.194 28.0463 252.893C29.7301 250.772 31.5215 248.598 33.3667 246.43C33.6168 246.139 34.0536 246.104 34.3479 246.351C34.6391 246.601 34.6739 247.039 34.427 247.334C32.5913 249.492 30.8094 251.653 29.1351 253.761C28.999 253.935 28.7964 254.024 28.5907 254.024ZM39.3993 241.305C39.2348 241.305 39.067 241.245 38.9341 241.125C38.6492 240.868 38.6271 240.427 38.8834 240.142C40.7065 238.123 42.6214 236.057 44.571 234.009C44.8369 233.73 45.2768 233.721 45.5522 233.984C45.8307 234.25 45.8402 234.691 45.5775 234.967C43.6373 237.008 41.7288 239.061 39.9152 241.074C39.7791 241.226 39.5892 241.302 39.3993 241.302V241.305ZM50.898 229.205C50.7207 229.205 50.5435 229.138 50.4074 229.002C50.1352 228.729 50.1352 228.289 50.4074 228.016C52.3317 226.083 54.3384 224.111 56.3703 222.153C56.6457 221.886 57.0888 221.896 57.3547 222.172C57.6205 222.447 57.611 222.888 57.3357 223.157C55.31 225.107 53.3129 227.075 51.3949 228.999C51.2588 229.135 51.0815 229.205 50.9043 229.205H50.898ZM62.9157 217.617C62.7289 217.617 62.5422 217.541 62.4061 217.395C62.1466 217.113 62.1624 216.673 62.4441 216.413C64.4507 214.552 66.527 212.657 68.6223 210.781C68.9103 210.524 69.3471 210.549 69.6034 210.835C69.8598 211.12 69.8345 211.561 69.5496 211.817C67.4607 213.687 65.3907 215.576 63.3904 217.433C63.2575 217.557 63.0866 217.62 62.9188 217.62L62.9157 217.617ZM75.3448 206.477C75.1486 206.477 74.9555 206.394 74.8194 206.236C74.5694 205.944 74.601 205.507 74.8891 205.253C76.959 203.46 79.0954 201.631 81.2413 199.824C81.5357 199.577 81.9724 199.615 82.2193 199.91C82.4662 200.205 82.4282 200.642 82.1339 200.889C79.9943 202.693 77.861 204.515 75.7974 206.306C75.6645 206.42 75.5031 206.477 75.3417 206.477H75.3448Z" fill="#51C3EB"/>
<path d="M405.785 461.541C405.409 461.541 405.099 461.239 405.089 460.859L405.01 457.157C405 456.774 405.308 456.454 405.69 456.447C406.073 456.441 406.393 456.745 406.399 457.129L406.479 460.831C406.488 461.214 406.181 461.534 405.798 461.541C405.792 461.541 405.789 461.541 405.782 461.541H405.785Z" fill="#0484BB"/>
<path d="M406.064 474.494C405.687 474.494 405.377 474.193 405.367 473.812L405.288 470.111C405.279 469.727 405.586 469.407 405.969 469.401C406.345 469.397 406.671 469.699 406.678 470.082L406.757 473.784C406.766 474.167 406.459 474.488 406.076 474.494C406.073 474.494 406.067 474.494 406.061 474.494H406.064Z" fill="#0484BB"/>
<path d="M397.689 466.231C397.306 466.231 396.996 465.924 396.993 465.54C396.993 465.157 397.3 464.843 397.683 464.84L401.326 464.811C401.719 464.83 402.026 465.119 402.026 465.502C402.026 465.886 401.722 466.2 401.336 466.203L397.693 466.231H397.686H397.689Z" fill="#0484BB"/>
<path d="M410.439 466.13C410.056 466.13 409.745 465.822 409.742 465.439C409.742 465.055 410.049 464.742 410.432 464.738L414.075 464.71H414.082C414.464 464.71 414.775 465.017 414.778 465.401C414.778 465.784 414.471 466.098 414.088 466.101L410.445 466.13H410.439Z" fill="#0484BB"/>
<path d="M249.271 67.5842C248.505 67.5842 247.739 67.4416 247.001 67.1564C245.4 66.532 244.14 65.3086 243.45 63.7112C242.045 60.4467 243.504 56.6213 246.704 55.1824C248.245 54.4883 249.961 54.4439 251.534 55.0588C253.135 55.6831 254.395 56.9065 255.085 58.5039C256.49 61.7684 255.031 65.5938 251.831 67.0328C251.011 67.4004 250.141 67.5874 249.271 67.5874V67.5842ZM247.273 56.4501C244.764 57.5784 243.621 60.5894 244.729 63.1597C245.27 64.4148 246.257 65.372 247.508 65.8601C248.733 66.3355 250.065 66.3006 251.265 65.7618C253.774 64.6335 254.917 61.6226 253.809 59.0522C253.268 57.7971 252.284 56.84 251.03 56.3519C249.805 55.8765 248.473 55.9113 247.273 56.4501Z" fill="#51C3EB"/>
</g>
<defs>
<clipPath id="clip0_55_11756">
<rect width="587" height="580" fill="white"/>
</clipPath>
</defs>
</svg>
