<svg width="595" height="517" viewBox="0 0 595 517" fill="none" xmlns="http://www.w3.org/2000/svg">
<g clip-path="url(#clip0_55_12334)">
<path d="M229.506 97.7163C229.942 88.5055 226.627 79.1309 220.636 72.0761C213.595 63.7932 203.074 58.7034 192.253 57.68C184.284 56.9295 176.274 58.2668 168.455 59.9315C147.086 64.4755 128.76 80.7411 113.272 95.7377C105.494 103.27 98.3714 111.908 95.0282 122.21C74.4506 185.553 171.839 151.767 194.641 139.567C209.993 131.353 225.59 119.604 228.946 102.52C229.26 100.937 229.451 99.3265 229.519 97.7299L229.506 97.7163Z" fill="#91E2EB"/>
<path d="M527.854 351.92C536.792 331.507 543.301 310.069 546.958 288.032C561.504 200.318 532.262 77.4251 426.972 69.6744C384.589 66.5495 342.342 83.088 308.678 109.028C280.705 130.575 257.739 158.494 227.91 177.393C180.45 207.468 109.602 210.32 71.2579 253.945C42.6158 286.531 35.5473 334.959 48.4561 376.373C61.3648 417.788 92.3404 452.134 129.457 474.595C166.573 497.055 209.529 508.408 252.608 513.553C296.929 518.834 343.161 517.551 384.398 500.467C407.391 490.942 428.241 476.751 447.086 460.499C481.514 430.819 509.692 393.458 527.868 351.92H527.854Z" fill="#91E2EB"/>
<g opacity="0.5">
<path d="M311.326 119.44H251.121V122.797H311.326V119.44Z" fill="#51C3EB"/>
<path d="M241.01 119.44H216.775V122.797H241.01V119.44Z" fill="#51C3EB"/>
<path d="M210.389 119.44H194.765V122.797H210.389V119.44Z" fill="#51C3EB"/>
<path d="M190.016 119.44H183.767V122.797H190.016V119.44Z" fill="#51C3EB"/>
<path d="M175.088 119.44H110.476V122.797H175.088V119.44Z" fill="#51C3EB"/>
<path d="M324.726 134.368H271.944V137.725H324.726V134.368Z" fill="#51C3EB"/>
<path d="M259.39 134.368H190.794V137.725H259.39V134.368Z" fill="#51C3EB"/>
<path d="M179.55 134.368H171.799V137.725H179.55V134.368Z" fill="#51C3EB"/>
<path d="M157.594 134.368H123.057V137.725H157.594V134.368Z" fill="#51C3EB"/>
<path d="M112.29 134.368H92.1631V137.725H112.29V134.368Z" fill="#51C3EB"/>
<path d="M298.608 158.822H238.403V162.178H298.608V158.822Z" fill="#51C3EB"/>
<path d="M228.292 158.822H204.058V162.178H228.292V158.822Z" fill="#51C3EB"/>
<path d="M197.671 158.822H182.047V162.178H197.671V158.822Z" fill="#51C3EB"/>
<path d="M177.299 158.822H171.049V162.178H177.299V158.822Z" fill="#51C3EB"/>
<path d="M162.37 158.822H97.7578V162.178H162.37V158.822Z" fill="#51C3EB"/>
<path d="M298.62 173.763H259.226V177.12H298.62V173.763Z" fill="#51C3EB"/>
<path d="M246.686 173.763H190.139V177.12H246.686V173.763Z" fill="#51C3EB"/>
<path d="M174.869 173.763H168.455V177.12H174.869V173.763Z" fill="#51C3EB"/>
<path d="M158.262 173.763H110.325V177.12H158.262V173.763Z" fill="#51C3EB"/>
<path d="M103.543 177.12H89.9248L90.0203 173.763H103.639L103.543 177.12Z" fill="#51C3EB"/>
<path d="M298.62 205.216H259.226V208.573H298.62V205.216Z" fill="#51C3EB"/>
<path d="M246.686 205.216H190.139V208.573H246.686V205.216Z" fill="#51C3EB"/>
<path d="M174.869 205.216H168.455V208.573H174.869V205.216Z" fill="#51C3EB"/>
<path d="M158.276 208.587L110.325 208.123V204.766L158.276 205.216V208.587Z" fill="#51C3EB"/>
<path d="M103.543 208.123H89.9248L90.0203 204.766H103.639L103.543 208.123Z" fill="#51C3EB"/>
<path d="M305.116 199.472L303.451 196.661L308.636 192.908L303.71 189.347L305.375 186.536L314.19 192.908L305.116 199.472Z" fill="#51C3EB"/>
<path d="M323.306 128.842L314.231 122.265L323.047 115.892L324.711 118.703L319.785 122.265L324.971 126.031L323.306 128.842Z" fill="#51C3EB"/>
<path d="M95.3152 127.819L93.6504 125.008L98.8494 121.255L93.9233 117.68L95.5881 114.869L104.403 121.255L95.3152 127.819Z" fill="#51C3EB"/>
<path d="M530.557 262.405H471.349V265.748H530.557V262.405Z" fill="#51C3EB"/>
<path d="M461.414 262.405H437.575V265.748H461.414V262.405Z" fill="#51C3EB"/>
<path d="M431.285 262.405H415.92V265.748H431.285V262.405Z" fill="#51C3EB"/>
<path d="M411.253 262.405H405.112V265.748H411.253V262.405Z" fill="#51C3EB"/>
<path d="M396.584 262.405H333.05V265.748H396.584V262.405Z" fill="#51C3EB"/>
<path d="M543.724 277.252H491.816V280.595H543.724V277.252Z" fill="#51C3EB"/>
<path d="M479.481 277.252H412.03V280.595H479.481V277.252Z" fill="#51C3EB"/>
<path d="M400.964 277.252H393.35V280.595H400.964V277.252Z" fill="#51C3EB"/>
<path d="M379.376 277.252H345.412V280.595H379.376V277.252Z" fill="#51C3EB"/>
<path d="M334.823 277.252H315.037V280.595H334.823V277.252Z" fill="#51C3EB"/>
<path d="M530.557 318.939H471.349V322.282H530.557V318.939Z" fill="#51C3EB"/>
<path d="M461.414 318.939H437.575V322.282H461.414V318.939Z" fill="#51C3EB"/>
<path d="M431.285 318.939H415.92V322.282H431.285V318.939Z" fill="#51C3EB"/>
<path d="M411.253 318.939H405.112V322.282H411.253V318.939Z" fill="#51C3EB"/>
<path d="M396.584 318.939H333.05V322.282H396.584V318.939Z" fill="#51C3EB"/>
<path d="M530.543 333.786H491.816V337.129H530.543V333.786Z" fill="#51C3EB"/>
<path d="M479.481 333.786H423.889V337.129H479.481V333.786Z" fill="#51C3EB"/>
<path d="M408.865 333.786H402.561V337.129H408.865V333.786Z" fill="#51C3EB"/>
<path d="M392.544 333.786H345.412V337.129H392.544V333.786Z" fill="#51C3EB"/>
<path d="M338.74 337.129H325.354L325.449 333.786H338.835L338.74 337.129Z" fill="#51C3EB"/>
<path d="M530.543 350.229H510.866V353.572H530.543V350.229Z" fill="#51C3EB"/>
<path d="M500.932 350.229H437.575V353.572H500.932V350.229Z" fill="#51C3EB"/>
<path d="M426.017 350.229H408.019V353.572H426.017V350.229Z" fill="#51C3EB"/>
<path d="M397.894 350.229H333.05V353.572H397.894V350.229Z" fill="#51C3EB"/>
<path d="M530.543 365.089H491.816V368.432H530.543V365.089Z" fill="#51C3EB"/>
<path d="M479.481 365.089H423.889V368.432H479.481V365.089Z" fill="#51C3EB"/>
<path d="M408.865 365.089H402.561V368.432H408.865V365.089Z" fill="#51C3EB"/>
<path d="M392.544 368.418L345.412 367.968V364.625L392.544 365.089V368.418Z" fill="#51C3EB"/>
<path d="M338.74 367.968H325.354L325.449 364.625H338.835L338.74 367.968Z" fill="#51C3EB"/>
<path d="M536.942 359.371L535.291 356.574L540.408 352.835L535.564 349.287L537.201 346.49L545.866 352.835L536.942 359.371Z" fill="#51C3EB"/>
<path d="M542.319 271.753L533.381 265.216L542.059 258.871L543.697 261.668L538.853 265.216L543.956 268.955L542.319 271.753Z" fill="#51C3EB"/>
<path d="M318.148 270.729L316.511 267.932L321.614 264.193L316.77 260.659L318.407 257.861L327.072 264.193L318.148 270.729Z" fill="#51C3EB"/>
<path d="M272.054 242.742H212.846V246.085H272.054V242.742Z" fill="#51C3EB"/>
<path d="M202.911 242.742H179.072V246.085H202.911V242.742Z" fill="#51C3EB"/>
<path d="M172.782 242.742H157.417V246.085H172.782V242.742Z" fill="#51C3EB"/>
<path d="M152.75 242.742H146.609V246.085H152.75V242.742Z" fill="#51C3EB"/>
<path d="M138.081 242.742H74.5469V246.085H138.081V242.742Z" fill="#51C3EB"/>
<path d="M285.221 257.588H233.313V260.932H285.221V257.588Z" fill="#51C3EB"/>
<path d="M220.978 257.588H153.527V260.932H220.978V257.588Z" fill="#51C3EB"/>
<path d="M142.461 257.588H134.847V260.932H142.461V257.588Z" fill="#51C3EB"/>
<path d="M120.873 257.588H86.9092V260.932H120.873V257.588Z" fill="#51C3EB"/>
<path d="M76.334 257.588H56.5479V260.932H76.334V257.588Z" fill="#51C3EB"/>
<path d="M281.305 284.88H222.097V288.223H281.305V284.88Z" fill="#51C3EB"/>
<path d="M212.163 284.88H188.324V288.223H212.163V284.88Z" fill="#51C3EB"/>
<path d="M182.047 284.88H166.682V288.223H182.047V284.88Z" fill="#51C3EB"/>
<path d="M162.002 284.88H155.861V288.223H162.002V284.88Z" fill="#51C3EB"/>
<path d="M132.404 284.88H95.7246V288.223H132.404V284.88Z" fill="#51C3EB"/>
<path d="M147.346 284.88H137.903V288.223H147.346V284.88Z" fill="#51C3EB"/>
<path d="M281.292 299.726H242.565V303.069H281.292V299.726Z" fill="#51C3EB"/>
<path d="M230.229 299.726H174.637V303.069H230.229V299.726Z" fill="#51C3EB"/>
<path d="M159.627 299.726H153.322V303.069H159.627V299.726Z" fill="#51C3EB"/>
<path d="M143.307 299.726H96.1748V303.069H143.307V299.726Z" fill="#51C3EB"/>
<path d="M281.291 316.169H261.614V319.512H281.291V316.169Z" fill="#51C3EB"/>
<path d="M251.681 316.169H188.324V319.512H251.681V316.169Z" fill="#51C3EB"/>
<path d="M176.78 316.169H158.781V319.512H176.78V316.169Z" fill="#51C3EB"/>
<path d="M104.976 316.169H95.7246V319.512H104.976V316.169Z" fill="#51C3EB"/>
<path d="M148.656 316.169H113.56V319.512H148.656V316.169Z" fill="#51C3EB"/>
<path d="M281.292 331.029H242.565V334.372H281.292V331.029Z" fill="#51C3EB"/>
<path d="M230.229 331.029H174.637V334.372H230.229V331.029Z" fill="#51C3EB"/>
<path d="M159.627 331.029H153.322V334.372H159.627V331.029Z" fill="#51C3EB"/>
<path d="M143.307 334.372L96.1748 333.908V330.565L143.307 331.029V334.372Z" fill="#51C3EB"/>
<path d="M287.691 325.312L286.054 322.514L291.157 318.775L286.313 315.228L287.95 312.43L296.615 318.775L287.691 325.312Z" fill="#51C3EB"/>
<path d="M283.816 252.089L274.892 245.553L283.557 239.221L285.194 242.005L280.35 245.553L285.453 249.292L283.816 252.089Z" fill="#51C3EB"/>
<path d="M59.6453 251.079L58.0078 248.282L63.1113 244.543L58.2671 240.995L59.9046 238.198L68.5695 244.543L59.6453 251.079Z" fill="#51C3EB"/>
</g>
<path d="M482.233 190.194L483.804 181.663H484.765L483.194 190.194H482.233ZM484.519 190.194L486.089 181.663H487.05L485.479 190.194H484.519ZM487.847 185.009H481.753V184.101H487.847V185.009ZM487.407 187.792H481.308V186.884H487.407V187.792ZM492.329 188.478C492.329 188.337 492.294 188.21 492.224 188.097C492.153 187.979 492.019 187.874 491.819 187.78C491.624 187.687 491.335 187.601 490.952 187.522C490.616 187.448 490.308 187.36 490.026 187.259C489.749 187.153 489.511 187.026 489.312 186.878C489.112 186.729 488.958 186.554 488.849 186.351C488.739 186.147 488.685 185.913 488.685 185.647C488.685 185.39 488.741 185.146 488.854 184.915C488.968 184.685 489.13 184.481 489.341 184.306C489.552 184.13 489.808 183.991 490.108 183.89C490.413 183.788 490.753 183.737 491.128 183.737C491.659 183.737 492.114 183.827 492.493 184.007C492.876 184.183 493.169 184.423 493.372 184.728C493.575 185.028 493.677 185.368 493.677 185.747H492.265C492.265 185.579 492.222 185.423 492.136 185.278C492.054 185.13 491.929 185.011 491.761 184.921C491.593 184.827 491.382 184.78 491.128 184.78C490.886 184.78 490.685 184.819 490.524 184.897C490.368 184.972 490.251 185.069 490.173 185.19C490.099 185.312 490.062 185.444 490.062 185.589C490.062 185.694 490.081 185.79 490.12 185.876C490.163 185.958 490.233 186.034 490.331 186.104C490.429 186.171 490.562 186.233 490.729 186.292C490.901 186.351 491.116 186.407 491.374 186.462C491.858 186.563 492.274 186.694 492.622 186.854C492.974 187.011 493.243 187.214 493.431 187.464C493.618 187.71 493.712 188.022 493.712 188.401C493.712 188.683 493.651 188.94 493.53 189.175C493.413 189.405 493.241 189.606 493.015 189.778C492.788 189.946 492.517 190.077 492.2 190.171C491.888 190.265 491.536 190.312 491.146 190.312C490.571 190.312 490.085 190.21 489.687 190.007C489.288 189.8 488.985 189.536 488.778 189.216C488.575 188.892 488.474 188.556 488.474 188.208H489.839C489.854 188.47 489.927 188.679 490.056 188.835C490.188 188.987 490.353 189.099 490.548 189.169C490.747 189.235 490.952 189.269 491.163 189.269C491.417 189.269 491.63 189.235 491.802 189.169C491.974 189.099 492.104 189.005 492.194 188.888C492.284 188.767 492.329 188.63 492.329 188.478ZM498.505 188.478C498.505 188.337 498.47 188.21 498.399 188.097C498.329 187.979 498.194 187.874 497.995 187.78C497.8 187.687 497.511 187.601 497.128 187.522C496.792 187.448 496.483 187.36 496.202 187.259C495.925 187.153 495.687 187.026 495.487 186.878C495.288 186.729 495.134 186.554 495.024 186.351C494.915 186.147 494.86 185.913 494.86 185.647C494.86 185.39 494.917 185.146 495.03 184.915C495.144 184.685 495.306 184.481 495.517 184.306C495.728 184.13 495.983 183.991 496.284 183.89C496.589 183.788 496.929 183.737 497.304 183.737C497.835 183.737 498.29 183.827 498.669 184.007C499.052 184.183 499.345 184.423 499.548 184.728C499.751 185.028 499.853 185.368 499.853 185.747H498.44C498.44 185.579 498.397 185.423 498.312 185.278C498.229 185.13 498.104 185.011 497.937 184.921C497.769 184.827 497.558 184.78 497.304 184.78C497.062 184.78 496.86 184.819 496.7 184.897C496.544 184.972 496.427 185.069 496.349 185.19C496.274 185.312 496.237 185.444 496.237 185.589C496.237 185.694 496.257 185.79 496.296 185.876C496.339 185.958 496.409 186.034 496.507 186.104C496.604 186.171 496.737 186.233 496.905 186.292C497.077 186.351 497.292 186.407 497.55 186.462C498.034 186.563 498.45 186.694 498.798 186.854C499.149 187.011 499.419 187.214 499.606 187.464C499.794 187.71 499.888 188.022 499.888 188.401C499.888 188.683 499.827 188.94 499.706 189.175C499.589 189.405 499.417 189.606 499.19 189.778C498.964 189.946 498.692 190.077 498.376 190.171C498.063 190.265 497.712 190.312 497.321 190.312C496.747 190.312 496.261 190.21 495.862 190.007C495.464 189.8 495.161 189.536 494.954 189.216C494.751 188.892 494.649 188.556 494.649 188.208H496.015C496.03 188.47 496.103 188.679 496.231 188.835C496.364 188.987 496.528 189.099 496.724 189.169C496.923 189.235 497.128 189.269 497.339 189.269C497.593 189.269 497.806 189.235 497.978 189.169C498.149 189.099 498.28 189.005 498.37 188.888C498.46 188.767 498.505 188.63 498.505 188.478ZM502.636 181.194V190.194H501.218V181.194H502.636Z" fill="#7A5CE0"/>
<path d="M336.46 478.225H63.6707C58.3489 478.225 57.1481 475.564 60.9825 472.289L192.076 366.494L469.983 362.319C469.983 364.98 468.864 367.518 466.885 369.292L353.053 472.289C349.219 475.564 341.796 478.225 336.474 478.225H336.46Z" fill="#1D1D1B"/>
<path d="M336.46 474.049H63.6707C58.3489 474.049 57.1481 471.388 60.9825 468.113L192.076 362.319H469.983L353.053 468.113C349.219 471.388 341.796 474.049 336.474 474.049H336.46Z" fill="white"/>
<path opacity="0.3" d="M361.704 437.438H124.926C121.173 437.438 120.327 435.568 123.029 433.262L186.836 378.734C189.538 376.428 194.764 374.559 198.516 374.559H435.281C439.034 374.559 439.88 376.428 437.178 378.734L373.371 433.262C370.669 435.568 365.443 437.438 361.691 437.438H361.704Z" fill="#51C3EB"/>
<path d="M209.051 379.157H196.716C195.542 379.157 195.269 378.571 196.115 377.847L203.989 371.12C204.835 370.397 206.472 369.81 207.646 369.81H219.982C221.155 369.81 221.428 370.397 220.582 371.12L212.708 377.847C211.862 378.571 210.225 379.157 209.051 379.157Z" fill="black"/>
<path d="M226.395 379.157H215.478C214.305 379.157 214.032 378.571 214.878 377.847L222.752 371.12C223.598 370.397 225.235 369.81 226.409 369.81H237.325C238.499 369.81 238.771 370.397 237.925 371.12L230.052 377.847C229.206 378.571 227.568 379.157 226.395 379.157Z" fill="black"/>
<path d="M243.725 379.157H232.808C231.635 379.157 231.362 378.571 232.208 377.847L240.082 371.12C240.928 370.397 242.565 369.81 243.739 369.81H254.655C255.829 369.81 256.102 370.397 255.256 371.12L247.382 377.847C246.536 378.571 244.899 379.157 243.725 379.157Z" fill="black"/>
<path d="M261.055 379.157H250.139C248.965 379.157 248.692 378.571 249.538 377.847L257.412 371.12C258.258 370.397 259.895 369.81 261.069 369.81H271.985C273.159 369.81 273.432 370.397 272.586 371.12L264.712 377.847C263.866 378.571 262.229 379.157 261.055 379.157Z" fill="black"/>
<path d="M278.399 379.157H267.482C266.309 379.157 266.036 378.571 266.882 377.847L274.755 371.12C275.601 370.397 277.239 369.81 278.412 369.81H289.329C290.502 369.81 290.775 370.397 289.929 371.12L282.056 377.847C281.21 378.571 279.572 379.157 278.399 379.157Z" fill="black"/>
<path d="M295.728 379.157H284.811C283.638 379.157 283.365 378.571 284.211 377.847L292.085 371.12C292.931 370.397 294.568 369.81 295.742 369.81H306.658C307.832 369.81 308.104 370.397 307.258 371.12L299.385 377.847C298.539 378.571 296.901 379.157 295.728 379.157Z" fill="black"/>
<path d="M313.072 379.157H302.155C300.982 379.157 300.709 378.571 301.555 377.847L309.428 371.12C310.274 370.397 311.912 369.81 313.085 369.81H324.002C325.175 369.81 325.448 370.397 324.602 371.12L316.729 377.847C315.883 378.571 314.245 379.157 313.072 379.157Z" fill="black"/>
<path d="M330.402 379.157H319.485C318.312 379.157 318.039 378.571 318.885 377.847L326.758 371.12C327.604 370.397 329.242 369.81 330.415 369.81H341.332C342.505 369.81 342.778 370.397 341.932 371.12L334.059 377.847C333.213 378.571 331.575 379.157 330.402 379.157Z" fill="black"/>
<path d="M347.732 379.157H336.815C335.642 379.157 335.369 378.571 336.215 377.847L344.088 371.12C344.934 370.397 346.572 369.81 347.745 369.81H358.662C359.835 369.81 360.108 370.397 359.262 371.12L351.389 377.847C350.543 378.571 348.905 379.157 347.732 379.157Z" fill="black"/>
<path d="M365.076 379.157H354.159C352.986 379.157 352.713 378.571 353.559 377.847L361.432 371.12C362.278 370.397 363.916 369.81 365.089 369.81H376.006C377.179 369.81 377.452 370.397 376.606 371.12L368.733 377.847C367.887 378.571 366.249 379.157 365.076 379.157Z" fill="black"/>
<path d="M382.406 379.157H371.489C370.316 379.157 370.043 378.571 370.889 377.847L378.762 371.12C379.608 370.397 381.246 369.81 382.419 369.81H393.336C394.509 369.81 394.782 370.397 393.936 371.12L386.063 377.847C385.217 378.571 383.579 379.157 382.406 379.157Z" fill="black"/>
<path d="M399.749 379.157H388.833C387.659 379.157 387.386 378.571 388.232 377.847L396.106 371.12C396.952 370.397 398.589 369.81 399.763 369.81H410.68C411.853 369.81 412.126 370.397 411.28 371.12L403.406 377.847C402.56 378.571 400.923 379.157 399.749 379.157Z" fill="black"/>
<path d="M425.498 379.157H405.426C404.252 379.157 403.979 378.571 404.825 377.847L412.699 371.12C413.545 370.397 415.182 369.81 416.356 369.81H436.429C437.602 369.81 437.875 370.397 437.029 371.12L429.155 377.847C428.309 378.571 426.672 379.157 425.498 379.157Z" fill="black"/>
<path d="M205.216 389.856H184.202C183.029 389.856 182.756 389.269 183.602 388.546L191.475 381.818C192.321 381.095 193.959 380.508 195.132 380.508H216.146C217.32 380.508 217.593 381.095 216.747 381.818L208.873 388.546C208.027 389.269 206.39 389.856 205.216 389.856Z" fill="black"/>
<path d="M222.546 389.856H211.63C210.456 389.856 210.183 389.269 211.029 388.546L218.903 381.818C219.749 381.095 221.386 380.508 222.56 380.508H233.476C234.65 380.508 234.923 381.095 234.077 381.818L226.203 388.546C225.357 389.269 223.72 389.856 222.546 389.856Z" fill="black"/>
<path d="M239.876 389.856H228.96C227.786 389.856 227.513 389.269 228.359 388.546L236.233 381.818C237.079 381.095 238.716 380.508 239.89 380.508H250.806C251.98 380.508 252.253 381.095 251.407 381.818L243.533 388.546C242.687 389.269 241.05 389.856 239.876 389.856Z" fill="black"/>
<path d="M257.22 389.856H246.304C245.13 389.856 244.857 389.269 245.703 388.546L253.577 381.818C254.423 381.095 256.06 380.508 257.234 380.508H268.15C269.324 380.508 269.597 381.095 268.751 381.818L260.877 388.546C260.031 389.269 258.394 389.856 257.22 389.856Z" fill="black"/>
<path d="M274.55 389.856H263.634C262.46 389.856 262.187 389.269 263.033 388.546L270.907 381.818C271.753 381.095 273.39 380.508 274.564 380.508H285.48C286.654 380.508 286.927 381.095 286.081 381.818L278.207 388.546C277.361 389.269 275.724 389.856 274.55 389.856Z" fill="black"/>
<path d="M291.893 389.856H280.976C279.803 389.856 279.53 389.269 280.376 388.546L288.25 381.818C289.096 381.095 290.733 380.508 291.907 380.508H302.823C303.997 380.508 304.27 381.095 303.424 381.818L295.55 388.546C294.704 389.269 293.066 389.856 291.893 389.856Z" fill="black"/>
<path d="M309.223 389.856H298.307C297.133 389.856 296.86 389.269 297.706 388.546L305.58 381.818C306.426 381.095 308.063 380.508 309.237 380.508H320.153C321.327 380.508 321.6 381.095 320.754 381.818L312.88 388.546C312.034 389.269 310.397 389.856 309.223 389.856Z" fill="black"/>
<path d="M326.553 389.856H315.637C314.463 389.856 314.19 389.269 315.036 388.546L322.91 381.818C323.756 381.095 325.393 380.508 326.567 380.508H337.483C338.657 380.508 338.93 381.095 338.084 381.818L330.21 388.546C329.364 389.269 327.727 389.856 326.553 389.856Z" fill="black"/>
<path d="M343.897 389.856H332.98C331.807 389.856 331.534 389.269 332.38 388.546L340.253 381.818C341.1 381.095 342.737 380.508 343.911 380.508H354.827C356.001 380.508 356.273 381.095 355.427 381.818L347.554 388.546C346.708 389.269 345.07 389.856 343.897 389.856Z" fill="black"/>
<path d="M361.227 389.856H350.31C349.137 389.856 348.864 389.269 349.71 388.546L357.584 381.818C358.43 381.095 360.067 380.508 361.241 380.508H372.157C373.331 380.508 373.604 381.095 372.758 381.818L364.884 388.546C364.038 389.269 362.4 389.856 361.227 389.856Z" fill="black"/>
<path d="M378.571 389.856H367.654C366.481 389.856 366.208 389.269 367.054 388.546L374.927 381.818C375.773 381.095 377.411 380.508 378.584 380.508H389.501C390.674 380.508 390.947 381.095 390.101 381.818L382.228 388.546C381.382 389.269 379.744 389.856 378.571 389.856Z" fill="black"/>
<path d="M395.9 389.856H384.983C383.81 389.856 383.537 389.269 384.383 388.546L392.256 381.818C393.102 381.095 394.74 380.508 395.913 380.508H406.83C408.003 380.508 408.276 381.095 407.43 381.818L399.557 388.546C398.711 389.269 397.073 389.856 395.9 389.856Z" fill="black"/>
<path d="M180.191 411.238H159.177C158.003 411.238 157.73 410.651 158.576 409.928L166.45 403.201C167.296 402.478 168.933 401.891 170.107 401.891H191.121C192.295 401.891 192.567 402.478 191.721 403.201L183.848 409.928C183.002 410.651 181.364 411.238 180.191 411.238Z" fill="black"/>
<path d="M197.521 411.238H186.604C185.431 411.238 185.158 410.651 186.004 409.928L193.878 403.201C194.724 402.478 196.361 401.891 197.535 401.891H208.451C209.625 401.891 209.897 402.478 209.051 403.201L201.178 409.928C200.332 410.651 198.694 411.238 197.521 411.238Z" fill="black"/>
<path d="M214.865 411.238H203.948C202.775 411.238 202.502 410.651 203.348 409.928L211.221 403.201C212.067 402.478 213.705 401.891 214.878 401.891H225.795C226.968 401.891 227.241 402.478 226.395 403.201L218.522 409.928C217.676 410.651 216.038 411.238 214.865 411.238Z" fill="black"/>
<path d="M232.195 411.238H221.278C220.105 411.238 219.832 410.651 220.678 409.928L228.551 403.201C229.397 402.478 231.035 401.891 232.208 401.891H243.125C244.298 401.891 244.571 402.478 243.725 403.201L235.852 409.928C235.006 410.651 233.368 411.238 232.195 411.238Z" fill="black"/>
<path d="M249.537 411.238H238.621C237.447 411.238 237.175 410.651 238.021 409.928L245.894 403.201C246.74 402.478 248.378 401.891 249.551 401.891H260.468C261.641 401.891 261.914 402.478 261.068 403.201L253.195 409.928C252.348 410.651 250.711 411.238 249.537 411.238Z" fill="black"/>
<path d="M266.868 411.238H255.951C254.778 411.238 254.505 410.651 255.351 409.928L263.224 403.201C264.07 402.478 265.708 401.891 266.881 401.891H277.798C278.971 401.891 279.244 402.478 278.398 403.201L270.525 409.928C269.679 410.651 268.041 411.238 266.868 411.238Z" fill="black"/>
<path d="M284.198 411.238H273.281C272.108 411.238 271.835 410.651 272.681 409.928L280.554 403.201C281.4 402.478 283.038 401.891 284.211 401.891H295.128C296.301 401.891 296.574 402.478 295.728 403.201L287.855 409.928C287.009 410.651 285.371 411.238 284.198 411.238Z" fill="black"/>
<path d="M301.541 411.238H290.625C289.451 411.238 289.178 410.651 290.024 409.928L297.898 403.201C298.744 402.478 300.382 401.891 301.555 401.891H312.472C313.645 401.891 313.918 402.478 313.072 403.201L305.198 409.928C304.352 410.651 302.715 411.238 301.541 411.238Z" fill="black"/>
<path d="M318.871 411.238H307.955C306.781 411.238 306.509 410.651 307.355 409.928L315.228 403.201C316.074 402.478 317.712 401.891 318.885 401.891H329.802C330.975 401.891 331.248 402.478 330.402 403.201L322.528 409.928C321.682 410.651 320.045 411.238 318.871 411.238Z" fill="black"/>
<path d="M336.215 411.238H325.299C324.125 411.238 323.852 410.651 324.698 409.928L332.572 403.201C333.418 402.478 335.055 401.891 336.229 401.891H347.145C348.319 401.891 348.592 402.478 347.746 403.201L339.872 409.928C339.026 410.651 337.389 411.238 336.215 411.238Z" fill="black"/>
<path d="M353.545 411.238H342.629C341.455 411.238 341.182 410.651 342.028 409.928L349.902 403.201C350.748 402.478 352.385 401.891 353.559 401.891H364.475C365.649 401.891 365.922 402.478 365.076 403.201L357.202 409.928C356.356 410.651 354.719 411.238 353.545 411.238Z" fill="black"/>
<path d="M370.888 411.238H359.972C358.798 411.238 358.525 410.651 359.371 409.928L367.245 403.201C368.091 402.478 369.728 401.891 370.902 401.891H381.818C382.992 401.891 383.265 402.478 382.419 403.201L374.545 409.928C373.699 410.651 372.062 411.238 370.888 411.238Z" fill="black"/>
<path d="M387.959 411.238H377.043C375.869 411.238 375.596 410.652 376.442 409.928L391.357 397.183C392.203 396.46 393.841 395.873 395.014 395.873H405.931C407.104 395.873 407.377 396.46 406.531 397.183L391.616 409.928C390.77 410.652 389.133 411.238 387.959 411.238Z" fill="black"/>
<path d="M412.985 389.856H402.068C400.895 389.856 400.622 389.269 401.468 388.546L409.341 381.818C410.187 381.095 411.825 380.508 412.998 380.508H423.915C425.088 380.508 425.361 381.095 424.515 381.818L416.642 388.546C415.796 389.269 414.158 389.856 412.985 389.856Z" fill="black"/>
<path d="M182.606 400.54H171.689C170.516 400.54 170.243 399.953 171.089 399.23L178.962 392.503C179.808 391.779 181.446 391.193 182.619 391.193H193.536C194.71 391.193 194.982 391.779 194.136 392.503L186.263 399.23C185.417 399.953 183.779 400.54 182.606 400.54Z" fill="black"/>
<path d="M199.95 400.54H189.033C187.86 400.54 187.587 399.953 188.433 399.23L196.306 392.503C197.152 391.779 198.79 391.193 199.963 391.193H210.88C212.053 391.193 212.326 391.779 211.48 392.503L203.607 399.23C202.761 399.953 201.123 400.54 199.95 400.54Z" fill="black"/>
<path d="M217.28 400.54H206.363C205.19 400.54 204.917 399.953 205.763 399.23L213.636 392.503C214.482 391.779 216.12 391.193 217.293 391.193H228.21C229.383 391.193 229.656 391.779 228.81 392.503L220.937 399.23C220.091 399.953 218.453 400.54 217.28 400.54Z" fill="black"/>
<path d="M234.61 400.54H223.693C222.52 400.54 222.247 399.953 223.093 399.23L230.966 392.503C231.812 391.779 233.45 391.193 234.623 391.193H245.54C246.713 391.193 246.986 391.779 246.14 392.503L238.267 399.23C237.421 399.953 235.783 400.54 234.61 400.54Z" fill="black"/>
<path d="M251.953 400.54H241.036C239.863 400.54 239.59 399.953 240.436 399.23L248.309 392.503C249.155 391.779 250.793 391.193 251.966 391.193H262.883C264.056 391.193 264.329 391.779 263.483 392.503L255.61 399.23C254.764 399.953 253.126 400.54 251.953 400.54Z" fill="black"/>
<path d="M269.283 400.54H258.366C257.193 400.54 256.92 399.953 257.766 399.23L265.639 392.503C266.485 391.779 268.123 391.193 269.296 391.193H280.213C281.386 391.193 281.659 391.779 280.813 392.503L272.94 399.23C272.094 399.953 270.456 400.54 269.283 400.54Z" fill="black"/>
<path d="M286.626 400.54H275.71C274.536 400.54 274.263 399.953 275.109 399.23L282.983 392.503C283.829 391.779 285.466 391.193 286.64 391.193H297.556C298.73 391.193 299.003 391.779 298.157 392.503L290.283 399.23C289.437 399.953 287.8 400.54 286.626 400.54Z" fill="black"/>
<path d="M303.956 400.54H293.04C291.866 400.54 291.593 399.953 292.44 399.23L300.313 392.503C301.159 391.779 302.797 391.193 303.97 391.193H314.887C316.06 391.193 316.333 391.779 315.487 392.503L307.613 399.23C306.767 399.953 305.13 400.54 303.956 400.54Z" fill="black"/>
<path d="M321.287 400.54H310.37C309.196 400.54 308.924 399.953 309.77 399.23L317.643 392.503C318.489 391.779 320.127 391.193 321.3 391.193H332.217C333.39 391.193 333.663 391.779 332.817 392.503L324.944 399.23C324.098 399.953 322.46 400.54 321.287 400.54Z" fill="black"/>
<path d="M338.63 400.54H327.714C326.54 400.54 326.267 399.953 327.113 399.23L334.987 392.503C335.833 391.779 337.47 391.193 338.644 391.193H349.56C350.734 391.193 351.007 391.779 350.161 392.503L342.287 399.23C341.441 399.953 339.804 400.54 338.63 400.54Z" fill="black"/>
<path d="M355.959 400.54H345.043C343.869 400.54 343.596 399.953 344.442 399.23L352.316 392.503C353.162 391.779 354.799 391.193 355.973 391.193H366.89C368.063 391.193 368.336 391.779 367.49 392.503L359.616 399.23C358.77 399.953 357.133 400.54 355.959 400.54Z" fill="black"/>
<path d="M373.303 400.54H362.387C361.213 400.54 360.94 399.953 361.786 399.23L369.66 392.503C370.506 391.779 372.143 391.193 373.317 391.193H384.233C385.407 391.193 385.68 391.779 384.834 392.503L376.96 399.23C376.114 399.953 374.477 400.54 373.303 400.54Z" fill="black"/>
<path d="M400.471 400.54H380.058C378.884 400.54 378.611 399.953 379.457 399.23L387.331 392.503C388.177 391.779 389.814 391.193 390.988 391.193H411.402C412.575 391.193 412.848 391.779 412.002 392.503L404.128 399.23C403.282 399.953 401.645 400.54 400.471 400.54Z" fill="black"/>
<path d="M161.168 421.923H146.663C145.489 421.923 145.217 421.336 146.063 420.613L153.936 413.885C154.782 413.162 156.42 412.575 157.593 412.575H172.098C173.272 412.575 173.545 413.162 172.699 413.885L164.825 420.613C163.979 421.336 162.342 421.923 161.168 421.923Z" fill="black"/>
<path d="M174.923 421.923H167.909C166.736 421.923 166.463 421.336 167.309 420.613L175.182 413.885C176.028 413.162 177.666 412.575 178.839 412.575H185.853C187.027 412.575 187.3 413.162 186.453 413.885L178.58 420.613C177.734 421.336 176.096 421.923 174.923 421.923Z" fill="black"/>
<path d="M192.253 421.923H181.337C180.163 421.923 179.89 421.336 180.736 420.613L188.61 413.885C189.456 413.162 191.093 412.575 192.267 412.575H203.183C204.357 412.575 204.63 413.162 203.784 413.885L195.91 420.613C195.064 421.336 193.427 421.923 192.253 421.923Z" fill="black"/>
<path d="M209.597 421.923H198.681C197.507 421.923 197.234 421.336 198.08 420.613L205.954 413.885C206.8 413.162 208.437 412.575 209.611 412.575H220.527C221.701 412.575 221.974 413.162 221.128 413.885L213.254 420.613C212.408 421.336 210.771 421.923 209.597 421.923Z" fill="black"/>
<path d="M226.926 421.923H216.01C214.836 421.923 214.563 421.336 215.409 420.613L223.283 413.885C224.129 413.162 225.766 412.575 226.94 412.575H237.856C239.03 412.575 239.303 413.162 238.457 413.885L230.583 420.613C229.737 421.336 228.1 421.923 226.926 421.923Z" fill="black"/>
<path d="M244.27 421.923H233.353C232.18 421.923 231.907 421.336 232.753 420.613L240.627 413.885C241.473 413.162 243.11 412.575 244.284 412.575H255.2C256.374 412.575 256.646 413.162 255.8 413.885L247.927 420.613C247.081 421.336 245.443 421.923 244.27 421.923Z" fill="black"/>
<path d="M261.6 421.923H250.683C249.51 421.923 249.237 421.336 250.083 420.613L257.957 413.885C258.803 413.162 260.44 412.575 261.614 412.575H272.53C273.704 412.575 273.977 413.162 273.131 413.885L265.257 420.613C264.411 421.336 262.774 421.923 261.6 421.923Z" fill="black"/>
<path d="M278.93 421.923H268.014C266.84 421.923 266.567 421.336 267.413 420.613L275.287 413.885C276.133 413.162 277.77 412.575 278.944 412.575H289.86C291.034 412.575 291.307 413.162 290.461 413.885L282.587 420.613C281.741 421.336 280.104 421.923 278.93 421.923Z" fill="black"/>
<path d="M296.274 421.923H285.357C284.184 421.923 283.911 421.336 284.757 420.613L292.63 413.885C293.476 413.162 295.114 412.575 296.287 412.575H307.204C308.377 412.575 308.65 413.162 307.804 413.885L299.931 420.613C299.085 421.336 297.447 421.923 296.274 421.923Z" fill="black"/>
<path d="M313.604 421.923H302.687C301.514 421.923 301.241 421.336 302.087 420.613L309.96 413.885C310.807 413.162 312.444 412.575 313.618 412.575H324.534C325.708 412.575 325.98 413.162 325.134 413.885L317.261 420.613C316.415 421.336 314.777 421.923 313.604 421.923Z" fill="black"/>
<path d="M330.947 421.923H320.03C318.857 421.923 318.584 421.336 319.43 420.613L327.303 413.885C328.149 413.162 329.787 412.575 330.96 412.575H341.877C343.05 412.575 343.323 413.162 342.477 413.885L334.604 420.613C333.758 421.336 332.12 421.923 330.947 421.923Z" fill="black"/>
<path d="M375.445 421.923H337.36C336.187 421.923 335.914 421.336 336.76 420.613L344.633 413.885C345.479 413.162 347.117 412.575 348.29 412.575H386.375C387.549 412.575 387.822 413.162 386.976 413.885L379.102 420.613C378.256 421.336 376.619 421.923 375.445 421.923Z" fill="black"/>
<path d="M145.08 432.621H134.164C132.99 432.621 132.718 432.034 133.564 431.311L141.437 424.584C142.283 423.86 143.921 423.274 145.094 423.274H156.011C157.184 423.274 157.457 423.86 156.611 424.584L148.737 431.311C147.891 432.034 146.254 432.621 145.08 432.621Z" fill="black"/>
<path d="M162.411 432.621H151.494C150.321 432.621 150.048 432.034 150.894 431.311L158.767 424.584C159.613 423.86 161.251 423.274 162.424 423.274H173.341C174.514 423.274 174.787 423.86 173.941 424.584L166.068 431.311C165.222 432.034 163.584 432.621 162.411 432.621Z" fill="black"/>
<path d="M179.754 432.621H168.838C167.664 432.621 167.391 432.034 168.237 431.311L176.111 424.584C176.957 423.86 178.594 423.274 179.768 423.274H190.684C191.858 423.274 192.131 423.86 191.285 424.584L183.411 431.311C182.565 432.034 180.928 432.621 179.754 432.621Z" fill="black"/>
<path d="M197.084 432.621H186.168C184.994 432.621 184.721 432.034 185.567 431.311L193.441 424.584C194.287 423.86 195.924 423.274 197.098 423.274H208.015C209.188 423.274 209.461 423.86 208.615 424.584L200.741 431.311C199.895 432.034 198.258 432.621 197.084 432.621Z" fill="black"/>
<path d="M335.628 432.621H324.712C323.538 432.621 323.265 432.034 324.111 431.311L331.985 424.584C332.831 423.86 334.468 423.274 335.642 423.274H346.558C347.732 423.274 348.005 423.86 347.159 424.584L339.285 431.311C338.439 432.034 336.802 432.621 335.628 432.621Z" fill="black"/>
<path d="M283.761 432.621H203.497C202.323 432.621 202.051 432.034 202.897 431.311L210.77 424.584C211.616 423.86 213.254 423.274 214.427 423.274H294.691C295.864 423.274 296.137 423.86 295.291 424.584L287.418 431.311C286.572 432.034 284.934 432.621 283.761 432.621Z" fill="black"/>
<path d="M301.105 432.621H290.188C289.015 432.621 288.742 432.034 289.588 431.311L297.461 424.584C298.308 423.86 299.945 423.274 301.119 423.274H312.035C313.209 423.274 313.481 423.86 312.635 424.584L304.762 431.311C303.916 432.034 302.278 432.621 301.105 432.621Z" fill="black"/>
<path d="M324.78 427.313H313.863C312.69 427.313 312.417 426.726 313.263 426.003L314.928 424.584C315.774 423.86 317.411 423.274 318.585 423.274H329.501C330.675 423.274 330.947 423.86 330.101 424.584L328.437 426.003C327.591 426.726 325.953 427.313 324.78 427.313Z" fill="black"/>
<path d="M318.461 432.716H307.545C306.371 432.716 306.098 432.13 306.944 431.406L309.346 429.36C310.192 428.636 311.83 428.05 313.003 428.05H323.92C325.093 428.05 325.366 428.636 324.52 429.36L322.118 431.406C321.272 432.13 319.635 432.716 318.461 432.716Z" fill="black"/>
<path d="M362.947 432.621H342.533C341.36 432.621 341.087 432.034 341.933 431.311L349.806 424.584C350.652 423.86 352.29 423.274 353.463 423.274H373.877C375.051 423.274 375.324 423.86 374.477 424.584L366.604 431.311C365.758 432.034 364.12 432.621 362.947 432.621Z" fill="black"/>
<path opacity="0.3" d="M246.836 467.09H165.767C162.888 467.09 162.247 465.657 164.321 463.883L186.618 444.82C188.692 443.046 192.69 441.613 195.569 441.613H276.638C279.517 441.613 280.158 443.046 278.084 444.82L255.787 463.883C253.713 465.657 249.715 467.09 246.836 467.09Z" fill="#51C3EB"/>
<path d="M469.614 362.319H192.308V181.582C192.308 175.851 196.947 171.212 202.678 171.212H459.257C464.988 171.212 469.628 175.851 469.628 181.582V362.319H469.614Z" fill="black"/>
<path d="M460.24 184.748H201.696V356.096H460.24V184.748Z" fill="#08668B"/>
<path d="M386.99 14.7783H502.514C503.387 14.7783 504.11 15.4879 504.11 16.3749V32.4767C504.11 33.3364 503.415 34.0459 502.541 34.0459H386.99C386.13 34.0459 385.421 33.35 385.421 32.4767V16.3476C385.421 15.4879 386.117 14.7783 386.99 14.7783Z" fill="black"/>
<path d="M504.11 24.071H385.421V97.0478H504.11V24.071Z" fill="#0484BB"/>
<path d="M410.42 34.9465H477.925" stroke="white" stroke-linecap="round" stroke-linejoin="round"/>
<path d="M410.42 45.208H477.925" stroke="white" stroke-linecap="round" stroke-linejoin="round"/>
<path d="M410.42 55.4695H477.925" stroke="white" stroke-linecap="round" stroke-linejoin="round"/>
<path d="M410.42 65.7446H477.925" stroke="white" stroke-linecap="round" stroke-linejoin="round"/>
<path d="M396.364 30.5935L402.423 35.001L396.364 39.5587" stroke="white" stroke-linecap="round" stroke-linejoin="round"/>
<path d="M353.463 50.0386H468.987C469.86 50.0386 470.583 50.7481 470.583 51.6351V67.7369C470.583 68.5966 469.887 69.3062 469.014 69.3062H353.463C352.603 69.3062 351.894 68.6103 351.894 67.7369V51.6078C351.894 50.7481 352.589 50.0386 353.463 50.0386Z" fill="black"/>
<path d="M470.583 59.345H351.894V132.322H470.583V59.345Z" fill="#FF9C40"/>
<path d="M376.893 70.2068H444.397" stroke="white" stroke-linecap="round" stroke-linejoin="round"/>
<path d="M376.893 80.4819H444.397" stroke="white" stroke-linecap="round" stroke-linejoin="round"/>
<path d="M376.893 90.7434H444.397" stroke="white" stroke-linecap="round" stroke-linejoin="round"/>
<path d="M376.893 101.005H444.397" stroke="white" stroke-linecap="round" stroke-linejoin="round"/>
<path d="M362.837 65.8674L368.896 70.275L362.837 74.819" stroke="white" stroke-linecap="round" stroke-linejoin="round"/>
<path d="M260.536 102.029C260.4 99.2994 262.501 96.9796 265.23 96.8432C267.959 96.7067 270.279 98.8082 270.416 101.537C270.416 101.715 270.402 101.878 270.388 102.042C272.299 101.619 274.141 101.019 275.887 100.268C275.778 100.132 275.642 99.9953 275.546 99.8452C274.059 97.5528 274.728 94.4961 277.02 93.0088C279.313 91.5214 282.369 92.19 283.857 94.4825C283.952 94.6326 284.02 94.7963 284.102 94.9601C285.535 93.6501 286.845 92.2037 288.005 90.6481C287.827 90.5798 287.636 90.5253 287.459 90.4297C285.03 89.188 284.075 86.1996 285.317 83.7707C286.558 81.3418 289.547 80.3866 291.976 81.6283C292.153 81.7238 292.317 81.8467 292.481 81.9558C293.067 80.1137 293.49 78.2033 293.709 76.2383C293.49 76.2792 293.286 76.3202 293.067 76.3338C290.338 76.4703 288.018 74.3688 287.882 71.6397C287.746 68.9106 289.847 66.5908 292.576 66.4544C292.808 66.4544 293.026 66.468 293.245 66.4817C292.822 64.5304 292.221 62.6473 291.443 60.8597C291.266 61.0234 291.089 61.1872 290.87 61.31C288.578 62.7974 285.521 62.1287 284.034 59.8363C282.547 57.5438 283.215 54.4872 285.508 52.9998C285.712 52.8633 285.944 52.7678 286.163 52.6723C284.825 51.1986 283.352 49.8613 281.755 48.6741C281.673 48.9198 281.591 49.1654 281.469 49.411C280.227 51.8399 277.238 52.7951 274.809 51.5534C272.381 50.3116 271.425 47.3232 272.667 44.8943C272.79 44.6623 272.94 44.444 273.09 44.2393C271.207 43.6389 269.256 43.2159 267.25 42.9976C267.304 43.2568 267.359 43.5297 267.373 43.8026C267.509 46.5318 265.408 48.8515 262.679 48.988C259.949 49.1244 257.63 47.023 257.493 44.2939C257.493 44.021 257.493 43.7754 257.534 43.5161C255.556 43.9528 253.659 44.5668 251.858 45.3719C252.035 45.5629 252.212 45.7676 252.362 45.9996C253.85 48.2921 253.181 51.3487 250.889 52.8361C248.596 54.3234 245.54 53.6548 244.052 51.3623C243.916 51.144 243.807 50.912 243.711 50.6937C242.251 52.031 240.927 53.5183 239.754 55.1285C239.999 55.2104 240.231 55.2923 240.463 55.4014C242.892 56.6432 243.848 59.6316 242.606 62.0605C241.364 64.4894 238.376 65.4446 235.947 64.2029C235.728 64.0937 235.551 63.9572 235.36 63.8208C234.773 65.6766 234.378 67.6143 234.159 69.6065C234.391 69.5656 234.609 69.511 234.855 69.4974C237.584 69.3609 239.904 71.4623 240.04 74.1915C240.177 76.9206 238.075 79.2403 235.346 79.3768C235.142 79.3768 234.937 79.3631 234.732 79.3495C235.169 81.2872 235.783 83.143 236.561 84.9033C236.725 84.7668 236.875 84.6304 237.052 84.5075C239.345 83.0202 242.401 83.6888 243.888 85.9813C245.376 88.2737 244.707 91.3304 242.415 92.8177C242.251 92.9132 242.087 92.9815 241.924 93.0633C243.234 94.4825 244.694 95.7788 246.249 96.9387C246.317 96.7613 246.372 96.5839 246.454 96.4065C247.696 93.9776 250.684 93.0224 253.113 94.2642C255.542 95.5059 256.497 98.4943 255.255 100.923C255.173 101.087 255.064 101.21 254.969 101.36C256.797 101.933 258.68 102.329 260.632 102.547C260.604 102.37 260.563 102.192 260.55 102.015L260.536 102.029ZM243.793 73.7821C243.247 62.6745 251.803 53.2181 262.91 52.6587C274.018 52.1128 283.474 60.6686 284.034 71.7762C284.58 82.8837 276.024 92.3401 264.916 92.8996C253.809 93.4454 244.352 84.8896 243.793 73.7821Z" fill="#085C7D" fill-opacity="0.9804"/>
<path d="M270.52 88.5874C279.247 84.9406 283.365 74.9098 279.718 66.1832C276.071 57.4565 266.04 53.3385 257.314 56.9854C248.587 60.6323 244.469 70.663 248.116 79.3896C251.763 88.1163 261.793 92.2343 270.52 88.5874Z" stroke="#085C7D" stroke-opacity="0.9804" stroke-linecap="round" stroke-linejoin="round"/>
<path d="M165.303 75.747C165.057 75.747 164.825 75.7333 164.594 75.706C165.085 77.9166 165.794 80.0453 166.695 82.0649C166.872 81.9148 167.05 81.7511 167.254 81.6146C169.874 79.9225 173.381 80.673 175.073 83.293C176.765 85.913 176.015 89.4199 173.381 91.1119C173.204 91.2348 173.013 91.303 172.822 91.3985C174.323 93.036 175.988 94.5097 177.775 95.8333C177.857 95.6287 177.912 95.424 178.007 95.2329C179.44 92.4492 182.838 91.3576 185.621 92.7767C188.405 94.2095 189.497 97.6073 188.078 100.391C187.982 100.568 187.859 100.718 187.75 100.896C189.838 101.551 192.008 102.015 194.232 102.26C194.205 102.056 194.15 101.865 194.136 101.646C193.986 98.5215 196.388 95.8743 199.513 95.7105C202.638 95.5604 205.285 97.9621 205.449 101.087C205.449 101.278 205.435 101.469 205.421 101.66C207.605 101.182 209.72 100.5 211.725 99.6268C211.589 99.4631 211.453 99.313 211.33 99.1356C209.638 96.5156 210.388 93.0087 213.008 91.3166C215.628 89.6246 219.135 90.3751 220.827 92.995C220.936 93.1724 221.018 93.3635 221.114 93.5409C222.751 92.0399 224.252 90.3887 225.576 88.6148C225.371 88.5329 225.153 88.4783 224.948 88.3692C222.164 86.9364 221.073 83.525 222.492 80.7549C223.925 77.9712 227.322 76.8796 230.106 78.2987C230.311 78.4079 230.488 78.5443 230.679 78.6671C231.362 76.5657 231.839 74.3688 232.098 72.1172C231.853 72.1582 231.607 72.2128 231.362 72.2264C228.237 72.3765 225.589 69.9749 225.426 66.85C225.276 63.7252 227.677 61.0779 230.802 60.9142C231.061 60.9142 231.307 60.9278 231.566 60.9551C231.089 58.7172 230.393 56.5612 229.506 54.5144C229.301 54.6918 229.096 54.8828 228.851 55.0329C226.231 56.725 222.724 55.9745 221.032 53.3409C219.34 50.7209 220.09 47.214 222.724 45.5219C222.969 45.3718 223.215 45.249 223.474 45.1398C221.946 43.4478 220.254 41.9195 218.426 40.5686C218.33 40.8551 218.234 41.128 218.098 41.4009C216.665 44.1847 213.267 45.2763 210.484 43.8572C207.7 42.4244 206.608 39.0266 208.028 36.2429C208.164 35.97 208.341 35.7244 208.519 35.4924C206.363 34.7965 204.125 34.3189 201.832 34.0732C201.901 34.3734 201.955 34.6737 201.969 35.0011C202.119 38.126 199.717 40.7732 196.593 40.937C193.468 41.0871 190.82 38.6855 190.657 35.5606C190.643 35.2604 190.657 34.9602 190.698 34.66C188.432 35.1512 186.263 35.8745 184.202 36.7751C184.407 37.0071 184.612 37.239 184.775 37.4983C186.467 40.1183 185.717 43.6252 183.083 45.3172C180.463 47.0093 176.956 46.2588 175.264 43.6388C175.101 43.3932 174.991 43.1339 174.869 42.8747C173.19 44.4166 171.676 46.1087 170.338 47.9508C170.611 48.0464 170.884 48.1282 171.157 48.2647C173.941 49.6975 175.032 53.0952 173.613 55.879C172.18 58.6627 168.783 59.7543 165.999 58.3352C165.753 58.2124 165.535 58.0486 165.33 57.8985C164.662 60.0272 164.198 62.2378 163.966 64.5166C164.225 64.462 164.484 64.4075 164.757 64.3938C167.882 64.2437 170.529 66.6453 170.693 69.7702C170.843 72.895 168.442 75.5423 165.317 75.706L165.303 75.747ZM193.113 51.294C202.433 48.5649 212.23 53.9413 214.946 63.2612C217.675 72.5812 212.299 82.3787 202.992 85.0942C193.672 87.8234 183.875 82.447 181.159 73.1407C178.43 63.8207 183.807 54.0231 193.113 51.3077V51.294Z" fill="#085C7D" fill-opacity="0.9804"/>
<path d="M421.745 139.69V259.54C421.745 266.063 416.464 271.343 409.941 271.343H381.981" stroke="#1C1C1B" stroke-linecap="round" stroke-linejoin="round" stroke-dasharray="4 4"/>
<path d="M273.322 276.897H112.685C106.163 276.897 100.882 271.616 100.882 265.093V206.963" stroke="#1C1C1B" stroke-linecap="round" stroke-linejoin="round" stroke-dasharray="4 4"/>
<path d="M386.457 300.9H506.307C512.829 300.9 518.11 306.181 518.11 312.703V389.555" stroke="#1C1C1B" stroke-linecap="round" stroke-linejoin="round" stroke-dasharray="4 4"/>
<path d="M273.322 306.044H149.365C142.842 306.044 137.562 311.325 137.562 317.848V361.623" stroke="#1C1C1B" stroke-linecap="round" stroke-linejoin="round" stroke-dasharray="4 4"/>
<path d="M229.86 95.342L230.406 223.393C230.433 229.915 235.742 235.182 242.264 235.141L284.033 234.95" stroke="#1C1C1B" stroke-linecap="round" stroke-linejoin="round" stroke-dasharray="4 4"/>
<path d="M463.009 397.634H453.566V405.289H463.009V397.634Z" fill="#FF9C40"/>
<path d="M495.922 397.647H471.237V405.302H495.922V397.647Z" fill="#FF9C40"/>
<path d="M548.376 397.647H517.523V405.302H548.376V397.647Z" fill="#FF9C40"/>
<path d="M577.182 397.647H555.581V405.302H577.182V397.647Z" fill="#FF9C40"/>
<path d="M505.174 411.238H490.778V418.893H505.174V411.238Z" fill="#FF9C40"/>
<path d="M481.526 411.238H453.566V418.893H481.526V411.238Z" fill="#FF9C40"/>
<path d="M569.977 411.238H545.292V418.893H569.977V411.238Z" fill="#FF9C40"/>
<path d="M578.698 393.567C581.713 393.567 584.169 396.078 584.169 399.175V403.16C584.169 404.647 584.743 406.08 585.766 407.131L587.417 408.823L586.284 409.983C585.261 411.034 584.688 412.466 584.688 413.954V417.338C584.688 420.435 582.245 422.946 579.216 422.946H578.315" stroke="#085C7D" stroke-opacity="0.9804" stroke-linecap="round" stroke-linejoin="round"/>
<path d="M452.803 393.567C449.787 393.567 447.331 396.078 447.331 399.175V403.16C447.331 404.647 446.758 406.08 445.734 407.131L444.083 408.823L445.216 409.983C446.239 411.034 446.812 412.466 446.812 413.954V417.338C446.812 420.435 449.255 422.946 452.284 422.946H453.185" stroke="#085C7D" stroke-opacity="0.9804" stroke-linecap="round" stroke-linejoin="round"/>
<path d="M505.911 397.292L518.247 419.234" stroke="#085C7D" stroke-opacity="0.9804" stroke-linecap="round" stroke-linejoin="round"/>
<path d="M40.2007 179.767H13.0732V187.423H40.2007V179.767Z" fill="#FF9C40"/>
<path d="M79.6085 179.767H47.6914V187.423H79.6085V179.767Z" fill="#FF9C40"/>
<path d="M103.953 179.767H85.0947V187.423H103.953V179.767Z" fill="#FF9C40"/>
<path d="M153.636 179.767H132.035V187.423H153.636V179.767Z" fill="#FF9C40"/>
<path d="M67.9554 193.372H16.8389V201.027H67.9554V193.372Z" fill="#FF9C40"/>
<path d="M114.582 193.372H75.1602V201.027H114.582V193.372Z" fill="#FF9C40"/>
<path d="M153.322 193.372H139.608V201.027H153.322V193.372Z" fill="#FF9C40"/>
<path d="M155.151 175.701C158.166 175.701 160.623 178.212 160.623 181.309V185.294C160.623 186.781 161.196 188.214 162.219 189.265L163.87 190.957L162.738 192.117C161.714 193.167 161.141 194.6 161.141 196.087V199.472C161.141 202.569 158.698 205.08 155.669 205.08H154.769" stroke="#085C7D" stroke-opacity="0.9804" stroke-linecap="round" stroke-linejoin="round"/>
<path d="M9.40217 175.701C6.38649 175.701 3.93028 178.212 3.93028 181.309V185.294C3.93028 186.781 3.35716 188.214 2.33374 189.265L0.682617 190.957L1.8152 192.117C2.83863 193.167 3.41174 194.6 3.41174 196.087V199.472C3.41174 202.569 5.85431 205.08 8.88364 205.08H9.78425" stroke="#085C7D" stroke-opacity="0.9804" stroke-linecap="round" stroke-linejoin="round"/>
<path d="M116.779 179.426L129.115 201.368" stroke="#085C7D" stroke-opacity="0.9804" stroke-linecap="round" stroke-linejoin="round"/>
<path d="M53.6406 383.865C53.6406 378.393 58.4439 373.945 64.3661 373.945C65.253 373.945 66.1127 374.04 66.9315 374.231C66.7404 373.385 66.6449 372.498 66.6449 371.598C66.6449 364.229 73.0993 358.266 81.0683 358.266C85.2439 358.266 88.9964 359.903 91.63 362.523C94.441 355.673 101.591 350.802 109.983 350.802C120.491 350.802 129.074 358.43 129.592 368.023C131.052 367.559 132.635 367.299 134.273 367.299C142.187 367.299 148.601 373.222 148.601 380.536C148.601 387.85 142.187 393.772 134.273 393.772H63.6702V393.745C58.0755 393.417 53.6406 389.105 53.6406 383.851V383.865Z" fill="#0484BB"/>
<path d="M62.6745 377.629C60.3411 378.093 58.2942 379.703 57.4345 381.777C56.5749 383.838 56.916 386.294 58.3079 388.095" stroke="white" stroke-linecap="round" stroke-linejoin="round"/>
<path d="M143.402 382.583C142.965 384.097 142.215 385.53 141.178 386.731" stroke="white" stroke-linecap="round" stroke-linejoin="round"/>
<path d="M138.284 371.448C141.982 372.253 143.906 375.664 143.879 379.266" stroke="white" stroke-linecap="round" stroke-linejoin="round"/>
<path d="M107.704 354.909C111.62 354.159 115.878 355.032 119.085 357.27C122.278 359.508 124.365 363.042 124.652 366.74" stroke="white" stroke-linecap="round" stroke-linejoin="round"/>
<path d="M528.112 113.668L544.064 130.261L567.357 96.1199" stroke="#FF9C40" stroke-width="3" stroke-linecap="round" stroke-linejoin="round"/>
<path d="M55.7969 82.6105L71.7486 99.2036L95.0417 65.0623" stroke="#FF9C40" stroke-width="3" stroke-linecap="round" stroke-linejoin="round"/>
<path d="M22.5967 313.958L38.5484 330.538L61.8415 296.396" stroke="#FF9C40" stroke-width="3" stroke-linecap="round" stroke-linejoin="round"/>
<path d="M552.743 307.531L568.695 324.111L591.988 289.969" stroke="#FF9C40" stroke-width="3" stroke-linecap="round" stroke-linejoin="round"/>
<path d="M300.79 19.6088L316.742 36.1882L340.049 2.04688" stroke="#FF9C40" stroke-width="3" stroke-linecap="round" stroke-linejoin="round"/>
<path d="M403.098 287.559C412.398 249.087 388.75 210.359 350.277 201.059C311.805 191.759 273.078 215.407 263.777 253.88C254.477 292.352 278.125 331.079 316.598 340.38C355.07 349.68 393.797 326.031 403.098 287.559Z" fill="#FF9C40"/>
<path d="M309.803 285.685C319.873 292.699 333.123 292.289 343.33 285.712C355.106 278.111 360.769 264.67 360.605 251.693C360.441 238.566 354.915 224.47 342.538 217.129C332.482 211.166 319.641 211.316 309.912 217.825C294.97 227.814 290.753 247.75 294.874 263.565" stroke="white" stroke-width="3" stroke-linecap="round" stroke-linejoin="round"/>
<path d="M365.374 253.285L287.8 253.759C283.346 253.787 279.757 257.419 279.785 261.873L280.153 322.199C280.18 326.653 283.813 330.242 288.267 330.214L365.841 329.74C370.295 329.713 373.883 326.081 373.856 321.627L373.487 261.301C373.46 256.847 369.828 253.258 365.374 253.285Z" fill="white"/>
<path d="M335.928 278.698C335.969 284.839 331.016 289.847 324.875 289.888C318.735 289.929 313.727 284.975 313.686 278.835C313.645 272.694 318.598 267.686 324.739 267.645C330.879 267.604 335.887 272.558 335.928 278.698Z" fill="black"/>
<path d="M331.316 310.124L317.902 310.206L319.622 283.379L329.255 283.324L331.316 310.124Z" fill="black"/>
</g>
<defs>
<clipPath id="clip0_55_12334">
<rect width="594.035" height="516.309" fill="white"/>
</clipPath>
</defs>
</svg>
